<?xml version="1.0" encoding="utf-8" standalone="no"?>
<!DOCTYPE svg PUBLIC "-//W3C//DTD SVG 1.1//EN"
  "http://www.w3.org/Graphics/SVG/1.1/DTD/svg11.dtd">
<!-- Created with matplotlib (http://matplotlib.org/) -->
<svg height="432pt" version="1.1" viewBox="0 0 576 432" width="576pt" xmlns="http://www.w3.org/2000/svg" xmlns:xlink="http://www.w3.org/1999/xlink">
 <defs>
  <style type="text/css">
*{stroke-linecap:butt;stroke-linejoin:round;stroke-miterlimit:100000;}
  </style>
 </defs>
 <g id="figure_1">
  <g id="patch_1">
   <path d="M 0 432 
L 576 432 
L 576 0 
L 0 0 
z
" style="fill:#ffffff;"/>
  </g>
  <g id="axes_1">
   <g id="patch_2">
    <path d="M 72 388.8 
L 518.4 388.8 
L 518.4 43.2 
L 72 43.2 
z
" style="fill:#ffffff;"/>
   </g>
   <g id="line2d_1">
    <path clip-path="url(#pff365fc862)" d="M 72 327.507456 
L 73.488 330.506647 
L 74.976 331.206919 
L 76.464 332.618378 
L 77.952 334.550756 
L 79.44 329.559207 
L 80.928 331.063789 
L 82.416 327.910167 
L 83.904 335.682844 
L 85.392 334.959611 
L 86.88 330.311417 
L 88.368 333.435733 
L 89.856 332.402508 
L 91.344 332.134054 
L 92.832 335.601338 
L 94.32 328.187503 
L 95.808 325.357811 
L 97.296 336.944086 
L 98.784 332.895342 
L 100.272 334.10647 
L 101.76 334.408533 
L 103.248 324.297035 
L 104.736 334.696301 
L 106.224 327.087909 
L 107.712 334.264242 
L 109.2 328.320404 
L 110.688 332.495515 
L 112.176 331.765248 
L 113.664 332.139671 
L 115.152 333.654528 
L 116.64 329.39482 
L 118.128 328.442804 
L 119.616 335.928471 
L 121.104 328.756364 
L 122.592 330.639812 
L 124.08 329.040196 
L 125.568 332.329949 
L 127.056 334.498598 
L 128.544 333.675019 
L 130.032 332.326907 
L 131.52 335.664101 
L 133.008 335.090672 
L 134.496 330.248313 
L 135.984 331.294041 
L 137.472 332.830642 
L 138.96 331.669835 
L 140.448 333.762535 
L 141.936 324.569864 
L 143.424 329.063287 
L 144.912 330.081792 
L 146.4 330.357437 
L 147.888 331.974083 
L 149.376 332.113842 
L 150.864 322.646497 
L 152.352 329.515008 
L 153.84 322.376533 
L 155.328 327.59583 
L 156.816 334.766933 
L 158.304 331.3536 
L 159.792 329.887556 
L 161.28 331.190784 
L 162.768 336.907776 
L 164.256 324.327936 
L 165.744 331.654656 
L 167.232 331.713024 
L 168.72 327.85152 
L 170.208 333.91872 
L 171.696 332.905728 
L 173.184 334.504704 
L 174.672 327.14496 
L 176.16 333.927936 
L 177.648 326.505984 
L 179.136 331.286016 
L 180.624 329.362944 
L 182.112 335.23968 
L 183.6 328.994304 
L 185.088 330.634752 
L 186.576 331.15392 
L 188.064 332.434944 
L 189.552 332.62848 
L 191.04 332.984832 
L 192.528 336.658944 
L 194.016 328.836096 
L 195.504 330.643968 
L 196.992 326.671872 
L 198.48 339.070464 
L 199.968 332.16768 
L 201.456 337.210368 
L 202.944 324.333312 
L 204.432 328.883712 
L 205.92 334.826496 
L 207.408 335.920128 
L 208.896 333.1392 
L 210.384 333.13152 
L 211.872 330.36288 
L 213.36 328.052736 
L 214.848 327.224832 
L 216.336 325.963776 
L 217.824 332.596224 
L 219.312 336.572928 
L 220.8 334.228992 
L 222.288 329.166336 
L 223.776 328.766976 
L 225.264 327.135744 
L 226.752 334.672128 
L 228.24 331.239936 
L 229.728 337.752576 
L 231.216 325.863936 
L 232.704 333.16608 
L 234.192 329.507328 
L 235.68 335.357952 
L 237.168 328.096512 
L 238.656 328.76544 
L 240.144 330.01344 
L 241.632 328.214016 
L 243.12 332.345088 
L 244.608 329.136384 
L 246.096 325.353984 
L 247.584 330.6816 
L 249.072 336.609024 
L 250.56 335.510016 
L 252.048 331.584 
L 253.536 329.756928 
L 255.024 328.40832 
L 256.512 336.585984 
L 258 335.383296 
L 259.488 331.980288 
L 260.976 331.713024 
L 262.464 335.85024 
L 263.952 327.300096 
L 265.44 334.696704 
L 266.928 335.583744 
L 268.416 330.0864 
L 269.904 331.047168 
L 271.392 329.165568 
L 272.88 329.056512 
L 274.368 332.41344 
L 275.856 337.137408 
L 277.344 330.528768 
L 278.832 331.628544 
L 280.32 328.088064 
L 281.808 327.222528 
L 283.296 336.818688 
L 284.784 332.156928 
L 286.272 335.352576 
L 287.76 328.006656 
L 289.248 327.359232 
L 290.736 332.408064 
L 292.224 335.782656 
L 293.712 330.067968 
L 295.2 331.232256 
L 296.688 333.702912 
L 298.176 338.713344 
L 299.664 329.584128 
L 301.152 337.31328 
L 302.64 332.93568 
L 304.128 330.22848 
L 305.616 332.0832 
L 307.104 328.837632 
L 308.592 331.047168 
L 310.08 330.55488 
L 311.568 327.135744 
L 313.056 328.04736 
L 314.544 328.693248 
L 316.032 335.00928 
L 317.52 327.900672 
L 319.008 331.928064 
L 320.496 328.785408 
L 321.984 332.702976 
L 323.472 332.796672 
L 324.96 331.29216 
L 326.448 331.839744 
L 327.936 327.54048 
L 329.424 331.6416 
L 330.912 329.646336 
L 332.4 326.865408 
L 333.888 332.858112 
L 335.376 336.254208 
L 336.864 329.86752 
L 338.352 337.654272 
L 339.84 331.18464 
L 341.328 325.526784 
L 342.816 332.82048 
L 344.304 332.823552 
L 345.792 335.1168 
L 347.28 334.338816 
L 348.768 336.220416 
L 350.256 330.213888 
L 353.232 328.512768 
L 354.72 336.041472 
L 356.208 325.1328 
L 357.696 328.829184 
L 359.184 337.724928 
L 360.672 330.623232 
L 362.16 326.611968 
L 363.648 332.56704 
L 365.136 332.800512 
L 366.624 335.670528 
L 368.112 335.133696 
L 369.6 336.745728 
L 371.088 328.072704 
L 374.064 340.068096 
L 375.552 326.739456 
L 377.04 336.602112 
L 378.528 330.442752 
L 380.016 333.233664 
L 381.504 328.075008 
L 382.992 326.304768 
L 384.48 334.144512 
L 385.968 331.048704 
L 387.456 334.290432 
L 388.944 336.5952 
L 390.432 336.769536 
L 391.92 333.417984 
L 393.408 333.245184 
L 394.896 324.46848 
L 396.384 336.086784 
L 397.872 330.855168 
L 399.36 332.259072 
L 400.848 335.732736 
L 402.336 339.50208 
L 403.824 332.683008 
L 405.312 336.062208 
L 406.8 335.265024 
L 408.288 331.008 
L 409.776 329.139456 
L 411.264 333.307392 
L 412.752 334.699008 
L 414.24 327.457536 
L 415.728 336.931584 
L 417.216 329.988096 
L 418.704 333.413376 
L 420.192 335.556096 
L 421.68 331.201536 
L 423.168 330.223104 
L 424.656 331.739136 
L 426.144 328.260096 
L 427.632 330.922752 
L 429.12 330.766848 
L 430.608 338.049792 
L 432.096 322.401024 
L 433.584 333.282048 
L 435.072 332.277504 
L 438.048 336.1536 
L 439.536 334.319616 
L 441.024 325.980672 
L 442.512 335.417088 
L 444 330.455808 
L 445.488 331.37664 
L 448.464 335.65056 
L 449.952 336.066816 
L 451.44 333.679872 
L 452.928 333.510912 
L 454.416 329.347584 
L 455.904 330.607872 
L 457.392 332.504064 
L 458.88 337.510656 
L 460.368 333.682176 
L 461.856 337.844736 
L 463.344 335.884032 
L 464.832 330.240768 
L 466.32 336.634368 
L 467.808 332.169984 
L 469.296 332.679936 
L 470.784 334.00704 
L 472.272 332.218368 
L 473.76 335.47008 
L 475.248 335.83872 
L 476.736 328.08576 
L 478.224 332.00256 
L 479.712 339.753984 
L 481.2 331.99104 
L 482.688 332.264448 
L 484.176 327.474432 
L 485.664 333.03552 
L 487.152 334.891008 
L 488.64 327.70944 
L 490.128 336.467712 
L 491.616 336.6528 
L 493.104 330.217568 
L 494.592 332.153856 
L 496.08 338.644224 
L 497.568 327.95136 
L 499.056 335.109888 
L 500.544 332.636928 
L 502.032 328.59648 
L 503.52 329.018112 
L 505.008 328.889088 
L 506.496 336.654336 
L 507.984 333.199104 
L 509.472 333.982464 
L 510.96 335.986944 
L 512.448 337.767936 
L 513.936 331.082496 
L 515.424 325.379328 
L 516.912 336.225792 
L 516.912 336.225792 
" style="fill:none;stroke:#0000ff;stroke-linecap:square;"/>
   </g>
   <g id="line2d_2">
    <path clip-path="url(#pff365fc862)" d="M 72 364.030926 
L 73.488 367.546576 
L 74.976 362.180045 
L 76.464 364.320411 
L 77.952 365.260202 
L 79.44 360.815941 
L 80.928 363.408152 
L 82.416 364.093014 
L 83.904 361.511795 
L 85.392 362.882165 
L 86.88 366.281762 
L 88.368 368.896858 
L 89.856 368.778807 
L 91.344 363.584688 
L 92.832 366.621566 
L 94.32 366.446547 
L 95.808 358.756249 
L 97.296 368.612795 
L 98.784 364.897156 
L 100.272 364.867331 
L 101.76 363.734674 
L 103.248 360.85696 
L 104.736 365.447501 
L 106.224 363.031679 
L 107.712 372.832353 
L 109.2 368.076561 
L 110.688 365.868092 
L 112.176 365.453373 
L 113.664 364.107016 
L 115.152 366.402725 
L 116.64 366.267408 
L 118.128 367.437587 
L 121.104 366.765798 
L 122.592 367.089351 
L 124.08 363.190394 
L 125.568 363.582488 
L 127.056 365.406212 
L 128.544 368.475909 
L 131.52 363.709413 
L 133.008 366.889163 
L 135.984 361.244607 
L 137.472 364.401099 
L 138.96 369.912599 
L 140.448 362.955601 
L 141.936 358.477569 
L 143.424 364.468935 
L 144.912 361.732369 
L 146.4 367.307791 
L 147.888 365.597296 
L 149.376 367.215238 
L 150.864 362.980451 
L 152.352 361.646692 
L 153.84 367.399634 
L 155.328 359.410136 
L 156.816 365.337247 
L 158.304 360.112674 
L 159.792 364.170766 
L 161.28 366.820646 
L 162.768 364.83064 
L 164.256 362.502864 
L 165.744 364.933165 
L 167.232 365.355535 
L 168.72 364.892962 
L 170.208 366.712327 
L 171.696 370.314948 
L 173.184 366.38914 
L 174.672 364.64097 
L 176.16 364.173263 
L 177.648 365.347912 
L 179.136 361.559873 
L 180.624 358.886014 
L 182.112 367.69339 
L 183.6 371.454787 
L 185.088 362.794388 
L 186.576 363.313883 
L 188.064 368.258982 
L 189.552 364.101272 
L 191.04 360.960269 
L 192.528 368.815634 
L 194.016 366.158315 
L 195.504 366.654457 
L 196.992 365.350514 
L 198.48 366.948226 
L 199.968 360.491999 
L 201.456 368.292613 
L 202.944 367.151448 
L 204.432 370.811412 
L 205.92 364.848522 
L 207.408 368.9737 
L 208.896 371.075646 
L 210.384 370.762539 
L 211.872 369.645576 
L 213.36 361.448128 
L 214.848 363.499424 
L 216.336 358.595337 
L 217.824 369.512041 
L 219.312 370.220613 
L 220.8 364.832419 
L 222.288 366.322042 
L 223.776 366.431805 
L 225.264 363.342828 
L 226.752 361.305698 
L 228.24 367.589645 
L 229.728 364.823714 
L 231.216 366.012347 
L 232.704 363.526502 
L 234.192 365.74788 
L 235.68 369.12664 
L 237.168 370.111363 
L 238.656 368.185643 
L 240.144 365.259435 
L 241.632 358.232175 
L 243.12 366.132723 
L 244.608 364.336603 
L 246.096 362.091931 
L 247.584 361.874618 
L 249.072 361.908961 
L 250.56 359.595611 
L 252.048 367.171403 
L 253.536 363.778862 
L 255.024 367.7882 
L 256.512 366.756206 
L 258 365.010649 
L 259.488 366.632636 
L 260.976 365.228391 
L 262.464 364.482531 
L 263.952 365.678793 
L 265.44 363.810346 
L 266.928 365.776202 
L 268.416 363.847368 
L 269.904 368.965468 
L 271.392 364.449846 
L 272.88 365.253178 
L 274.368 362.705958 
L 275.856 363.390907 
L 277.344 366.31247 
L 278.832 368.624712 
L 280.32 363.020301 
L 281.808 367.069211 
L 283.296 365.604043 
L 284.784 362.959752 
L 286.272 367.88025 
L 287.76 363.395085 
L 289.248 371.658458 
L 290.736 363.02684 
L 292.224 367.502293 
L 293.712 363.644715 
L 295.2 365.098949 
L 296.688 367.8565 
L 298.176 366.539206 
L 299.664 361.932685 
L 301.152 365.888538 
L 302.64 368.756659 
L 304.128 363.976349 
L 305.616 365.964731 
L 307.104 366.010576 
L 308.592 357.35128 
L 310.08 365.777917 
L 311.568 366.239368 
L 313.056 361.571907 
L 314.544 361.478204 
L 316.032 362.592881 
L 317.52 365.409833 
L 319.008 363.316919 
L 320.496 370.213046 
L 321.984 365.121278 
L 323.472 370.023262 
L 324.96 360.380902 
L 326.448 367.629683 
L 327.936 360.596644 
L 329.424 365.051905 
L 330.912 362.834174 
L 332.4 359.758105 
L 333.888 370.110866 
L 335.376 367.632142 
L 336.864 373.332315 
L 338.352 371.526405 
L 339.84 373.04844 
L 341.328 361.658878 
L 342.816 365.572167 
L 344.304 360.095971 
L 345.792 369.508572 
L 347.28 364.684362 
L 348.768 364.911368 
L 350.256 364.76018 
L 353.232 366.6994 
L 354.72 365.815579 
L 356.208 367.60022 
L 357.696 366.661532 
L 359.184 363.50886 
L 360.672 369.337637 
L 362.16 367.944683 
L 363.648 371.488519 
L 365.136 371.418718 
L 366.624 371.833294 
L 368.112 366.754994 
L 369.6 365.123109 
L 371.088 368.952608 
L 372.576 366.643292 
L 374.064 364.916053 
L 375.552 371.876584 
L 377.04 370.326622 
L 378.528 370.110644 
L 380.016 367.20698 
L 382.992 365.994982 
L 384.48 367.579262 
L 385.968 372.676413 
L 387.456 368.01439 
L 388.944 367.401545 
L 390.432 366.527021 
L 391.92 374.110611 
L 393.408 366.989667 
L 394.896 364.820285 
L 396.384 365.856294 
L 397.872 361.892819 
L 399.36 365.922528 
L 400.848 366.004948 
L 402.336 367.562617 
L 403.824 370.786594 
L 405.312 371.334522 
L 406.8 371.043331 
L 408.288 367.998915 
L 409.776 370.001804 
L 411.264 363.612873 
L 412.752 367.286511 
L 414.24 366.168399 
L 415.728 366.657297 
L 417.216 364.233991 
L 418.704 363.388317 
L 420.192 364.669383 
L 421.68 363.572387 
L 423.168 370.174569 
L 424.656 362.966598 
L 426.144 367.994305 
L 427.632 360.605989 
L 429.12 368.668664 
L 430.608 364.948309 
L 432.096 363.743913 
L 433.584 365.363431 
L 435.072 364.399259 
L 436.56 363.818464 
L 438.048 365.138049 
L 439.536 368.723581 
L 441.024 368.559733 
L 442.512 370.468235 
L 444 367.940047 
L 445.488 369.1724 
L 446.976 368.668757 
L 448.464 369.218114 
L 449.952 368.920681 
L 451.44 368.161858 
L 452.928 370.311591 
L 454.416 365.869714 
L 455.904 362.20256 
L 457.392 365.853891 
L 458.88 368.353955 
L 460.368 366.217595 
L 461.856 369.746556 
L 463.344 365.815914 
L 464.832 363.35668 
L 466.32 363.343874 
L 467.808 365.695704 
L 469.296 364.834468 
L 470.784 361.365544 
L 472.272 365.519023 
L 473.76 363.541504 
L 475.248 366.296587 
L 476.736 371.021655 
L 478.224 370.432051 
L 479.712 365.981945 
L 481.2 367.718427 
L 482.688 362.089852 
L 484.176 363.35855 
L 485.664 366.345169 
L 487.152 370.547353 
L 488.64 363.345223 
L 490.128 367.265144 
L 491.616 369.039124 
L 493.104 368.964258 
L 494.592 368.358702 
L 496.08 368.897169 
L 497.568 365.569053 
L 499.056 368.465126 
L 500.544 368.629686 
L 502.032 361.183163 
L 503.52 364.052797 
L 505.008 367.222417 
L 506.496 366.110445 
L 507.984 367.193183 
L 509.472 366.550166 
L 510.96 373.358462 
L 512.448 365.740357 
L 513.936 365.980298 
L 515.424 364.944251 
L 516.912 368.7825 
L 516.912 368.7825 
" style="fill:none;stroke:#008000;stroke-dasharray:3.000000,5.000000,1.000000,5.000000;stroke-dashoffset:0.0;"/>
   </g>
   <g id="line2d_3">
    <path clip-path="url(#pff365fc862)" d="M 72 290.983986 
L 73.488 293.466717 
L 74.976 300.233793 
L 76.464 300.916346 
L 77.952 303.841309 
L 79.44 298.302474 
L 80.928 298.719425 
L 82.416 291.727321 
L 83.904 309.853894 
L 85.392 307.037058 
L 86.88 294.341072 
L 88.368 297.974609 
L 89.856 296.026209 
L 91.344 300.683421 
L 92.832 304.581111 
L 94.32 289.928458 
L 95.808 291.959372 
L 97.296 305.275378 
L 98.784 300.893528 
L 100.272 303.345609 
L 101.76 305.082393 
L 103.248 287.737111 
L 104.736 303.945101 
L 106.224 291.144138 
L 107.712 295.696132 
L 109.2 288.564248 
L 110.688 299.122939 
L 112.176 298.077123 
L 113.664 300.172325 
L 115.152 300.906331 
L 116.64 292.522232 
L 118.128 289.448021 
L 119.616 304.715043 
L 121.104 290.746929 
L 122.592 294.190272 
L 124.08 294.889998 
L 125.568 301.077409 
L 127.056 303.590984 
L 128.544 298.874128 
L 130.032 298.54475 
L 131.52 307.618789 
L 133.008 303.292181 
L 134.496 296.539921 
L 135.984 301.343475 
L 137.472 301.260186 
L 138.96 293.427071 
L 140.448 304.569468 
L 141.936 290.662159 
L 143.424 293.657639 
L 144.912 298.431215 
L 146.4 293.407083 
L 147.888 298.350871 
L 149.376 297.012447 
L 150.864 282.312543 
L 152.352 297.383324 
L 153.84 277.353433 
L 155.328 295.781525 
L 156.816 304.196619 
L 158.304 302.594526 
L 159.792 295.604347 
L 161.28 295.560922 
L 162.768 308.984912 
L 164.256 286.153008 
L 165.744 298.376147 
L 167.232 298.070513 
L 168.72 290.810078 
L 170.208 301.125113 
L 171.696 295.496508 
L 173.184 302.620268 
L 174.672 289.64895 
L 176.16 303.682609 
L 177.648 287.664056 
L 179.136 301.012159 
L 180.624 299.839874 
L 182.112 302.78597 
L 183.6 286.533821 
L 185.088 298.475116 
L 186.576 298.993957 
L 188.064 296.610906 
L 189.552 301.155688 
L 191.04 305.009395 
L 192.528 304.502254 
L 194.016 291.513877 
L 195.504 294.633479 
L 196.992 287.99323 
L 198.48 311.192702 
L 199.968 303.843361 
L 201.456 306.128123 
L 202.944 281.515176 
L 204.432 286.956012 
L 205.92 304.80447 
L 207.408 302.866556 
L 208.896 295.202754 
L 210.384 295.500501 
L 211.872 291.080184 
L 213.36 294.657344 
L 214.848 290.95024 
L 217.824 295.680407 
L 219.312 302.925243 
L 220.8 303.625565 
L 222.288 292.01063 
L 223.776 291.102147 
L 225.264 290.92866 
L 226.752 308.038558 
L 228.24 294.890227 
L 229.728 310.681438 
L 231.216 285.715525 
L 232.704 302.805658 
L 234.192 293.266776 
L 235.68 301.589264 
L 237.168 286.081661 
L 238.656 289.345237 
L 240.144 294.767445 
L 241.632 298.195857 
L 243.12 298.557453 
L 244.608 293.936165 
L 246.096 288.616037 
L 247.584 299.488582 
L 249.072 311.309087 
L 250.56 311.424421 
L 252.048 295.996597 
L 253.536 295.734994 
L 255.024 289.02844 
L 256.512 306.415762 
L 258 305.755943 
L 259.488 297.32794 
L 260.976 298.197657 
L 262.464 307.217949 
L 263.952 288.921399 
L 265.44 305.583062 
L 266.928 305.391286 
L 268.416 296.325432 
L 269.904 293.128868 
L 271.392 293.88129 
L 272.88 292.859846 
L 275.856 310.883909 
L 277.344 294.745066 
L 278.832 294.632376 
L 280.32 293.155827 
L 281.808 287.375845 
L 283.296 308.033333 
L 284.784 301.354104 
L 286.272 302.824902 
L 289.248 283.060006 
L 290.736 301.789288 
L 292.224 304.063019 
L 293.712 296.491221 
L 295.2 297.365563 
L 296.688 299.549324 
L 298.176 310.887482 
L 299.664 297.235571 
L 301.152 308.738022 
L 302.64 297.114701 
L 304.128 296.480611 
L 305.616 298.201669 
L 307.104 291.664688 
L 308.592 304.743056 
L 310.08 295.331843 
L 311.568 288.03212 
L 313.056 294.522813 
L 314.544 295.908292 
L 316.032 307.425679 
L 317.52 290.391511 
L 319.008 300.539209 
L 320.496 287.35777 
L 321.984 300.284674 
L 323.472 295.570082 
L 324.96 302.203418 
L 326.448 296.049805 
L 327.936 294.484316 
L 329.424 298.231295 
L 330.912 296.458498 
L 332.4 293.972711 
L 333.888 295.605358 
L 335.376 304.876274 
L 336.864 286.402725 
L 338.352 303.782139 
L 339.84 289.32084 
L 341.328 289.39469 
L 342.816 300.068793 
L 344.304 305.551133 
L 345.792 300.725028 
L 348.768 307.529464 
L 350.256 295.667596 
L 353.232 290.326136 
L 354.72 306.267365 
L 356.208 282.66538 
L 357.696 290.996836 
L 359.184 311.940996 
L 360.672 291.908827 
L 362.16 285.279253 
L 363.648 293.645561 
L 365.136 294.182306 
L 366.624 299.507762 
L 368.112 303.512398 
L 369.6 308.368347 
L 371.088 287.1928 
L 374.064 315.220139 
L 375.552 281.602328 
L 377.04 302.877602 
L 378.528 290.77486 
L 380.016 299.260348 
L 381.504 289.498062 
L 382.992 286.614554 
L 384.48 300.709762 
L 385.968 289.420995 
L 387.456 300.566474 
L 388.944 305.788855 
L 390.432 307.012051 
L 391.92 292.725357 
L 393.408 299.500701 
L 394.896 284.116675 
L 396.384 306.317274 
L 397.872 299.817517 
L 399.36 298.595616 
L 400.848 305.460524 
L 402.336 311.441543 
L 403.824 294.579422 
L 405.312 300.789894 
L 406.8 299.486717 
L 409.776 288.277108 
L 411.264 303.001911 
L 412.752 302.111505 
L 414.24 288.746673 
L 415.728 307.205871 
L 417.216 295.742201 
L 418.704 303.438435 
L 420.192 306.442809 
L 421.68 298.830685 
L 423.168 290.271639 
L 424.656 300.511674 
L 426.144 288.525887 
L 427.632 301.239515 
L 429.12 292.865032 
L 430.608 311.151275 
L 432.096 281.058135 
L 433.584 301.200665 
L 435.072 300.155749 
L 436.56 304.774688 
L 438.048 307.169151 
L 439.536 299.915651 
L 441.024 283.401611 
L 442.512 300.365941 
L 444 292.971569 
L 445.488 293.58088 
L 446.976 298.488235 
L 448.464 302.083006 
L 449.952 303.212951 
L 451.44 299.197886 
L 452.928 296.710233 
L 454.416 292.825454 
L 455.904 299.013184 
L 457.392 299.154237 
L 458.88 306.667357 
L 460.368 301.146757 
L 461.856 305.942916 
L 463.344 305.95215 
L 464.832 297.124856 
L 466.32 309.924862 
L 467.808 298.644264 
L 469.296 300.525404 
L 470.784 306.648536 
L 472.272 298.917713 
L 473.76 307.398656 
L 475.248 305.380853 
L 476.736 285.149865 
L 478.224 293.573069 
L 479.712 313.526023 
L 481.2 296.263653 
L 482.688 302.439044 
L 484.176 291.590314 
L 485.664 299.725871 
L 487.152 299.234663 
L 488.64 292.073657 
L 490.128 305.67028 
L 491.616 304.266476 
L 493.104 291.470879 
L 494.592 295.94901 
L 496.08 308.391279 
L 497.568 290.333667 
L 499.056 301.75465 
L 500.544 296.64417 
L 502.032 296.009797 
L 503.52 293.983427 
L 505.008 290.555759 
L 506.496 307.198227 
L 507.984 299.205025 
L 509.472 301.414762 
L 510.96 298.615426 
L 512.448 309.795515 
L 513.936 296.184694 
L 515.424 285.814405 
L 516.912 303.669084 
L 516.912 303.669084 
" style="fill:none;stroke:#008000;stroke-dasharray:3.000000,5.000000,1.000000,5.000000;stroke-dashoffset:0.0;"/>
   </g>
   <g id="line2d_4">
    <path clip-path="url(#pff365fc862)" d="M 72 144.576 
L 73.488 161.7792 
L 74.976 202.6368 
L 76.464 211.8528 
L 77.952 195.5712 
L 79.44 224.448 
L 80.928 182.0544 
L 82.416 163.3152 
L 83.904 264.0768 
L 85.392 209.3952 
L 86.88 164.2368 
L 88.368 148.5696 
L 89.856 160.8576 
L 91.344 217.3824 
L 92.832 215.8464 
L 94.32 179.2896 
L 95.808 184.512 
L 97.296 206.6304 
L 98.784 197.1072 
L 100.272 177.4464 
L 101.76 253.9392 
L 103.248 187.8912 
L 104.736 252.4032 
L 106.224 152.8704 
L 107.712 128.6016 
L 109.2 149.184 
L 110.688 214.9248 
L 112.176 183.5904 
L 113.664 219.2256 
L 115.152 193.728 
L 116.64 199.5648 
L 118.128 185.1264 
L 119.616 150.72 
L 121.104 163.6224 
L 122.592 207.552 
L 124.08 146.112 
L 125.568 234.5856 
L 128.544 177.1392 
L 130.032 200.4864 
L 131.52 249.9456 
L 133.008 152.5632 
L 135.984 233.664 
L 137.472 247.7952 
L 138.96 120 
L 140.448 261.0048 
L 141.936 204.7872 
L 143.424 195.8784 
L 144.912 198.6432 
L 146.4 176.5248 
L 147.888 175.6032 
L 149.376 174.0672 
L 150.864 135.36 
L 152.352 199.2576 
L 153.84 78.8352 
L 155.328 187.8912 
L 156.816 227.52 
L 158.304 203.2512 
L 159.792 207.2448 
L 161.28 170.688 
L 162.768 247.488 
L 164.256 178.0608 
L 165.744 183.2832 
L 167.232 171.6096 
L 168.72 153.792 
L 170.208 170.3808 
L 171.696 140.2752 
L 173.184 175.6032 
L 174.672 173.1456 
L 176.16 248.7168 
L 177.648 177.1392 
L 179.136 231.5136 
L 180.624 257.0112 
L 182.112 179.2896 
L 183.6 155.9424 
L 185.088 181.44 
L 186.576 183.8976 
L 188.064 177.1392 
L 189.552 184.512 
L 191.04 255.168 
L 192.528 196.1856 
L 194.016 154.0992 
L 195.504 161.1648 
L 196.992 128.6016 
L 198.48 205.7088 
L 199.968 200.7936 
L 201.456 229.6704 
L 202.944 169.152 
L 204.432 175.9104 
L 205.92 228.4416 
L 207.408 185.1264 
L 208.896 194.3424 
L 210.384 106.7904 
L 211.872 178.6752 
L 213.36 184.8192 
L 214.848 185.1264 
L 216.336 197.4144 
L 217.824 173.1456 
L 219.312 145.1904 
L 220.8 199.2576 
L 222.288 178.368 
L 223.776 136.2816 
L 225.264 202.944 
L 226.752 249.024 
L 228.24 174.3744 
L 229.728 215.8464 
L 231.216 187.584 
L 232.704 191.2704 
L 234.192 185.4336 
L 235.68 127.9872 
L 237.168 184.2048 
L 238.656 130.4448 
L 241.632 233.0496 
L 243.12 182.976 
L 244.608 197.4144 
L 246.096 126.144 
L 247.584 245.6448 
L 249.072 264.384 
L 250.56 253.0176 
L 252.048 184.512 
L 253.536 190.0416 
L 255.024 106.4832 
L 256.512 207.2448 
L 258 249.6384 
L 259.488 200.1792 
L 260.976 229.9776 
L 262.464 252.7104 
L 263.952 164.544 
L 265.44 250.2528 
L 266.928 192.4992 
L 268.416 182.0544 
L 269.904 186.6624 
L 271.392 180.8256 
L 272.88 207.8592 
L 274.368 205.4016 
L 275.856 277.5936 
L 277.344 132.9024 
L 278.832 186.048 
L 280.32 196.1856 
L 281.808 166.6944 
L 283.296 237.0432 
L 284.784 199.872 
L 286.272 184.512 
L 287.76 175.296 
L 289.248 136.5888 
L 290.736 262.5408 
L 292.224 183.8976 
L 293.712 204.48 
L 295.2 218.304 
L 296.688 183.2832 
L 298.176 246.2592 
L 299.664 184.2048 
L 301.152 250.56 
L 302.64 193.728 
L 304.128 243.4944 
L 305.616 182.976 
L 307.104 198.0288 
L 308.592 252.7104 
L 310.08 162.7008 
L 311.568 173.1456 
L 313.056 198.336 
L 314.544 198.9504 
L 316.032 229.056 
L 317.52 176.5248 
L 319.008 188.1984 
L 320.496 115.392 
L 321.984 216.1536 
L 323.472 165.4656 
L 324.96 251.7888 
L 326.448 186.6624 
L 327.936 172.8384 
L 329.424 207.8592 
L 330.912 163.9296 
L 332.4 193.1136 
L 333.888 101.568 
L 335.376 143.3472 
L 336.864 79.7568 
L 338.352 207.552 
L 339.84 138.432 
L 341.328 198.0288 
L 342.816 225.3696 
L 344.304 267.072 
L 345.792 197.1072 
L 347.28 203.2512 
L 348.768 198.0288 
L 350.256 177.1392 
L 351.744 153.4848 
L 354.72 210.9312 
L 356.208 174.9888 
L 357.696 162.7008 
L 359.184 262.5408 
L 360.672 186.3552 
L 362.16 149.184 
L 363.648 132.288 
L 365.136 175.6032 
L 366.624 192.192 
L 368.112 183.8976 
L 369.6 227.2128 
L 371.088 115.0848 
L 372.576 170.9952 
L 374.064 266.2272 
L 375.552 123.3792 
L 377.04 189.4272 
L 378.528 143.04 
L 380.016 216.1536 
L 381.504 150.72 
L 382.992 159.936 
L 384.48 184.8192 
L 385.968 158.4 
L 387.456 223.5264 
L 388.944 264.9984 
L 390.432 205.7088 
L 391.92 136.2816 
L 393.408 197.1072 
L 394.896 112.32 
L 396.384 259.776 
L 397.872 222.6048 
L 399.36 175.6032 
L 400.848 205.7088 
L 402.336 269.6064 
L 403.824 155.6352 
L 405.312 133.2096 
L 406.8 187.584 
L 408.288 169.7664 
L 409.776 189.7344 
L 411.264 259.776 
L 412.752 188.8128 
L 414.24 190.9632 
L 415.728 236.736 
L 417.216 209.7024 
L 418.704 249.024 
L 420.192 250.8672 
L 421.68 182.3616 
L 423.168 119.3856 
L 424.656 168.8448 
L 426.144 138.7392 
L 427.632 245.952 
L 429.12 155.9424 
L 430.608 262.5408 
L 432.096 187.2768 
L 433.584 244.416 
L 435.072 211.8528 
L 436.56 268.0704 
L 438.048 251.4816 
L 439.536 181.7472 
L 441.024 124.9152 
L 442.512 143.6544 
L 444 177.4464 
L 445.488 90.816 
L 446.976 201.1008 
L 448.464 174.9888 
L 449.952 186.6624 
L 451.44 114.4704 
L 452.928 203.8656 
L 454.416 171.3024 
L 455.904 206.016 
L 457.392 201.408 
L 458.88 245.3376 
L 460.368 219.5328 
L 461.856 182.3616 
L 463.344 237.3504 
L 464.832 178.368 
L 466.32 247.7952 
L 467.808 214.6176 
L 469.296 199.872 
L 470.784 198.336 
L 472.272 186.6624 
L 473.76 251.4816 
L 476.736 165.4656 
L 478.224 135.36 
L 479.712 264.384 
L 481.2 177.4464 
L 482.688 252.096 
L 484.176 190.9632 
L 485.664 180.8256 
L 487.152 115.6992 
L 488.64 190.9632 
L 490.128 232.4352 
L 491.616 177.1392 
L 493.104 184.512 
L 494.592 189.4272 
L 496.08 239.1936 
L 497.568 169.7664 
L 499.056 170.0736 
L 500.544 176.5248 
L 502.032 216.768 
L 503.52 195.5712 
L 505.008 181.1328 
L 506.496 248.7168 
L 507.984 177.1392 
L 509.472 230.592 
L 510.96 192.4992 
L 512.448 264.9984 
L 513.936 198.6432 
L 515.424 186.048 
L 516.912 211.8528 
L 516.912 211.8528 
" style="fill:none;stroke:#ff0000;stroke-linecap:square;"/>
   </g>
   <g id="patch_3">
    <path d="M 72 43.2 
L 518.4 43.2 
" style="fill:none;stroke:#000000;stroke-linecap:square;stroke-linejoin:miter;"/>
   </g>
   <g id="patch_4">
    <path d="M 518.4 388.8 
L 518.4 43.2 
" style="fill:none;stroke:#000000;stroke-linecap:square;stroke-linejoin:miter;"/>
   </g>
   <g id="patch_5">
    <path d="M 72 388.8 
L 518.4 388.8 
" style="fill:none;stroke:#000000;stroke-linecap:square;stroke-linejoin:miter;"/>
   </g>
   <g id="patch_6">
    <path d="M 72 388.8 
L 72 43.2 
" style="fill:none;stroke:#000000;stroke-linecap:square;stroke-linejoin:miter;"/>
   </g>
   <g id="matplotlib.axis_1">
    <g id="xtick_1">
     <g id="line2d_5">
      <path clip-path="url(#pff365fc862)" d="M 72 388.8 
L 72 43.2 
" style="fill:none;stroke:#000000;stroke-dasharray:1.000000,3.000000;stroke-dashoffset:0.0;stroke-width:0.5;"/>
     </g>
     <g id="line2d_6">
      <defs>
       <path d="M 0 0 
L 0 -4 
" id="mda35d091f3" style="stroke:#000000;stroke-width:0.5;"/>
      </defs>
      <g>
       <use style="stroke:#000000;stroke-width:0.5;" x="72.0" xlink:href="#mda35d091f3" y="388.8"/>
      </g>
     </g>
     <g id="line2d_7">
      <defs>
       <path d="M 0 0 
L 0 4 
" id="m4fda298076" style="stroke:#000000;stroke-width:0.5;"/>
      </defs>
      <g>
       <use style="stroke:#000000;stroke-width:0.5;" x="72.0" xlink:href="#m4fda298076" y="43.2"/>
      </g>
     </g>
     <g id="text_1">
      <!-- 0 -->
      <defs>
       <path d="M 31.78125 66.40625 
Q 24.171875 66.40625 20.328125 58.90625 
Q 16.5 51.421875 16.5 36.375 
Q 16.5 21.390625 20.328125 13.890625 
Q 24.171875 6.390625 31.78125 6.390625 
Q 39.453125 6.390625 43.28125 13.890625 
Q 47.125 21.390625 47.125 36.375 
Q 47.125 51.421875 43.28125 58.90625 
Q 39.453125 66.40625 31.78125 66.40625 
M 31.78125 74.21875 
Q 44.046875 74.21875 50.515625 64.515625 
Q 56.984375 54.828125 56.984375 36.375 
Q 56.984375 17.96875 50.515625 8.265625 
Q 44.046875 -1.421875 31.78125 -1.421875 
Q 19.53125 -1.421875 13.0625 8.265625 
Q 6.59375 17.96875 6.59375 36.375 
Q 6.59375 54.828125 13.0625 64.515625 
Q 19.53125 74.21875 31.78125 74.21875 
" id="BitstreamVeraSans-Roman-30"/>
      </defs>
      <g transform="translate(68.1825 401.918125)scale(0.12 -0.12)">
       <use xlink:href="#BitstreamVeraSans-Roman-30"/>
      </g>
     </g>
    </g>
    <g id="xtick_2">
     <g id="line2d_8">
      <path clip-path="url(#pff365fc862)" d="M 146.4 388.8 
L 146.4 43.2 
" style="fill:none;stroke:#000000;stroke-dasharray:1.000000,3.000000;stroke-dashoffset:0.0;stroke-width:0.5;"/>
     </g>
     <g id="line2d_9">
      <g>
       <use style="stroke:#000000;stroke-width:0.5;" x="146.4" xlink:href="#mda35d091f3" y="388.8"/>
      </g>
     </g>
     <g id="line2d_10">
      <g>
       <use style="stroke:#000000;stroke-width:0.5;" x="146.4" xlink:href="#m4fda298076" y="43.2"/>
      </g>
     </g>
     <g id="text_2">
      <!-- 50 -->
      <defs>
       <path d="M 10.796875 72.90625 
L 49.515625 72.90625 
L 49.515625 64.59375 
L 19.828125 64.59375 
L 19.828125 46.734375 
Q 21.96875 47.46875 24.109375 47.828125 
Q 26.265625 48.1875 28.421875 48.1875 
Q 40.625 48.1875 47.75 41.5 
Q 54.890625 34.8125 54.890625 23.390625 
Q 54.890625 11.625 47.5625 5.09375 
Q 40.234375 -1.421875 26.90625 -1.421875 
Q 22.3125 -1.421875 17.546875 -0.640625 
Q 12.796875 0.140625 7.71875 1.703125 
L 7.71875 11.625 
Q 12.109375 9.234375 16.796875 8.0625 
Q 21.484375 6.890625 26.703125 6.890625 
Q 35.15625 6.890625 40.078125 11.328125 
Q 45.015625 15.765625 45.015625 23.390625 
Q 45.015625 31 40.078125 35.4375 
Q 35.15625 39.890625 26.703125 39.890625 
Q 22.75 39.890625 18.8125 39.015625 
Q 14.890625 38.140625 10.796875 36.28125 
z
" id="BitstreamVeraSans-Roman-35"/>
      </defs>
      <g transform="translate(138.765 401.918125)scale(0.12 -0.12)">
       <use xlink:href="#BitstreamVeraSans-Roman-35"/>
       <use x="63.623046875" xlink:href="#BitstreamVeraSans-Roman-30"/>
      </g>
     </g>
    </g>
    <g id="xtick_3">
     <g id="line2d_11">
      <path clip-path="url(#pff365fc862)" d="M 220.8 388.8 
L 220.8 43.2 
" style="fill:none;stroke:#000000;stroke-dasharray:1.000000,3.000000;stroke-dashoffset:0.0;stroke-width:0.5;"/>
     </g>
     <g id="line2d_12">
      <g>
       <use style="stroke:#000000;stroke-width:0.5;" x="220.8" xlink:href="#mda35d091f3" y="388.8"/>
      </g>
     </g>
     <g id="line2d_13">
      <g>
       <use style="stroke:#000000;stroke-width:0.5;" x="220.8" xlink:href="#m4fda298076" y="43.2"/>
      </g>
     </g>
     <g id="text_3">
      <!-- 100 -->
      <defs>
       <path d="M 12.40625 8.296875 
L 28.515625 8.296875 
L 28.515625 63.921875 
L 10.984375 60.40625 
L 10.984375 69.390625 
L 28.421875 72.90625 
L 38.28125 72.90625 
L 38.28125 8.296875 
L 54.390625 8.296875 
L 54.390625 0 
L 12.40625 0 
z
" id="BitstreamVeraSans-Roman-31"/>
      </defs>
      <g transform="translate(209.3475 401.918125)scale(0.12 -0.12)">
       <use xlink:href="#BitstreamVeraSans-Roman-31"/>
       <use x="63.623046875" xlink:href="#BitstreamVeraSans-Roman-30"/>
       <use x="127.24609375" xlink:href="#BitstreamVeraSans-Roman-30"/>
      </g>
     </g>
    </g>
    <g id="xtick_4">
     <g id="line2d_14">
      <path clip-path="url(#pff365fc862)" d="M 295.2 388.8 
L 295.2 43.2 
" style="fill:none;stroke:#000000;stroke-dasharray:1.000000,3.000000;stroke-dashoffset:0.0;stroke-width:0.5;"/>
     </g>
     <g id="line2d_15">
      <g>
       <use style="stroke:#000000;stroke-width:0.5;" x="295.2" xlink:href="#mda35d091f3" y="388.8"/>
      </g>
     </g>
     <g id="line2d_16">
      <g>
       <use style="stroke:#000000;stroke-width:0.5;" x="295.2" xlink:href="#m4fda298076" y="43.2"/>
      </g>
     </g>
     <g id="text_4">
      <!-- 150 -->
      <g transform="translate(283.7475 401.918125)scale(0.12 -0.12)">
       <use xlink:href="#BitstreamVeraSans-Roman-31"/>
       <use x="63.623046875" xlink:href="#BitstreamVeraSans-Roman-35"/>
       <use x="127.24609375" xlink:href="#BitstreamVeraSans-Roman-30"/>
      </g>
     </g>
    </g>
    <g id="xtick_5">
     <g id="line2d_17">
      <path clip-path="url(#pff365fc862)" d="M 369.6 388.8 
L 369.6 43.2 
" style="fill:none;stroke:#000000;stroke-dasharray:1.000000,3.000000;stroke-dashoffset:0.0;stroke-width:0.5;"/>
     </g>
     <g id="line2d_18">
      <g>
       <use style="stroke:#000000;stroke-width:0.5;" x="369.6" xlink:href="#mda35d091f3" y="388.8"/>
      </g>
     </g>
     <g id="line2d_19">
      <g>
       <use style="stroke:#000000;stroke-width:0.5;" x="369.6" xlink:href="#m4fda298076" y="43.2"/>
      </g>
     </g>
     <g id="text_5">
      <!-- 200 -->
      <defs>
       <path d="M 19.1875 8.296875 
L 53.609375 8.296875 
L 53.609375 0 
L 7.328125 0 
L 7.328125 8.296875 
Q 12.9375 14.109375 22.625 23.890625 
Q 32.328125 33.6875 34.8125 36.53125 
Q 39.546875 41.84375 41.421875 45.53125 
Q 43.3125 49.21875 43.3125 52.78125 
Q 43.3125 58.59375 39.234375 62.25 
Q 35.15625 65.921875 28.609375 65.921875 
Q 23.96875 65.921875 18.8125 64.3125 
Q 13.671875 62.703125 7.8125 59.421875 
L 7.8125 69.390625 
Q 13.765625 71.78125 18.9375 73 
Q 24.125 74.21875 28.421875 74.21875 
Q 39.75 74.21875 46.484375 68.546875 
Q 53.21875 62.890625 53.21875 53.421875 
Q 53.21875 48.921875 51.53125 44.890625 
Q 49.859375 40.875 45.40625 35.40625 
Q 44.1875 33.984375 37.640625 27.21875 
Q 31.109375 20.453125 19.1875 8.296875 
" id="BitstreamVeraSans-Roman-32"/>
      </defs>
      <g transform="translate(358.1475 401.918125)scale(0.12 -0.12)">
       <use xlink:href="#BitstreamVeraSans-Roman-32"/>
       <use x="63.623046875" xlink:href="#BitstreamVeraSans-Roman-30"/>
       <use x="127.24609375" xlink:href="#BitstreamVeraSans-Roman-30"/>
      </g>
     </g>
    </g>
    <g id="xtick_6">
     <g id="line2d_20">
      <path clip-path="url(#pff365fc862)" d="M 444 388.8 
L 444 43.2 
" style="fill:none;stroke:#000000;stroke-dasharray:1.000000,3.000000;stroke-dashoffset:0.0;stroke-width:0.5;"/>
     </g>
     <g id="line2d_21">
      <g>
       <use style="stroke:#000000;stroke-width:0.5;" x="444.0" xlink:href="#mda35d091f3" y="388.8"/>
      </g>
     </g>
     <g id="line2d_22">
      <g>
       <use style="stroke:#000000;stroke-width:0.5;" x="444.0" xlink:href="#m4fda298076" y="43.2"/>
      </g>
     </g>
     <g id="text_6">
      <!-- 250 -->
      <g transform="translate(432.5475 401.918125)scale(0.12 -0.12)">
       <use xlink:href="#BitstreamVeraSans-Roman-32"/>
       <use x="63.623046875" xlink:href="#BitstreamVeraSans-Roman-35"/>
       <use x="127.24609375" xlink:href="#BitstreamVeraSans-Roman-30"/>
      </g>
     </g>
    </g>
    <g id="xtick_7">
     <g id="line2d_23">
      <path clip-path="url(#pff365fc862)" d="M 518.4 388.8 
L 518.4 43.2 
" style="fill:none;stroke:#000000;stroke-dasharray:1.000000,3.000000;stroke-dashoffset:0.0;stroke-width:0.5;"/>
     </g>
     <g id="line2d_24">
      <g>
       <use style="stroke:#000000;stroke-width:0.5;" x="518.4" xlink:href="#mda35d091f3" y="388.8"/>
      </g>
     </g>
     <g id="line2d_25">
      <g>
       <use style="stroke:#000000;stroke-width:0.5;" x="518.4" xlink:href="#m4fda298076" y="43.2"/>
      </g>
     </g>
     <g id="text_7">
      <!-- 300 -->
      <defs>
       <path d="M 40.578125 39.3125 
Q 47.65625 37.796875 51.625 33 
Q 55.609375 28.21875 55.609375 21.1875 
Q 55.609375 10.40625 48.1875 4.484375 
Q 40.765625 -1.421875 27.09375 -1.421875 
Q 22.515625 -1.421875 17.65625 -0.515625 
Q 12.796875 0.390625 7.625 2.203125 
L 7.625 11.71875 
Q 11.71875 9.328125 16.59375 8.109375 
Q 21.484375 6.890625 26.8125 6.890625 
Q 36.078125 6.890625 40.9375 10.546875 
Q 45.796875 14.203125 45.796875 21.1875 
Q 45.796875 27.640625 41.28125 31.265625 
Q 36.765625 34.90625 28.71875 34.90625 
L 20.21875 34.90625 
L 20.21875 43.015625 
L 29.109375 43.015625 
Q 36.375 43.015625 40.234375 45.921875 
Q 44.09375 48.828125 44.09375 54.296875 
Q 44.09375 59.90625 40.109375 62.90625 
Q 36.140625 65.921875 28.71875 65.921875 
Q 24.65625 65.921875 20.015625 65.03125 
Q 15.375 64.15625 9.8125 62.3125 
L 9.8125 71.09375 
Q 15.4375 72.65625 20.34375 73.4375 
Q 25.25 74.21875 29.59375 74.21875 
Q 40.828125 74.21875 47.359375 69.109375 
Q 53.90625 64.015625 53.90625 55.328125 
Q 53.90625 49.265625 50.4375 45.09375 
Q 46.96875 40.921875 40.578125 39.3125 
" id="BitstreamVeraSans-Roman-33"/>
      </defs>
      <g transform="translate(506.9475 401.918125)scale(0.12 -0.12)">
       <use xlink:href="#BitstreamVeraSans-Roman-33"/>
       <use x="63.623046875" xlink:href="#BitstreamVeraSans-Roman-30"/>
       <use x="127.24609375" xlink:href="#BitstreamVeraSans-Roman-30"/>
      </g>
     </g>
    </g>
    <g id="text_8">
     <!-- Generations -->
     <defs>
      <path d="M 54.890625 33.015625 
L 54.890625 0 
L 45.90625 0 
L 45.90625 32.71875 
Q 45.90625 40.484375 42.875 44.328125 
Q 39.84375 48.1875 33.796875 48.1875 
Q 26.515625 48.1875 22.3125 43.546875 
Q 18.109375 38.921875 18.109375 30.90625 
L 18.109375 0 
L 9.078125 0 
L 9.078125 54.6875 
L 18.109375 54.6875 
L 18.109375 46.1875 
Q 21.34375 51.125 25.703125 53.5625 
Q 30.078125 56 35.796875 56 
Q 45.21875 56 50.046875 50.171875 
Q 54.890625 44.34375 54.890625 33.015625 
" id="BitstreamVeraSans-Roman-6e"/>
      <path d="M 41.109375 46.296875 
Q 39.59375 47.171875 37.8125 47.578125 
Q 36.03125 48 33.890625 48 
Q 26.265625 48 22.1875 43.046875 
Q 18.109375 38.09375 18.109375 28.8125 
L 18.109375 0 
L 9.078125 0 
L 9.078125 54.6875 
L 18.109375 54.6875 
L 18.109375 46.1875 
Q 20.953125 51.171875 25.484375 53.578125 
Q 30.03125 56 36.53125 56 
Q 37.453125 56 38.578125 55.875 
Q 39.703125 55.765625 41.0625 55.515625 
z
" id="BitstreamVeraSans-Roman-72"/>
      <path d="M 30.609375 48.390625 
Q 23.390625 48.390625 19.1875 42.75 
Q 14.984375 37.109375 14.984375 27.296875 
Q 14.984375 17.484375 19.15625 11.84375 
Q 23.34375 6.203125 30.609375 6.203125 
Q 37.796875 6.203125 41.984375 11.859375 
Q 46.1875 17.53125 46.1875 27.296875 
Q 46.1875 37.015625 41.984375 42.703125 
Q 37.796875 48.390625 30.609375 48.390625 
M 30.609375 56 
Q 42.328125 56 49.015625 48.375 
Q 55.71875 40.765625 55.71875 27.296875 
Q 55.71875 13.875 49.015625 6.21875 
Q 42.328125 -1.421875 30.609375 -1.421875 
Q 18.84375 -1.421875 12.171875 6.21875 
Q 5.515625 13.875 5.515625 27.296875 
Q 5.515625 40.765625 12.171875 48.375 
Q 18.84375 56 30.609375 56 
" id="BitstreamVeraSans-Roman-6f"/>
      <path d="M 59.515625 10.40625 
L 59.515625 29.984375 
L 43.40625 29.984375 
L 43.40625 38.09375 
L 69.28125 38.09375 
L 69.28125 6.78125 
Q 63.578125 2.734375 56.6875 0.65625 
Q 49.8125 -1.421875 42 -1.421875 
Q 24.90625 -1.421875 15.25 8.5625 
Q 5.609375 18.5625 5.609375 36.375 
Q 5.609375 54.25 15.25 64.234375 
Q 24.90625 74.21875 42 74.21875 
Q 49.125 74.21875 55.546875 72.453125 
Q 61.96875 70.703125 67.390625 67.28125 
L 67.390625 56.78125 
Q 61.921875 61.421875 55.765625 63.765625 
Q 49.609375 66.109375 42.828125 66.109375 
Q 29.4375 66.109375 22.71875 58.640625 
Q 16.015625 51.171875 16.015625 36.375 
Q 16.015625 21.625 22.71875 14.15625 
Q 29.4375 6.6875 42.828125 6.6875 
Q 48.046875 6.6875 52.140625 7.59375 
Q 56.25 8.5 59.515625 10.40625 
" id="BitstreamVeraSans-Roman-47"/>
      <path d="M 9.421875 54.6875 
L 18.40625 54.6875 
L 18.40625 0 
L 9.421875 0 
z
M 9.421875 75.984375 
L 18.40625 75.984375 
L 18.40625 64.59375 
L 9.421875 64.59375 
z
" id="BitstreamVeraSans-Roman-69"/>
      <path d="M 56.203125 29.59375 
L 56.203125 25.203125 
L 14.890625 25.203125 
Q 15.484375 15.921875 20.484375 11.0625 
Q 25.484375 6.203125 34.421875 6.203125 
Q 39.59375 6.203125 44.453125 7.46875 
Q 49.3125 8.734375 54.109375 11.28125 
L 54.109375 2.78125 
Q 49.265625 0.734375 44.1875 -0.34375 
Q 39.109375 -1.421875 33.890625 -1.421875 
Q 20.796875 -1.421875 13.15625 6.1875 
Q 5.515625 13.8125 5.515625 26.8125 
Q 5.515625 40.234375 12.765625 48.109375 
Q 20.015625 56 32.328125 56 
Q 43.359375 56 49.78125 48.890625 
Q 56.203125 41.796875 56.203125 29.59375 
M 47.21875 32.234375 
Q 47.125 39.59375 43.09375 43.984375 
Q 39.0625 48.390625 32.421875 48.390625 
Q 24.90625 48.390625 20.390625 44.140625 
Q 15.875 39.890625 15.1875 32.171875 
z
" id="BitstreamVeraSans-Roman-65"/>
      <path d="M 18.3125 70.21875 
L 18.3125 54.6875 
L 36.8125 54.6875 
L 36.8125 47.703125 
L 18.3125 47.703125 
L 18.3125 18.015625 
Q 18.3125 11.328125 20.140625 9.421875 
Q 21.96875 7.515625 27.59375 7.515625 
L 36.8125 7.515625 
L 36.8125 0 
L 27.59375 0 
Q 17.1875 0 13.234375 3.875 
Q 9.28125 7.765625 9.28125 18.015625 
L 9.28125 47.703125 
L 2.6875 47.703125 
L 2.6875 54.6875 
L 9.28125 54.6875 
L 9.28125 70.21875 
z
" id="BitstreamVeraSans-Roman-74"/>
      <path d="M 34.28125 27.484375 
Q 23.390625 27.484375 19.1875 25 
Q 14.984375 22.515625 14.984375 16.5 
Q 14.984375 11.71875 18.140625 8.90625 
Q 21.296875 6.109375 26.703125 6.109375 
Q 34.1875 6.109375 38.703125 11.40625 
Q 43.21875 16.703125 43.21875 25.484375 
L 43.21875 27.484375 
z
M 52.203125 31.203125 
L 52.203125 0 
L 43.21875 0 
L 43.21875 8.296875 
Q 40.140625 3.328125 35.546875 0.953125 
Q 30.953125 -1.421875 24.3125 -1.421875 
Q 15.921875 -1.421875 10.953125 3.296875 
Q 6 8.015625 6 15.921875 
Q 6 25.140625 12.171875 29.828125 
Q 18.359375 34.515625 30.609375 34.515625 
L 43.21875 34.515625 
L 43.21875 35.40625 
Q 43.21875 41.609375 39.140625 45 
Q 35.0625 48.390625 27.6875 48.390625 
Q 23 48.390625 18.546875 47.265625 
Q 14.109375 46.140625 10.015625 43.890625 
L 10.015625 52.203125 
Q 14.9375 54.109375 19.578125 55.046875 
Q 24.21875 56 28.609375 56 
Q 40.484375 56 46.34375 49.84375 
Q 52.203125 43.703125 52.203125 31.203125 
" id="BitstreamVeraSans-Roman-61"/>
      <path d="M 44.28125 53.078125 
L 44.28125 44.578125 
Q 40.484375 46.53125 36.375 47.5 
Q 32.28125 48.484375 27.875 48.484375 
Q 21.1875 48.484375 17.84375 46.4375 
Q 14.5 44.390625 14.5 40.28125 
Q 14.5 37.15625 16.890625 35.375 
Q 19.28125 33.59375 26.515625 31.984375 
L 29.59375 31.296875 
Q 39.15625 29.25 43.1875 25.515625 
Q 47.21875 21.78125 47.21875 15.09375 
Q 47.21875 7.46875 41.1875 3.015625 
Q 35.15625 -1.421875 24.609375 -1.421875 
Q 20.21875 -1.421875 15.453125 -0.5625 
Q 10.6875 0.296875 5.421875 2 
L 5.421875 11.28125 
Q 10.40625 8.6875 15.234375 7.390625 
Q 20.0625 6.109375 24.8125 6.109375 
Q 31.15625 6.109375 34.5625 8.28125 
Q 37.984375 10.453125 37.984375 14.40625 
Q 37.984375 18.0625 35.515625 20.015625 
Q 33.0625 21.96875 24.703125 23.78125 
L 21.578125 24.515625 
Q 13.234375 26.265625 9.515625 29.90625 
Q 5.8125 33.546875 5.8125 39.890625 
Q 5.8125 47.609375 11.28125 51.796875 
Q 16.75 56 26.8125 56 
Q 31.78125 56 36.171875 55.265625 
Q 40.578125 54.546875 44.28125 53.078125 
" id="BitstreamVeraSans-Roman-73"/>
     </defs>
     <g transform="translate(258.6028125 418.531875)scale(0.12 -0.12)">
      <use xlink:href="#BitstreamVeraSans-Roman-47"/>
      <use x="77.490234375" xlink:href="#BitstreamVeraSans-Roman-65"/>
      <use x="139.013671875" xlink:href="#BitstreamVeraSans-Roman-6e"/>
      <use x="202.392578125" xlink:href="#BitstreamVeraSans-Roman-65"/>
      <use x="263.916015625" xlink:href="#BitstreamVeraSans-Roman-72"/>
      <use x="305.029296875" xlink:href="#BitstreamVeraSans-Roman-61"/>
      <use x="366.30859375" xlink:href="#BitstreamVeraSans-Roman-74"/>
      <use x="405.517578125" xlink:href="#BitstreamVeraSans-Roman-69"/>
      <use x="433.30078125" xlink:href="#BitstreamVeraSans-Roman-6f"/>
      <use x="494.482421875" xlink:href="#BitstreamVeraSans-Roman-6e"/>
      <use x="557.861328125" xlink:href="#BitstreamVeraSans-Roman-73"/>
     </g>
    </g>
   </g>
   <g id="matplotlib.axis_2">
    <g id="ytick_1">
     <g id="line2d_26">
      <path clip-path="url(#pff365fc862)" d="M 72 388.8 
L 518.4 388.8 
" style="fill:none;stroke:#000000;stroke-dasharray:1.000000,3.000000;stroke-dashoffset:0.0;stroke-width:0.5;"/>
     </g>
     <g id="line2d_27">
      <defs>
       <path d="M 0 0 
L 4 0 
" id="m8900c87929" style="stroke:#000000;stroke-width:0.5;"/>
      </defs>
      <g>
       <use style="stroke:#000000;stroke-width:0.5;" x="72.0" xlink:href="#m8900c87929" y="388.8"/>
      </g>
     </g>
     <g id="line2d_28">
      <defs>
       <path d="M 0 0 
L -4 0 
" id="m117ab254fd" style="stroke:#000000;stroke-width:0.5;"/>
      </defs>
      <g>
       <use style="stroke:#000000;stroke-width:0.5;" x="518.4" xlink:href="#m117ab254fd" y="388.8"/>
      </g>
     </g>
     <g id="text_9">
      <!-- 0 -->
      <g transform="translate(60.365 392.11125)scale(0.12 -0.12)">
       <use xlink:href="#BitstreamVeraSans-Roman-30"/>
      </g>
     </g>
    </g>
    <g id="ytick_2">
     <g id="line2d_29">
      <path clip-path="url(#pff365fc862)" d="M 72 350.4 
L 518.4 350.4 
" style="fill:none;stroke:#000000;stroke-dasharray:1.000000,3.000000;stroke-dashoffset:0.0;stroke-width:0.5;"/>
     </g>
     <g id="line2d_30">
      <g>
       <use style="stroke:#000000;stroke-width:0.5;" x="72.0" xlink:href="#m8900c87929" y="350.4"/>
      </g>
     </g>
     <g id="line2d_31">
      <g>
       <use style="stroke:#000000;stroke-width:0.5;" x="518.4" xlink:href="#m117ab254fd" y="350.4"/>
      </g>
     </g>
     <g id="text_10">
      <!-- 50 -->
      <g transform="translate(52.73 353.71125)scale(0.12 -0.12)">
       <use xlink:href="#BitstreamVeraSans-Roman-35"/>
       <use x="63.623046875" xlink:href="#BitstreamVeraSans-Roman-30"/>
      </g>
     </g>
    </g>
    <g id="ytick_3">
     <g id="line2d_32">
      <path clip-path="url(#pff365fc862)" d="M 72 312 
L 518.4 312 
" style="fill:none;stroke:#000000;stroke-dasharray:1.000000,3.000000;stroke-dashoffset:0.0;stroke-width:0.5;"/>
     </g>
     <g id="line2d_33">
      <g>
       <use style="stroke:#000000;stroke-width:0.5;" x="72.0" xlink:href="#m8900c87929" y="312.0"/>
      </g>
     </g>
     <g id="line2d_34">
      <g>
       <use style="stroke:#000000;stroke-width:0.5;" x="518.4" xlink:href="#m117ab254fd" y="312.0"/>
      </g>
     </g>
     <g id="text_11">
      <!-- 100 -->
      <g transform="translate(45.095 315.31125)scale(0.12 -0.12)">
       <use xlink:href="#BitstreamVeraSans-Roman-31"/>
       <use x="63.623046875" xlink:href="#BitstreamVeraSans-Roman-30"/>
       <use x="127.24609375" xlink:href="#BitstreamVeraSans-Roman-30"/>
      </g>
     </g>
    </g>
    <g id="ytick_4">
     <g id="line2d_35">
      <path clip-path="url(#pff365fc862)" d="M 72 273.6 
L 518.4 273.6 
" style="fill:none;stroke:#000000;stroke-dasharray:1.000000,3.000000;stroke-dashoffset:0.0;stroke-width:0.5;"/>
     </g>
     <g id="line2d_36">
      <g>
       <use style="stroke:#000000;stroke-width:0.5;" x="72.0" xlink:href="#m8900c87929" y="273.6"/>
      </g>
     </g>
     <g id="line2d_37">
      <g>
       <use style="stroke:#000000;stroke-width:0.5;" x="518.4" xlink:href="#m117ab254fd" y="273.6"/>
      </g>
     </g>
     <g id="text_12">
      <!-- 150 -->
      <g transform="translate(45.095 276.91125)scale(0.12 -0.12)">
       <use xlink:href="#BitstreamVeraSans-Roman-31"/>
       <use x="63.623046875" xlink:href="#BitstreamVeraSans-Roman-35"/>
       <use x="127.24609375" xlink:href="#BitstreamVeraSans-Roman-30"/>
      </g>
     </g>
    </g>
    <g id="ytick_5">
     <g id="line2d_38">
      <path clip-path="url(#pff365fc862)" d="M 72 235.2 
L 518.4 235.2 
" style="fill:none;stroke:#000000;stroke-dasharray:1.000000,3.000000;stroke-dashoffset:0.0;stroke-width:0.5;"/>
     </g>
     <g id="line2d_39">
      <g>
       <use style="stroke:#000000;stroke-width:0.5;" x="72.0" xlink:href="#m8900c87929" y="235.2"/>
      </g>
     </g>
     <g id="line2d_40">
      <g>
       <use style="stroke:#000000;stroke-width:0.5;" x="518.4" xlink:href="#m117ab254fd" y="235.2"/>
      </g>
     </g>
     <g id="text_13">
      <!-- 200 -->
      <g transform="translate(45.095 238.51125)scale(0.12 -0.12)">
       <use xlink:href="#BitstreamVeraSans-Roman-32"/>
       <use x="63.623046875" xlink:href="#BitstreamVeraSans-Roman-30"/>
       <use x="127.24609375" xlink:href="#BitstreamVeraSans-Roman-30"/>
      </g>
     </g>
    </g>
    <g id="ytick_6">
     <g id="line2d_41">
      <path clip-path="url(#pff365fc862)" d="M 72 196.8 
L 518.4 196.8 
" style="fill:none;stroke:#000000;stroke-dasharray:1.000000,3.000000;stroke-dashoffset:0.0;stroke-width:0.5;"/>
     </g>
     <g id="line2d_42">
      <g>
       <use style="stroke:#000000;stroke-width:0.5;" x="72.0" xlink:href="#m8900c87929" y="196.8"/>
      </g>
     </g>
     <g id="line2d_43">
      <g>
       <use style="stroke:#000000;stroke-width:0.5;" x="518.4" xlink:href="#m117ab254fd" y="196.8"/>
      </g>
     </g>
     <g id="text_14">
      <!-- 250 -->
      <g transform="translate(45.095 200.11125)scale(0.12 -0.12)">
       <use xlink:href="#BitstreamVeraSans-Roman-32"/>
       <use x="63.623046875" xlink:href="#BitstreamVeraSans-Roman-35"/>
       <use x="127.24609375" xlink:href="#BitstreamVeraSans-Roman-30"/>
      </g>
     </g>
    </g>
    <g id="ytick_7">
     <g id="line2d_44">
      <path clip-path="url(#pff365fc862)" d="M 72 158.4 
L 518.4 158.4 
" style="fill:none;stroke:#000000;stroke-dasharray:1.000000,3.000000;stroke-dashoffset:0.0;stroke-width:0.5;"/>
     </g>
     <g id="line2d_45">
      <g>
       <use style="stroke:#000000;stroke-width:0.5;" x="72.0" xlink:href="#m8900c87929" y="158.4"/>
      </g>
     </g>
     <g id="line2d_46">
      <g>
       <use style="stroke:#000000;stroke-width:0.5;" x="518.4" xlink:href="#m117ab254fd" y="158.4"/>
      </g>
     </g>
     <g id="text_15">
      <!-- 300 -->
      <g transform="translate(45.095 161.71125)scale(0.12 -0.12)">
       <use xlink:href="#BitstreamVeraSans-Roman-33"/>
       <use x="63.623046875" xlink:href="#BitstreamVeraSans-Roman-30"/>
       <use x="127.24609375" xlink:href="#BitstreamVeraSans-Roman-30"/>
      </g>
     </g>
    </g>
    <g id="ytick_8">
     <g id="line2d_47">
      <path clip-path="url(#pff365fc862)" d="M 72 120 
L 518.4 120 
" style="fill:none;stroke:#000000;stroke-dasharray:1.000000,3.000000;stroke-dashoffset:0.0;stroke-width:0.5;"/>
     </g>
     <g id="line2d_48">
      <g>
       <use style="stroke:#000000;stroke-width:0.5;" x="72.0" xlink:href="#m8900c87929" y="120.0"/>
      </g>
     </g>
     <g id="line2d_49">
      <g>
       <use style="stroke:#000000;stroke-width:0.5;" x="518.4" xlink:href="#m117ab254fd" y="120.0"/>
      </g>
     </g>
     <g id="text_16">
      <!-- 350 -->
      <g transform="translate(45.095 123.31125)scale(0.12 -0.12)">
       <use xlink:href="#BitstreamVeraSans-Roman-33"/>
       <use x="63.623046875" xlink:href="#BitstreamVeraSans-Roman-35"/>
       <use x="127.24609375" xlink:href="#BitstreamVeraSans-Roman-30"/>
      </g>
     </g>
    </g>
    <g id="ytick_9">
     <g id="line2d_50">
      <path clip-path="url(#pff365fc862)" d="M 72 81.6 
L 518.4 81.6 
" style="fill:none;stroke:#000000;stroke-dasharray:1.000000,3.000000;stroke-dashoffset:0.0;stroke-width:0.5;"/>
     </g>
     <g id="line2d_51">
      <g>
       <use style="stroke:#000000;stroke-width:0.5;" x="72.0" xlink:href="#m8900c87929" y="81.6"/>
      </g>
     </g>
     <g id="line2d_52">
      <g>
       <use style="stroke:#000000;stroke-width:0.5;" x="518.4" xlink:href="#m117ab254fd" y="81.6"/>
      </g>
     </g>
     <g id="text_17">
      <!-- 400 -->
      <defs>
       <path d="M 37.796875 64.3125 
L 12.890625 25.390625 
L 37.796875 25.390625 
z
M 35.203125 72.90625 
L 47.609375 72.90625 
L 47.609375 25.390625 
L 58.015625 25.390625 
L 58.015625 17.1875 
L 47.609375 17.1875 
L 47.609375 0 
L 37.796875 0 
L 37.796875 17.1875 
L 4.890625 17.1875 
L 4.890625 26.703125 
z
" id="BitstreamVeraSans-Roman-34"/>
      </defs>
      <g transform="translate(45.095 84.91125)scale(0.12 -0.12)">
       <use xlink:href="#BitstreamVeraSans-Roman-34"/>
       <use x="63.623046875" xlink:href="#BitstreamVeraSans-Roman-30"/>
       <use x="127.24609375" xlink:href="#BitstreamVeraSans-Roman-30"/>
      </g>
     </g>
    </g>
    <g id="ytick_10">
     <g id="line2d_53">
      <path clip-path="url(#pff365fc862)" d="M 72 43.2 
L 518.4 43.2 
" style="fill:none;stroke:#000000;stroke-dasharray:1.000000,3.000000;stroke-dashoffset:0.0;stroke-width:0.5;"/>
     </g>
     <g id="line2d_54">
      <g>
       <use style="stroke:#000000;stroke-width:0.5;" x="72.0" xlink:href="#m8900c87929" y="43.2"/>
      </g>
     </g>
     <g id="line2d_55">
      <g>
       <use style="stroke:#000000;stroke-width:0.5;" x="518.4" xlink:href="#m117ab254fd" y="43.2"/>
      </g>
     </g>
     <g id="text_18">
      <!-- 450 -->
      <g transform="translate(45.095 46.51125)scale(0.12 -0.12)">
       <use xlink:href="#BitstreamVeraSans-Roman-34"/>
       <use x="63.623046875" xlink:href="#BitstreamVeraSans-Roman-35"/>
       <use x="127.24609375" xlink:href="#BitstreamVeraSans-Roman-30"/>
      </g>
     </g>
    </g>
    <g id="text_19">
     <!-- Fitness -->
     <defs>
      <path d="M 9.8125 72.90625 
L 51.703125 72.90625 
L 51.703125 64.59375 
L 19.671875 64.59375 
L 19.671875 43.109375 
L 48.578125 43.109375 
L 48.578125 34.8125 
L 19.671875 34.8125 
L 19.671875 0 
L 9.8125 0 
z
" id="BitstreamVeraSans-Roman-46"/>
     </defs>
     <g transform="translate(37.599375 237.2090625)rotate(-90.0)scale(0.12 -0.12)">
      <use xlink:href="#BitstreamVeraSans-Roman-46"/>
      <use x="57.41015625" xlink:href="#BitstreamVeraSans-Roman-69"/>
      <use x="85.193359375" xlink:href="#BitstreamVeraSans-Roman-74"/>
      <use x="124.40234375" xlink:href="#BitstreamVeraSans-Roman-6e"/>
      <use x="187.78125" xlink:href="#BitstreamVeraSans-Roman-65"/>
      <use x="249.3046875" xlink:href="#BitstreamVeraSans-Roman-73"/>
      <use x="301.404296875" xlink:href="#BitstreamVeraSans-Roman-73"/>
     </g>
    </g>
   </g>
   <g id="text_20">
    <!-- Population's average and best fitness -->
    <defs>
     <path id="BitstreamVeraSans-Roman-20"/>
     <path d="M 37.109375 75.984375 
L 37.109375 68.5 
L 28.515625 68.5 
Q 23.6875 68.5 21.796875 66.546875 
Q 19.921875 64.59375 19.921875 59.515625 
L 19.921875 54.6875 
L 34.71875 54.6875 
L 34.71875 47.703125 
L 19.921875 47.703125 
L 19.921875 0 
L 10.890625 0 
L 10.890625 47.703125 
L 2.296875 47.703125 
L 2.296875 54.6875 
L 10.890625 54.6875 
L 10.890625 58.5 
Q 10.890625 67.625 15.140625 71.796875 
Q 19.390625 75.984375 28.609375 75.984375 
z
" id="BitstreamVeraSans-Roman-66"/>
     <path d="M 17.921875 72.90625 
L 17.921875 45.796875 
L 9.625 45.796875 
L 9.625 72.90625 
z
" id="BitstreamVeraSans-Roman-27"/>
     <path d="M 9.421875 75.984375 
L 18.40625 75.984375 
L 18.40625 0 
L 9.421875 0 
z
" id="BitstreamVeraSans-Roman-6c"/>
     <path d="M 19.671875 64.796875 
L 19.671875 37.40625 
L 32.078125 37.40625 
Q 38.96875 37.40625 42.71875 40.96875 
Q 46.484375 44.53125 46.484375 51.125 
Q 46.484375 57.671875 42.71875 61.234375 
Q 38.96875 64.796875 32.078125 64.796875 
z
M 9.8125 72.90625 
L 32.078125 72.90625 
Q 44.34375 72.90625 50.609375 67.359375 
Q 56.890625 61.8125 56.890625 51.125 
Q 56.890625 40.328125 50.609375 34.8125 
Q 44.34375 29.296875 32.078125 29.296875 
L 19.671875 29.296875 
L 19.671875 0 
L 9.8125 0 
z
" id="BitstreamVeraSans-Roman-50"/>
     <path d="M 2.984375 54.6875 
L 12.5 54.6875 
L 29.59375 8.796875 
L 46.6875 54.6875 
L 56.203125 54.6875 
L 35.6875 0 
L 23.484375 0 
z
" id="BitstreamVeraSans-Roman-76"/>
     <path d="M 45.40625 46.390625 
L 45.40625 75.984375 
L 54.390625 75.984375 
L 54.390625 0 
L 45.40625 0 
L 45.40625 8.203125 
Q 42.578125 3.328125 38.25 0.953125 
Q 33.9375 -1.421875 27.875 -1.421875 
Q 17.96875 -1.421875 11.734375 6.484375 
Q 5.515625 14.40625 5.515625 27.296875 
Q 5.515625 40.1875 11.734375 48.09375 
Q 17.96875 56 27.875 56 
Q 33.9375 56 38.25 53.625 
Q 42.578125 51.265625 45.40625 46.390625 
M 14.796875 27.296875 
Q 14.796875 17.390625 18.875 11.75 
Q 22.953125 6.109375 30.078125 6.109375 
Q 37.203125 6.109375 41.296875 11.75 
Q 45.40625 17.390625 45.40625 27.296875 
Q 45.40625 37.203125 41.296875 42.84375 
Q 37.203125 48.484375 30.078125 48.484375 
Q 22.953125 48.484375 18.875 42.84375 
Q 14.796875 37.203125 14.796875 27.296875 
" id="BitstreamVeraSans-Roman-64"/>
     <path d="M 45.40625 27.984375 
Q 45.40625 37.75 41.375 43.109375 
Q 37.359375 48.484375 30.078125 48.484375 
Q 22.859375 48.484375 18.828125 43.109375 
Q 14.796875 37.75 14.796875 27.984375 
Q 14.796875 18.265625 18.828125 12.890625 
Q 22.859375 7.515625 30.078125 7.515625 
Q 37.359375 7.515625 41.375 12.890625 
Q 45.40625 18.265625 45.40625 27.984375 
M 54.390625 6.78125 
Q 54.390625 -7.171875 48.1875 -13.984375 
Q 42 -20.796875 29.203125 -20.796875 
Q 24.46875 -20.796875 20.265625 -20.09375 
Q 16.0625 -19.390625 12.109375 -17.921875 
L 12.109375 -9.1875 
Q 16.0625 -11.328125 19.921875 -12.34375 
Q 23.78125 -13.375 27.78125 -13.375 
Q 36.625 -13.375 41.015625 -8.765625 
Q 45.40625 -4.15625 45.40625 5.171875 
L 45.40625 9.625 
Q 42.625 4.78125 38.28125 2.390625 
Q 33.9375 0 27.875 0 
Q 17.828125 0 11.671875 7.65625 
Q 5.515625 15.328125 5.515625 27.984375 
Q 5.515625 40.671875 11.671875 48.328125 
Q 17.828125 56 27.875 56 
Q 33.9375 56 38.28125 53.609375 
Q 42.625 51.21875 45.40625 46.390625 
L 45.40625 54.6875 
L 54.390625 54.6875 
z
" id="BitstreamVeraSans-Roman-67"/>
     <path d="M 8.5 21.578125 
L 8.5 54.6875 
L 17.484375 54.6875 
L 17.484375 21.921875 
Q 17.484375 14.15625 20.5 10.265625 
Q 23.53125 6.390625 29.59375 6.390625 
Q 36.859375 6.390625 41.078125 11.03125 
Q 45.3125 15.671875 45.3125 23.6875 
L 45.3125 54.6875 
L 54.296875 54.6875 
L 54.296875 0 
L 45.3125 0 
L 45.3125 8.40625 
Q 42.046875 3.421875 37.71875 1 
Q 33.40625 -1.421875 27.6875 -1.421875 
Q 18.265625 -1.421875 13.375 4.4375 
Q 8.5 10.296875 8.5 21.578125 
" id="BitstreamVeraSans-Roman-75"/>
     <path d="M 18.109375 8.203125 
L 18.109375 -20.796875 
L 9.078125 -20.796875 
L 9.078125 54.6875 
L 18.109375 54.6875 
L 18.109375 46.390625 
Q 20.953125 51.265625 25.265625 53.625 
Q 29.59375 56 35.59375 56 
Q 45.5625 56 51.78125 48.09375 
Q 58.015625 40.1875 58.015625 27.296875 
Q 58.015625 14.40625 51.78125 6.484375 
Q 45.5625 -1.421875 35.59375 -1.421875 
Q 29.59375 -1.421875 25.265625 0.953125 
Q 20.953125 3.328125 18.109375 8.203125 
M 48.6875 27.296875 
Q 48.6875 37.203125 44.609375 42.84375 
Q 40.53125 48.484375 33.40625 48.484375 
Q 26.265625 48.484375 22.1875 42.84375 
Q 18.109375 37.203125 18.109375 27.296875 
Q 18.109375 17.390625 22.1875 11.75 
Q 26.265625 6.109375 33.40625 6.109375 
Q 40.53125 6.109375 44.609375 11.75 
Q 48.6875 17.390625 48.6875 27.296875 
" id="BitstreamVeraSans-Roman-70"/>
     <path d="M 48.6875 27.296875 
Q 48.6875 37.203125 44.609375 42.84375 
Q 40.53125 48.484375 33.40625 48.484375 
Q 26.265625 48.484375 22.1875 42.84375 
Q 18.109375 37.203125 18.109375 27.296875 
Q 18.109375 17.390625 22.1875 11.75 
Q 26.265625 6.109375 33.40625 6.109375 
Q 40.53125 6.109375 44.609375 11.75 
Q 48.6875 17.390625 48.6875 27.296875 
M 18.109375 46.390625 
Q 20.953125 51.265625 25.265625 53.625 
Q 29.59375 56 35.59375 56 
Q 45.5625 56 51.78125 48.09375 
Q 58.015625 40.1875 58.015625 27.296875 
Q 58.015625 14.40625 51.78125 6.484375 
Q 45.5625 -1.421875 35.59375 -1.421875 
Q 29.59375 -1.421875 25.265625 0.953125 
Q 20.953125 3.328125 18.109375 8.203125 
L 18.109375 0 
L 9.078125 0 
L 9.078125 75.984375 
L 18.109375 75.984375 
z
" id="BitstreamVeraSans-Roman-62"/>
    </defs>
    <g transform="translate(159.786 38.2)scale(0.144 -0.144)">
     <use xlink:href="#BitstreamVeraSans-Roman-50"/>
     <use x="60.255859375" xlink:href="#BitstreamVeraSans-Roman-6f"/>
     <use x="121.4375" xlink:href="#BitstreamVeraSans-Roman-70"/>
     <use x="184.9140625" xlink:href="#BitstreamVeraSans-Roman-75"/>
     <use x="248.29296875" xlink:href="#BitstreamVeraSans-Roman-6c"/>
     <use x="276.076171875" xlink:href="#BitstreamVeraSans-Roman-61"/>
     <use x="337.35546875" xlink:href="#BitstreamVeraSans-Roman-74"/>
     <use x="376.564453125" xlink:href="#BitstreamVeraSans-Roman-69"/>
     <use x="404.34765625" xlink:href="#BitstreamVeraSans-Roman-6f"/>
     <use x="465.529296875" xlink:href="#BitstreamVeraSans-Roman-6e"/>
     <use x="528.908203125" xlink:href="#BitstreamVeraSans-Roman-27"/>
     <use x="556.3984375" xlink:href="#BitstreamVeraSans-Roman-73"/>
     <use x="608.498046875" xlink:href="#BitstreamVeraSans-Roman-20"/>
     <use x="640.28515625" xlink:href="#BitstreamVeraSans-Roman-61"/>
     <use x="701.564453125" xlink:href="#BitstreamVeraSans-Roman-76"/>
     <use x="760.744140625" xlink:href="#BitstreamVeraSans-Roman-65"/>
     <use x="822.267578125" xlink:href="#BitstreamVeraSans-Roman-72"/>
     <use x="863.380859375" xlink:href="#BitstreamVeraSans-Roman-61"/>
     <use x="924.66015625" xlink:href="#BitstreamVeraSans-Roman-67"/>
     <use x="988.13671875" xlink:href="#BitstreamVeraSans-Roman-65"/>
     <use x="1049.66015625" xlink:href="#BitstreamVeraSans-Roman-20"/>
     <use x="1081.44726562" xlink:href="#BitstreamVeraSans-Roman-61"/>
     <use x="1142.7265625" xlink:href="#BitstreamVeraSans-Roman-6e"/>
     <use x="1206.10546875" xlink:href="#BitstreamVeraSans-Roman-64"/>
     <use x="1269.58203125" xlink:href="#BitstreamVeraSans-Roman-20"/>
     <use x="1301.36914062" xlink:href="#BitstreamVeraSans-Roman-62"/>
     <use x="1364.84570312" xlink:href="#BitstreamVeraSans-Roman-65"/>
     <use x="1426.36914062" xlink:href="#BitstreamVeraSans-Roman-73"/>
     <use x="1478.46875" xlink:href="#BitstreamVeraSans-Roman-74"/>
     <use x="1517.67773438" xlink:href="#BitstreamVeraSans-Roman-20"/>
     <use x="1549.46484375" xlink:href="#BitstreamVeraSans-Roman-66"/>
     <use x="1584.66992188" xlink:href="#BitstreamVeraSans-Roman-69"/>
     <use x="1612.453125" xlink:href="#BitstreamVeraSans-Roman-74"/>
     <use x="1651.66210938" xlink:href="#BitstreamVeraSans-Roman-6e"/>
     <use x="1715.04101562" xlink:href="#BitstreamVeraSans-Roman-65"/>
     <use x="1776.56445312" xlink:href="#BitstreamVeraSans-Roman-73"/>
     <use x="1828.6640625" xlink:href="#BitstreamVeraSans-Roman-73"/>
    </g>
   </g>
   <g id="legend_1">
    <g id="patch_7">
     <path d="M 79.2 139.266 
L 189.9945 139.266 
L 189.9945 50.4 
L 79.2 50.4 
z
" style="fill:#ffffff;stroke:#000000;stroke-linejoin:miter;"/>
    </g>
    <g id="line2d_56">
     <path d="M 89.28 62.06175 
L 109.44 62.06175 
" style="fill:none;stroke:#0000ff;stroke-linecap:square;"/>
    </g>
    <g id="line2d_57"/>
    <g id="text_21">
     <!-- average -->
     <g transform="translate(125.28 67.10175)scale(0.144 -0.144)">
      <use xlink:href="#BitstreamVeraSans-Roman-61"/>
      <use x="61.279296875" xlink:href="#BitstreamVeraSans-Roman-76"/>
      <use x="120.458984375" xlink:href="#BitstreamVeraSans-Roman-65"/>
      <use x="181.982421875" xlink:href="#BitstreamVeraSans-Roman-72"/>
      <use x="223.095703125" xlink:href="#BitstreamVeraSans-Roman-61"/>
      <use x="284.375" xlink:href="#BitstreamVeraSans-Roman-67"/>
      <use x="347.8515625" xlink:href="#BitstreamVeraSans-Roman-65"/>
     </g>
    </g>
    <g id="line2d_58">
     <path d="M 89.28 83.19825 
L 109.44 83.19825 
" style="fill:none;stroke:#008000;stroke-dasharray:3.000000,5.000000,1.000000,5.000000;stroke-dashoffset:0.0;"/>
    </g>
    <g id="line2d_59"/>
    <g id="text_22">
     <!-- -1 sd -->
     <defs>
      <path d="M 4.890625 31.390625 
L 31.203125 31.390625 
L 31.203125 23.390625 
L 4.890625 23.390625 
z
" id="BitstreamVeraSans-Roman-2d"/>
     </defs>
     <g transform="translate(125.28 88.23825)scale(0.144 -0.144)">
      <use xlink:href="#BitstreamVeraSans-Roman-2d"/>
      <use x="36.083984375" xlink:href="#BitstreamVeraSans-Roman-31"/>
      <use x="99.70703125" xlink:href="#BitstreamVeraSans-Roman-20"/>
      <use x="131.494140625" xlink:href="#BitstreamVeraSans-Roman-73"/>
      <use x="183.59375" xlink:href="#BitstreamVeraSans-Roman-64"/>
     </g>
    </g>
    <g id="line2d_60">
     <path d="M 89.28 104.33475 
L 109.44 104.33475 
" style="fill:none;stroke:#008000;stroke-dasharray:3.000000,5.000000,1.000000,5.000000;stroke-dashoffset:0.0;"/>
    </g>
    <g id="line2d_61"/>
    <g id="text_23">
     <!-- +1 sd -->
     <defs>
      <path d="M 46 62.703125 
L 46 35.5 
L 73.1875 35.5 
L 73.1875 27.203125 
L 46 27.203125 
L 46 0 
L 37.796875 0 
L 37.796875 27.203125 
L 10.59375 27.203125 
L 10.59375 35.5 
L 37.796875 35.5 
L 37.796875 62.703125 
z
" id="BitstreamVeraSans-Roman-2b"/>
     </defs>
     <g transform="translate(125.28 109.37475)scale(0.144 -0.144)">
      <use xlink:href="#BitstreamVeraSans-Roman-2b"/>
      <use x="83.7890625" xlink:href="#BitstreamVeraSans-Roman-31"/>
      <use x="147.412109375" xlink:href="#BitstreamVeraSans-Roman-20"/>
      <use x="179.19921875" xlink:href="#BitstreamVeraSans-Roman-73"/>
      <use x="231.298828125" xlink:href="#BitstreamVeraSans-Roman-64"/>
     </g>
    </g>
    <g id="line2d_62">
     <path d="M 89.28 125.47125 
L 109.44 125.47125 
" style="fill:none;stroke:#ff0000;stroke-linecap:square;"/>
    </g>
    <g id="line2d_63"/>
    <g id="text_24">
     <!-- best -->
     <g transform="translate(125.28 130.51125)scale(0.144 -0.144)">
      <use xlink:href="#BitstreamVeraSans-Roman-62"/>
      <use x="63.4765625" xlink:href="#BitstreamVeraSans-Roman-65"/>
      <use x="125.0" xlink:href="#BitstreamVeraSans-Roman-73"/>
      <use x="177.099609375" xlink:href="#BitstreamVeraSans-Roman-74"/>
     </g>
    </g>
   </g>
  </g>
 </g>
 <defs>
  <clipPath id="pff365fc862">
   <rect height="345.6" width="446.4" x="72.0" y="43.2"/>
  </clipPath>
 </defs>
</svg>
