<?xml version="1.0" encoding="utf-8" standalone="no"?>
<!DOCTYPE svg PUBLIC "-//W3C//DTD SVG 1.1//EN"
  "http://www.w3.org/Graphics/SVG/1.1/DTD/svg11.dtd">
<!-- Created with matplotlib (http://matplotlib.org/) -->
<svg height="345pt" version="1.1" viewBox="0 0 460 345" width="460pt" xmlns="http://www.w3.org/2000/svg" xmlns:xlink="http://www.w3.org/1999/xlink">
 <defs>
  <style type="text/css">
*{stroke-linecap:butt;stroke-linejoin:round;}
  </style>
 </defs>
 <g id="figure_1">
  <g id="patch_1">
   <path d="M 0 345.6 
L 460.8 345.6 
L 460.8 0 
L 0 0 
z
" style="fill:#ffffff;"/>
  </g>
  <g id="axes_1">
   <g id="patch_2">
    <path d="M 57.6 307.584 
L 414.72 307.584 
L 414.72 41.472 
L 57.6 41.472 
z
" style="fill:#ffffff;"/>
   </g>
   <g id="matplotlib.axis_1">
    <g id="xtick_1">
     <g id="line2d_1">
      <path clip-path="url(#p79cc96855d)" d="M 73.832727 307.584 
L 73.832727 41.472 
" style="fill:none;stroke:#b0b0b0;stroke-linecap:square;stroke-width:0.8;"/>
     </g>
     <g id="line2d_2">
      <defs>
       <path d="M 0 0 
L 0 3.5 
" id="m29ee710d26" style="stroke:#000000;stroke-width:0.8;"/>
      </defs>
      <g>
       <use style="stroke:#000000;stroke-width:0.8;" x="73.832727" xlink:href="#m29ee710d26" y="307.584"/>
      </g>
     </g>
     <g id="text_1">
      <!-- 0 -->
      <defs>
       <path d="M 31.78125 66.40625 
Q 24.171875 66.40625 20.328125 58.90625 
Q 16.5 51.421875 16.5 36.375 
Q 16.5 21.390625 20.328125 13.890625 
Q 24.171875 6.390625 31.78125 6.390625 
Q 39.453125 6.390625 43.28125 13.890625 
Q 47.125 21.390625 47.125 36.375 
Q 47.125 51.421875 43.28125 58.90625 
Q 39.453125 66.40625 31.78125 66.40625 
z
M 31.78125 74.21875 
Q 44.046875 74.21875 50.515625 64.515625 
Q 56.984375 54.828125 56.984375 36.375 
Q 56.984375 17.96875 50.515625 8.265625 
Q 44.046875 -1.421875 31.78125 -1.421875 
Q 19.53125 -1.421875 13.0625 8.265625 
Q 6.59375 17.96875 6.59375 36.375 
Q 6.59375 54.828125 13.0625 64.515625 
Q 19.53125 74.21875 31.78125 74.21875 
z
" id="DejaVuSans-30"/>
      </defs>
      <g transform="translate(70.651477 322.182437)scale(0.1 -0.1)">
       <use xlink:href="#DejaVuSans-30"/>
      </g>
     </g>
    </g>
    <g id="xtick_2">
     <g id="line2d_3">
      <path clip-path="url(#p79cc96855d)" d="M 128.122785 307.584 
L 128.122785 41.472 
" style="fill:none;stroke:#b0b0b0;stroke-linecap:square;stroke-width:0.8;"/>
     </g>
     <g id="line2d_4">
      <g>
       <use style="stroke:#000000;stroke-width:0.8;" x="128.122785" xlink:href="#m29ee710d26" y="307.584"/>
      </g>
     </g>
     <g id="text_2">
      <!-- 50 -->
      <defs>
       <path d="M 10.796875 72.90625 
L 49.515625 72.90625 
L 49.515625 64.59375 
L 19.828125 64.59375 
L 19.828125 46.734375 
Q 21.96875 47.46875 24.109375 47.828125 
Q 26.265625 48.1875 28.421875 48.1875 
Q 40.625 48.1875 47.75 41.5 
Q 54.890625 34.8125 54.890625 23.390625 
Q 54.890625 11.625 47.5625 5.09375 
Q 40.234375 -1.421875 26.90625 -1.421875 
Q 22.3125 -1.421875 17.546875 -0.640625 
Q 12.796875 0.140625 7.71875 1.703125 
L 7.71875 11.625 
Q 12.109375 9.234375 16.796875 8.0625 
Q 21.484375 6.890625 26.703125 6.890625 
Q 35.15625 6.890625 40.078125 11.328125 
Q 45.015625 15.765625 45.015625 23.390625 
Q 45.015625 31 40.078125 35.4375 
Q 35.15625 39.890625 26.703125 39.890625 
Q 22.75 39.890625 18.8125 39.015625 
Q 14.890625 38.140625 10.796875 36.28125 
z
" id="DejaVuSans-35"/>
      </defs>
      <g transform="translate(121.760285 322.182437)scale(0.1 -0.1)">
       <use xlink:href="#DejaVuSans-35"/>
       <use x="63.623047" xlink:href="#DejaVuSans-30"/>
      </g>
     </g>
    </g>
    <g id="xtick_3">
     <g id="line2d_5">
      <path clip-path="url(#p79cc96855d)" d="M 182.412843 307.584 
L 182.412843 41.472 
" style="fill:none;stroke:#b0b0b0;stroke-linecap:square;stroke-width:0.8;"/>
     </g>
     <g id="line2d_6">
      <g>
       <use style="stroke:#000000;stroke-width:0.8;" x="182.412843" xlink:href="#m29ee710d26" y="307.584"/>
      </g>
     </g>
     <g id="text_3">
      <!-- 100 -->
      <defs>
       <path d="M 12.40625 8.296875 
L 28.515625 8.296875 
L 28.515625 63.921875 
L 10.984375 60.40625 
L 10.984375 69.390625 
L 28.421875 72.90625 
L 38.28125 72.90625 
L 38.28125 8.296875 
L 54.390625 8.296875 
L 54.390625 0 
L 12.40625 0 
z
" id="DejaVuSans-31"/>
      </defs>
      <g transform="translate(172.869093 322.182437)scale(0.1 -0.1)">
       <use xlink:href="#DejaVuSans-31"/>
       <use x="63.623047" xlink:href="#DejaVuSans-30"/>
       <use x="127.246094" xlink:href="#DejaVuSans-30"/>
      </g>
     </g>
    </g>
    <g id="xtick_4">
     <g id="line2d_7">
      <path clip-path="url(#p79cc96855d)" d="M 236.702901 307.584 
L 236.702901 41.472 
" style="fill:none;stroke:#b0b0b0;stroke-linecap:square;stroke-width:0.8;"/>
     </g>
     <g id="line2d_8">
      <g>
       <use style="stroke:#000000;stroke-width:0.8;" x="236.702901" xlink:href="#m29ee710d26" y="307.584"/>
      </g>
     </g>
     <g id="text_4">
      <!-- 150 -->
      <g transform="translate(227.159151 322.182437)scale(0.1 -0.1)">
       <use xlink:href="#DejaVuSans-31"/>
       <use x="63.623047" xlink:href="#DejaVuSans-35"/>
       <use x="127.246094" xlink:href="#DejaVuSans-30"/>
      </g>
     </g>
    </g>
    <g id="xtick_5">
     <g id="line2d_9">
      <path clip-path="url(#p79cc96855d)" d="M 290.992958 307.584 
L 290.992958 41.472 
" style="fill:none;stroke:#b0b0b0;stroke-linecap:square;stroke-width:0.8;"/>
     </g>
     <g id="line2d_10">
      <g>
       <use style="stroke:#000000;stroke-width:0.8;" x="290.992958" xlink:href="#m29ee710d26" y="307.584"/>
      </g>
     </g>
     <g id="text_5">
      <!-- 200 -->
      <defs>
       <path d="M 19.1875 8.296875 
L 53.609375 8.296875 
L 53.609375 0 
L 7.328125 0 
L 7.328125 8.296875 
Q 12.9375 14.109375 22.625 23.890625 
Q 32.328125 33.6875 34.8125 36.53125 
Q 39.546875 41.84375 41.421875 45.53125 
Q 43.3125 49.21875 43.3125 52.78125 
Q 43.3125 58.59375 39.234375 62.25 
Q 35.15625 65.921875 28.609375 65.921875 
Q 23.96875 65.921875 18.8125 64.3125 
Q 13.671875 62.703125 7.8125 59.421875 
L 7.8125 69.390625 
Q 13.765625 71.78125 18.9375 73 
Q 24.125 74.21875 28.421875 74.21875 
Q 39.75 74.21875 46.484375 68.546875 
Q 53.21875 62.890625 53.21875 53.421875 
Q 53.21875 48.921875 51.53125 44.890625 
Q 49.859375 40.875 45.40625 35.40625 
Q 44.1875 33.984375 37.640625 27.21875 
Q 31.109375 20.453125 19.1875 8.296875 
z
" id="DejaVuSans-32"/>
      </defs>
      <g transform="translate(281.449208 322.182437)scale(0.1 -0.1)">
       <use xlink:href="#DejaVuSans-32"/>
       <use x="63.623047" xlink:href="#DejaVuSans-30"/>
       <use x="127.246094" xlink:href="#DejaVuSans-30"/>
      </g>
     </g>
    </g>
    <g id="xtick_6">
     <g id="line2d_11">
      <path clip-path="url(#p79cc96855d)" d="M 345.283016 307.584 
L 345.283016 41.472 
" style="fill:none;stroke:#b0b0b0;stroke-linecap:square;stroke-width:0.8;"/>
     </g>
     <g id="line2d_12">
      <g>
       <use style="stroke:#000000;stroke-width:0.8;" x="345.283016" xlink:href="#m29ee710d26" y="307.584"/>
      </g>
     </g>
     <g id="text_6">
      <!-- 250 -->
      <g transform="translate(335.739266 322.182437)scale(0.1 -0.1)">
       <use xlink:href="#DejaVuSans-32"/>
       <use x="63.623047" xlink:href="#DejaVuSans-35"/>
       <use x="127.246094" xlink:href="#DejaVuSans-30"/>
      </g>
     </g>
    </g>
    <g id="xtick_7">
     <g id="line2d_13">
      <path clip-path="url(#p79cc96855d)" d="M 399.573074 307.584 
L 399.573074 41.472 
" style="fill:none;stroke:#b0b0b0;stroke-linecap:square;stroke-width:0.8;"/>
     </g>
     <g id="line2d_14">
      <g>
       <use style="stroke:#000000;stroke-width:0.8;" x="399.573074" xlink:href="#m29ee710d26" y="307.584"/>
      </g>
     </g>
     <g id="text_7">
      <!-- 300 -->
      <defs>
       <path d="M 40.578125 39.3125 
Q 47.65625 37.796875 51.625 33 
Q 55.609375 28.21875 55.609375 21.1875 
Q 55.609375 10.40625 48.1875 4.484375 
Q 40.765625 -1.421875 27.09375 -1.421875 
Q 22.515625 -1.421875 17.65625 -0.515625 
Q 12.796875 0.390625 7.625 2.203125 
L 7.625 11.71875 
Q 11.71875 9.328125 16.59375 8.109375 
Q 21.484375 6.890625 26.8125 6.890625 
Q 36.078125 6.890625 40.9375 10.546875 
Q 45.796875 14.203125 45.796875 21.1875 
Q 45.796875 27.640625 41.28125 31.265625 
Q 36.765625 34.90625 28.71875 34.90625 
L 20.21875 34.90625 
L 20.21875 43.015625 
L 29.109375 43.015625 
Q 36.375 43.015625 40.234375 45.921875 
Q 44.09375 48.828125 44.09375 54.296875 
Q 44.09375 59.90625 40.109375 62.90625 
Q 36.140625 65.921875 28.71875 65.921875 
Q 24.65625 65.921875 20.015625 65.03125 
Q 15.375 64.15625 9.8125 62.3125 
L 9.8125 71.09375 
Q 15.4375 72.65625 20.34375 73.4375 
Q 25.25 74.21875 29.59375 74.21875 
Q 40.828125 74.21875 47.359375 69.109375 
Q 53.90625 64.015625 53.90625 55.328125 
Q 53.90625 49.265625 50.4375 45.09375 
Q 46.96875 40.921875 40.578125 39.3125 
z
" id="DejaVuSans-33"/>
      </defs>
      <g transform="translate(390.029324 322.182437)scale(0.1 -0.1)">
       <use xlink:href="#DejaVuSans-33"/>
       <use x="63.623047" xlink:href="#DejaVuSans-30"/>
       <use x="127.246094" xlink:href="#DejaVuSans-30"/>
      </g>
     </g>
    </g>
    <g id="text_8">
     <!-- Generations -->
     <defs>
      <path d="M 59.515625 10.40625 
L 59.515625 29.984375 
L 43.40625 29.984375 
L 43.40625 38.09375 
L 69.28125 38.09375 
L 69.28125 6.78125 
Q 63.578125 2.734375 56.6875 0.65625 
Q 49.8125 -1.421875 42 -1.421875 
Q 24.90625 -1.421875 15.25 8.5625 
Q 5.609375 18.5625 5.609375 36.375 
Q 5.609375 54.25 15.25 64.234375 
Q 24.90625 74.21875 42 74.21875 
Q 49.125 74.21875 55.546875 72.453125 
Q 61.96875 70.703125 67.390625 67.28125 
L 67.390625 56.78125 
Q 61.921875 61.421875 55.765625 63.765625 
Q 49.609375 66.109375 42.828125 66.109375 
Q 29.4375 66.109375 22.71875 58.640625 
Q 16.015625 51.171875 16.015625 36.375 
Q 16.015625 21.625 22.71875 14.15625 
Q 29.4375 6.6875 42.828125 6.6875 
Q 48.046875 6.6875 52.140625 7.59375 
Q 56.25 8.5 59.515625 10.40625 
z
" id="DejaVuSans-47"/>
      <path d="M 56.203125 29.59375 
L 56.203125 25.203125 
L 14.890625 25.203125 
Q 15.484375 15.921875 20.484375 11.0625 
Q 25.484375 6.203125 34.421875 6.203125 
Q 39.59375 6.203125 44.453125 7.46875 
Q 49.3125 8.734375 54.109375 11.28125 
L 54.109375 2.78125 
Q 49.265625 0.734375 44.1875 -0.34375 
Q 39.109375 -1.421875 33.890625 -1.421875 
Q 20.796875 -1.421875 13.15625 6.1875 
Q 5.515625 13.8125 5.515625 26.8125 
Q 5.515625 40.234375 12.765625 48.109375 
Q 20.015625 56 32.328125 56 
Q 43.359375 56 49.78125 48.890625 
Q 56.203125 41.796875 56.203125 29.59375 
z
M 47.21875 32.234375 
Q 47.125 39.59375 43.09375 43.984375 
Q 39.0625 48.390625 32.421875 48.390625 
Q 24.90625 48.390625 20.390625 44.140625 
Q 15.875 39.890625 15.1875 32.171875 
z
" id="DejaVuSans-65"/>
      <path d="M 54.890625 33.015625 
L 54.890625 0 
L 45.90625 0 
L 45.90625 32.71875 
Q 45.90625 40.484375 42.875 44.328125 
Q 39.84375 48.1875 33.796875 48.1875 
Q 26.515625 48.1875 22.3125 43.546875 
Q 18.109375 38.921875 18.109375 30.90625 
L 18.109375 0 
L 9.078125 0 
L 9.078125 54.6875 
L 18.109375 54.6875 
L 18.109375 46.1875 
Q 21.34375 51.125 25.703125 53.5625 
Q 30.078125 56 35.796875 56 
Q 45.21875 56 50.046875 50.171875 
Q 54.890625 44.34375 54.890625 33.015625 
z
" id="DejaVuSans-6e"/>
      <path d="M 41.109375 46.296875 
Q 39.59375 47.171875 37.8125 47.578125 
Q 36.03125 48 33.890625 48 
Q 26.265625 48 22.1875 43.046875 
Q 18.109375 38.09375 18.109375 28.8125 
L 18.109375 0 
L 9.078125 0 
L 9.078125 54.6875 
L 18.109375 54.6875 
L 18.109375 46.1875 
Q 20.953125 51.171875 25.484375 53.578125 
Q 30.03125 56 36.53125 56 
Q 37.453125 56 38.578125 55.875 
Q 39.703125 55.765625 41.0625 55.515625 
z
" id="DejaVuSans-72"/>
      <path d="M 34.28125 27.484375 
Q 23.390625 27.484375 19.1875 25 
Q 14.984375 22.515625 14.984375 16.5 
Q 14.984375 11.71875 18.140625 8.90625 
Q 21.296875 6.109375 26.703125 6.109375 
Q 34.1875 6.109375 38.703125 11.40625 
Q 43.21875 16.703125 43.21875 25.484375 
L 43.21875 27.484375 
z
M 52.203125 31.203125 
L 52.203125 0 
L 43.21875 0 
L 43.21875 8.296875 
Q 40.140625 3.328125 35.546875 0.953125 
Q 30.953125 -1.421875 24.3125 -1.421875 
Q 15.921875 -1.421875 10.953125 3.296875 
Q 6 8.015625 6 15.921875 
Q 6 25.140625 12.171875 29.828125 
Q 18.359375 34.515625 30.609375 34.515625 
L 43.21875 34.515625 
L 43.21875 35.40625 
Q 43.21875 41.609375 39.140625 45 
Q 35.0625 48.390625 27.6875 48.390625 
Q 23 48.390625 18.546875 47.265625 
Q 14.109375 46.140625 10.015625 43.890625 
L 10.015625 52.203125 
Q 14.9375 54.109375 19.578125 55.046875 
Q 24.21875 56 28.609375 56 
Q 40.484375 56 46.34375 49.84375 
Q 52.203125 43.703125 52.203125 31.203125 
z
" id="DejaVuSans-61"/>
      <path d="M 18.3125 70.21875 
L 18.3125 54.6875 
L 36.8125 54.6875 
L 36.8125 47.703125 
L 18.3125 47.703125 
L 18.3125 18.015625 
Q 18.3125 11.328125 20.140625 9.421875 
Q 21.96875 7.515625 27.59375 7.515625 
L 36.8125 7.515625 
L 36.8125 0 
L 27.59375 0 
Q 17.1875 0 13.234375 3.875 
Q 9.28125 7.765625 9.28125 18.015625 
L 9.28125 47.703125 
L 2.6875 47.703125 
L 2.6875 54.6875 
L 9.28125 54.6875 
L 9.28125 70.21875 
z
" id="DejaVuSans-74"/>
      <path d="M 9.421875 54.6875 
L 18.40625 54.6875 
L 18.40625 0 
L 9.421875 0 
z
M 9.421875 75.984375 
L 18.40625 75.984375 
L 18.40625 64.59375 
L 9.421875 64.59375 
z
" id="DejaVuSans-69"/>
      <path d="M 30.609375 48.390625 
Q 23.390625 48.390625 19.1875 42.75 
Q 14.984375 37.109375 14.984375 27.296875 
Q 14.984375 17.484375 19.15625 11.84375 
Q 23.34375 6.203125 30.609375 6.203125 
Q 37.796875 6.203125 41.984375 11.859375 
Q 46.1875 17.53125 46.1875 27.296875 
Q 46.1875 37.015625 41.984375 42.703125 
Q 37.796875 48.390625 30.609375 48.390625 
z
M 30.609375 56 
Q 42.328125 56 49.015625 48.375 
Q 55.71875 40.765625 55.71875 27.296875 
Q 55.71875 13.875 49.015625 6.21875 
Q 42.328125 -1.421875 30.609375 -1.421875 
Q 18.84375 -1.421875 12.171875 6.21875 
Q 5.515625 13.875 5.515625 27.296875 
Q 5.515625 40.765625 12.171875 48.375 
Q 18.84375 56 30.609375 56 
z
" id="DejaVuSans-6f"/>
      <path d="M 44.28125 53.078125 
L 44.28125 44.578125 
Q 40.484375 46.53125 36.375 47.5 
Q 32.28125 48.484375 27.875 48.484375 
Q 21.1875 48.484375 17.84375 46.4375 
Q 14.5 44.390625 14.5 40.28125 
Q 14.5 37.15625 16.890625 35.375 
Q 19.28125 33.59375 26.515625 31.984375 
L 29.59375 31.296875 
Q 39.15625 29.25 43.1875 25.515625 
Q 47.21875 21.78125 47.21875 15.09375 
Q 47.21875 7.46875 41.1875 3.015625 
Q 35.15625 -1.421875 24.609375 -1.421875 
Q 20.21875 -1.421875 15.453125 -0.5625 
Q 10.6875 0.296875 5.421875 2 
L 5.421875 11.28125 
Q 10.40625 8.6875 15.234375 7.390625 
Q 20.0625 6.109375 24.8125 6.109375 
Q 31.15625 6.109375 34.5625 8.28125 
Q 37.984375 10.453125 37.984375 14.40625 
Q 37.984375 18.0625 35.515625 20.015625 
Q 33.0625 21.96875 24.703125 23.78125 
L 21.578125 24.515625 
Q 13.234375 26.265625 9.515625 29.90625 
Q 5.8125 33.546875 5.8125 39.890625 
Q 5.8125 47.609375 11.28125 51.796875 
Q 16.75 56 26.8125 56 
Q 31.78125 56 36.171875 55.265625 
Q 40.578125 54.546875 44.28125 53.078125 
z
" id="DejaVuSans-73"/>
     </defs>
     <g transform="translate(205.662344 335.860562)scale(0.1 -0.1)">
      <use xlink:href="#DejaVuSans-47"/>
      <use x="77.490234" xlink:href="#DejaVuSans-65"/>
      <use x="139.013672" xlink:href="#DejaVuSans-6e"/>
      <use x="202.392578" xlink:href="#DejaVuSans-65"/>
      <use x="263.916016" xlink:href="#DejaVuSans-72"/>
      <use x="305.029297" xlink:href="#DejaVuSans-61"/>
      <use x="366.308594" xlink:href="#DejaVuSans-74"/>
      <use x="405.517578" xlink:href="#DejaVuSans-69"/>
      <use x="433.300781" xlink:href="#DejaVuSans-6f"/>
      <use x="494.482422" xlink:href="#DejaVuSans-6e"/>
      <use x="557.861328" xlink:href="#DejaVuSans-73"/>
     </g>
    </g>
   </g>
   <g id="matplotlib.axis_2">
    <g id="ytick_1">
     <g id="line2d_15">
      <path clip-path="url(#p79cc96855d)" d="M 57.6 275.364157 
L 414.72 275.364157 
" style="fill:none;stroke:#b0b0b0;stroke-linecap:square;stroke-width:0.8;"/>
     </g>
     <g id="line2d_16">
      <defs>
       <path d="M 0 0 
L -3.5 0 
" id="m8f4132740d" style="stroke:#000000;stroke-width:0.8;"/>
      </defs>
      <g>
       <use style="stroke:#000000;stroke-width:0.8;" x="57.6" xlink:href="#m8f4132740d" y="275.364157"/>
      </g>
     </g>
     <g id="text_9">
      <!-- 50 -->
      <g transform="translate(37.875 279.163376)scale(0.1 -0.1)">
       <use xlink:href="#DejaVuSans-35"/>
       <use x="63.623047" xlink:href="#DejaVuSans-30"/>
      </g>
     </g>
    </g>
    <g id="ytick_2">
     <g id="line2d_17">
      <path clip-path="url(#p79cc96855d)" d="M 57.6 242.476233 
L 414.72 242.476233 
" style="fill:none;stroke:#b0b0b0;stroke-linecap:square;stroke-width:0.8;"/>
     </g>
     <g id="line2d_18">
      <g>
       <use style="stroke:#000000;stroke-width:0.8;" x="57.6" xlink:href="#m8f4132740d" y="242.476233"/>
      </g>
     </g>
     <g id="text_10">
      <!-- 100 -->
      <g transform="translate(31.5125 246.275452)scale(0.1 -0.1)">
       <use xlink:href="#DejaVuSans-31"/>
       <use x="63.623047" xlink:href="#DejaVuSans-30"/>
       <use x="127.246094" xlink:href="#DejaVuSans-30"/>
      </g>
     </g>
    </g>
    <g id="ytick_3">
     <g id="line2d_19">
      <path clip-path="url(#p79cc96855d)" d="M 57.6 209.58831 
L 414.72 209.58831 
" style="fill:none;stroke:#b0b0b0;stroke-linecap:square;stroke-width:0.8;"/>
     </g>
     <g id="line2d_20">
      <g>
       <use style="stroke:#000000;stroke-width:0.8;" x="57.6" xlink:href="#m8f4132740d" y="209.58831"/>
      </g>
     </g>
     <g id="text_11">
      <!-- 150 -->
      <g transform="translate(31.5125 213.387529)scale(0.1 -0.1)">
       <use xlink:href="#DejaVuSans-31"/>
       <use x="63.623047" xlink:href="#DejaVuSans-35"/>
       <use x="127.246094" xlink:href="#DejaVuSans-30"/>
      </g>
     </g>
    </g>
    <g id="ytick_4">
     <g id="line2d_21">
      <path clip-path="url(#p79cc96855d)" d="M 57.6 176.700386 
L 414.72 176.700386 
" style="fill:none;stroke:#b0b0b0;stroke-linecap:square;stroke-width:0.8;"/>
     </g>
     <g id="line2d_22">
      <g>
       <use style="stroke:#000000;stroke-width:0.8;" x="57.6" xlink:href="#m8f4132740d" y="176.700386"/>
      </g>
     </g>
     <g id="text_12">
      <!-- 200 -->
      <g transform="translate(31.5125 180.499605)scale(0.1 -0.1)">
       <use xlink:href="#DejaVuSans-32"/>
       <use x="63.623047" xlink:href="#DejaVuSans-30"/>
       <use x="127.246094" xlink:href="#DejaVuSans-30"/>
      </g>
     </g>
    </g>
    <g id="ytick_5">
     <g id="line2d_23">
      <path clip-path="url(#p79cc96855d)" d="M 57.6 143.812462 
L 414.72 143.812462 
" style="fill:none;stroke:#b0b0b0;stroke-linecap:square;stroke-width:0.8;"/>
     </g>
     <g id="line2d_24">
      <g>
       <use style="stroke:#000000;stroke-width:0.8;" x="57.6" xlink:href="#m8f4132740d" y="143.812462"/>
      </g>
     </g>
     <g id="text_13">
      <!-- 250 -->
      <g transform="translate(31.5125 147.611681)scale(0.1 -0.1)">
       <use xlink:href="#DejaVuSans-32"/>
       <use x="63.623047" xlink:href="#DejaVuSans-35"/>
       <use x="127.246094" xlink:href="#DejaVuSans-30"/>
      </g>
     </g>
    </g>
    <g id="ytick_6">
     <g id="line2d_25">
      <path clip-path="url(#p79cc96855d)" d="M 57.6 110.924539 
L 414.72 110.924539 
" style="fill:none;stroke:#b0b0b0;stroke-linecap:square;stroke-width:0.8;"/>
     </g>
     <g id="line2d_26">
      <g>
       <use style="stroke:#000000;stroke-width:0.8;" x="57.6" xlink:href="#m8f4132740d" y="110.924539"/>
      </g>
     </g>
     <g id="text_14">
      <!-- 300 -->
      <g transform="translate(31.5125 114.723758)scale(0.1 -0.1)">
       <use xlink:href="#DejaVuSans-33"/>
       <use x="63.623047" xlink:href="#DejaVuSans-30"/>
       <use x="127.246094" xlink:href="#DejaVuSans-30"/>
      </g>
     </g>
    </g>
    <g id="ytick_7">
     <g id="line2d_27">
      <path clip-path="url(#p79cc96855d)" d="M 57.6 78.036615 
L 414.72 78.036615 
" style="fill:none;stroke:#b0b0b0;stroke-linecap:square;stroke-width:0.8;"/>
     </g>
     <g id="line2d_28">
      <g>
       <use style="stroke:#000000;stroke-width:0.8;" x="57.6" xlink:href="#m8f4132740d" y="78.036615"/>
      </g>
     </g>
     <g id="text_15">
      <!-- 350 -->
      <g transform="translate(31.5125 81.835834)scale(0.1 -0.1)">
       <use xlink:href="#DejaVuSans-33"/>
       <use x="63.623047" xlink:href="#DejaVuSans-35"/>
       <use x="127.246094" xlink:href="#DejaVuSans-30"/>
      </g>
     </g>
    </g>
    <g id="ytick_8">
     <g id="line2d_29">
      <path clip-path="url(#p79cc96855d)" d="M 57.6 45.148692 
L 414.72 45.148692 
" style="fill:none;stroke:#b0b0b0;stroke-linecap:square;stroke-width:0.8;"/>
     </g>
     <g id="line2d_30">
      <g>
       <use style="stroke:#000000;stroke-width:0.8;" x="57.6" xlink:href="#m8f4132740d" y="45.148692"/>
      </g>
     </g>
     <g id="text_16">
      <!-- 400 -->
      <defs>
       <path d="M 37.796875 64.3125 
L 12.890625 25.390625 
L 37.796875 25.390625 
z
M 35.203125 72.90625 
L 47.609375 72.90625 
L 47.609375 25.390625 
L 58.015625 25.390625 
L 58.015625 17.1875 
L 47.609375 17.1875 
L 47.609375 0 
L 37.796875 0 
L 37.796875 17.1875 
L 4.890625 17.1875 
L 4.890625 26.703125 
z
" id="DejaVuSans-34"/>
      </defs>
      <g transform="translate(31.5125 48.94791)scale(0.1 -0.1)">
       <use xlink:href="#DejaVuSans-34"/>
       <use x="63.623047" xlink:href="#DejaVuSans-30"/>
       <use x="127.246094" xlink:href="#DejaVuSans-30"/>
      </g>
     </g>
    </g>
    <g id="text_17">
     <!-- Fitness -->
     <defs>
      <path d="M 9.8125 72.90625 
L 51.703125 72.90625 
L 51.703125 64.59375 
L 19.671875 64.59375 
L 19.671875 43.109375 
L 48.578125 43.109375 
L 48.578125 34.8125 
L 19.671875 34.8125 
L 19.671875 0 
L 9.8125 0 
z
" id="DejaVuSans-46"/>
     </defs>
     <g transform="translate(25.432812 192.202219)rotate(-90)scale(0.1 -0.1)">
      <use xlink:href="#DejaVuSans-46"/>
      <use x="57.410156" xlink:href="#DejaVuSans-69"/>
      <use x="85.193359" xlink:href="#DejaVuSans-74"/>
      <use x="124.402344" xlink:href="#DejaVuSans-6e"/>
      <use x="187.78125" xlink:href="#DejaVuSans-65"/>
      <use x="249.304688" xlink:href="#DejaVuSans-73"/>
      <use x="301.404297" xlink:href="#DejaVuSans-73"/>
     </g>
    </g>
   </g>
   <g id="line2d_31">
    <path clip-path="url(#p79cc96855d)" d="M 73.832727 258.37294 
L 74.918528 259.531667 
L 76.00433 256.961271 
L 77.090131 259.609333 
L 78.175932 259.623057 
L 79.261733 253.653344 
L 80.347534 265.490472 
L 82.519137 256.310062 
L 83.604938 257.41861 
L 84.690739 263.143944 
L 85.77654 257.702744 
L 86.862341 253.433294 
L 87.948142 261.375 
L 89.033943 261.920272 
L 90.119745 259.379385 
L 91.205546 258.447071 
L 92.291347 261.412692 
L 93.377148 258.70948 
L 94.462949 259.671919 
L 95.54875 262.555912 
L 96.634552 255.262093 
L 97.720353 262.412834 
L 98.806154 257.557518 
L 99.891955 256.655443 
L 100.977756 256.226708 
L 102.063557 260.786585 
L 103.149358 260.753865 
L 104.23516 260.489514 
L 105.320961 261.103422 
L 106.406762 250.016025 
L 107.492563 259.03513 
L 108.578364 262.763485 
L 109.664165 258.306287 
L 110.749967 257.478496 
L 111.835768 257.443893 
L 112.921569 258.330953 
L 114.00737 257.653844 
L 115.093171 262.356648 
L 116.178972 256.163091 
L 117.264773 258.791275 
L 118.350575 257.185612 
L 119.436376 262.388006 
L 121.607978 258.259638 
L 122.693779 261.265734 
L 123.77958 254.232659 
L 124.865382 257.57179 
L 125.951183 259.405038 
L 127.036984 257.96967 
L 128.122785 260.838013 
L 129.208586 259.244516 
L 130.294387 259.532774 
L 131.380189 261.432702 
L 132.46599 253.33257 
L 133.551791 261.032761 
L 134.637592 262.940415 
L 135.723393 259.724122 
L 137.894995 256.845931 
L 138.980797 261.848536 
L 140.066598 261.651208 
L 141.152399 255.309759 
L 142.2382 258.134793 
L 143.324001 259.468544 
L 144.409802 261.83387 
L 145.495604 261.729671 
L 146.581405 258.153027 
L 147.667206 256.601274 
L 148.753007 260.26567 
L 149.838808 259.973938 
L 150.924609 257.525747 
L 152.01041 257.065316 
L 153.096212 260.548805 
L 154.182013 261.793284 
L 155.267814 261.048702 
L 156.353615 256.541741 
L 157.439416 259.499023 
L 159.611019 262.13795 
L 160.69682 258.709055 
L 161.782621 257.807268 
L 162.868422 262.093222 
L 163.954223 258.215078 
L 165.040024 256.215492 
L 166.125825 261.990612 
L 167.211627 262.777291 
L 168.297428 259.604264 
L 169.383229 258.904409 
L 170.46903 255.336727 
L 171.554831 255.511691 
L 172.640632 260.89084 
L 173.726434 260.806647 
L 174.812235 260.372526 
L 175.898036 262.87339 
L 178.069638 257.694133 
L 179.155439 253.625565 
L 180.24124 258.104575 
L 181.327042 256.753579 
L 182.412843 262.161629 
L 183.498644 263.319942 
L 184.584445 259.51744 
L 185.670246 258.469631 
L 186.756047 264.436816 
L 187.841849 255.463017 
L 188.92765 257.274484 
L 190.013451 260.500789 
L 191.099252 262.429994 
L 192.185053 260.102845 
L 193.270854 263.234433 
L 194.356656 261.05791 
L 195.442457 260.499473 
L 196.528258 253.95675 
L 197.614059 261.364426 
L 198.69986 260.451457 
L 199.785661 259.229342 
L 200.871462 258.604471 
L 201.957264 260.706667 
L 203.043065 258.423588 
L 204.128866 260.446853 
L 205.214667 261.028311 
L 206.300468 258.667616 
L 207.386269 259.224737 
L 208.472071 258.180875 
L 209.557872 260.777705 
L 210.643673 261.724877 
L 211.729474 259.128047 
L 212.815275 261.002001 
L 213.901076 255.506429 
L 214.986877 258.863628 
L 216.072679 261.698567 
L 217.15848 259.874603 
L 218.244281 254.843408 
L 219.330082 259.952218 
L 220.415883 259.228026 
L 221.501684 261.546625 
L 222.587486 261.934045 
L 223.673287 257.325789 
L 224.759088 259.339845 
L 225.844889 259.32077 
L 226.93069 259.137913 
L 228.016491 259.586505 
L 229.102292 256.28653 
L 230.188094 257.449447 
L 231.273895 255.140057 
L 232.359696 257.057423 
L 233.445497 264.161873 
L 234.531298 258.868232 
L 235.617099 258.05327 
L 236.702901 258.165089 
L 237.788702 255.486038 
L 238.874503 260.778363 
L 239.960304 251.630916 
L 241.046105 255.49722 
L 242.131906 261.224981 
L 243.217708 259.599002 
L 244.303509 256.894957 
L 245.38931 255.562996 
L 246.475111 262.474722 
L 247.560912 259.156988 
L 248.646713 256.198391 
L 249.732514 258.93335 
L 250.818316 257.138985 
L 251.904117 263.159449 
L 252.989918 255.067704 
L 255.16152 260.458692 
L 256.247321 257.103466 
L 257.333123 260.533677 
L 258.418924 255.170972 
L 259.504725 252.789886 
L 260.590526 259.210925 
L 261.676327 259.597029 
L 262.762128 262.112955 
L 263.847929 265.6563 
L 264.933731 260.704694 
L 266.019532 263.033817 
L 267.105333 260.287017 
L 268.191134 256.71802 
L 269.276935 256.92061 
L 270.362736 262.198464 
L 271.448538 256.808791 
L 272.534339 254.40863 
L 273.62014 253.752845 
L 274.705941 260.250183 
L 275.791742 259.236577 
L 276.877543 260.472505 
L 277.963344 260.304777 
L 279.049146 262.303705 
L 280.134947 258.731419 
L 281.220748 257.713866 
L 282.306549 261.096718 
L 283.39235 261.162494 
L 284.478151 261.092114 
L 285.563953 264.649272 
L 286.649754 254.03897 
L 287.735555 259.226711 
L 288.821356 263.319942 
L 289.907157 260.019967 
L 290.992958 257.505357 
L 292.07876 261.251291 
L 294.250362 258.234153 
L 295.336163 260.675095 
L 296.421964 254.778948 
L 297.507765 260.90531 
L 298.593566 261.969564 
L 299.679368 259.685826 
L 300.765169 258.741943 
L 301.85097 263.657372 
L 302.936771 260.631025 
L 304.022572 259.037934 
L 305.108373 263.692233 
L 306.194175 255.949758 
L 307.279976 264.818973 
L 308.365777 258.042745 
L 309.451578 256.056973 
L 310.537379 256.737095 
L 311.62318 260.229135 
L 312.708981 261.4131 
L 313.794783 264.329601 
L 314.880584 258.16772 
L 315.966385 259.267492 
L 317.052186 260.654047 
L 318.137987 261.24866 
L 319.223788 258.954399 
L 320.30959 260.150861 
L 321.395391 257.371174 
L 322.481192 257.986178 
L 323.566993 262.840436 
L 324.652794 260.619843 
L 325.738595 255.57352 
L 326.824396 261.506502 
L 327.910198 253.737059 
L 328.995999 262.241218 
L 330.0818 259.368129 
L 331.167601 257.281719 
L 332.253402 257.088996 
L 333.339203 264.592704 
L 334.425005 261.895895 
L 335.510806 260.761919 
L 336.596607 260.385023 
L 337.682408 255.838597 
L 338.768209 257.191606 
L 339.85401 254.626348 
L 340.939811 257.531009 
L 342.025613 259.477974 
L 343.111414 260.256103 
L 344.197215 260.365291 
L 345.283016 254.915762 
L 346.368817 258.875468 
L 347.454618 261.140788 
L 348.54042 259.602949 
L 349.626221 259.615446 
L 350.712022 260.599453 
L 351.797823 256.325996 
L 352.883624 261.78276 
L 353.969425 256.931134 
L 355.055227 259.284593 
L 356.141028 255.540632 
L 357.226829 262.435257 
L 358.31263 260.112054 
L 359.398431 258.67814 
L 360.484232 257.475758 
L 361.570033 263.465964 
L 362.655835 260.737582 
L 363.741636 260.296226 
L 364.827437 256.588441 
L 366.999039 263.583703 
L 368.08484 260.407387 
L 369.170642 260.33306 
L 370.256443 259.633863 
L 371.342244 260.285702 
L 372.428045 258.772857 
L 373.513846 259.119496 
L 374.599647 259.657543 
L 375.685448 257.002172 
L 376.77125 261.958382 
L 377.857051 256.964679 
L 378.942852 259.756864 
L 380.028653 256.608832 
L 381.114454 255.677446 
L 382.200255 257.353415 
L 383.286057 260.248867 
L 384.371858 263.466622 
L 385.457659 261.655155 
L 386.54346 261.186173 
L 387.629261 253.425939 
L 388.715062 256.389141 
L 389.800863 260.041673 
L 390.886665 262.490508 
L 391.972466 262.019553 
L 393.058267 260.231108 
L 394.144068 263.298236 
L 395.229869 260.706667 
L 396.31567 264.805818 
L 397.401472 254.628979 
L 398.487273 261.388105 
L 398.487273 261.388105 
" style="fill:none;stroke:#0000ff;stroke-linecap:square;stroke-width:1.5;"/>
   </g>
   <g id="line2d_32">
    <path clip-path="url(#p79cc96855d)" d="M 73.832727 286.360963 
L 74.918528 290.489396 
L 76.00433 288.557883 
L 77.090131 284.769656 
L 78.175932 287.985169 
L 79.261733 282.475351 
L 80.347534 289.394177 
L 81.433335 288.239171 
L 82.519137 291.749837 
L 83.604938 285.395358 
L 84.690739 287.66882 
L 85.77654 286.674719 
L 86.862341 285.366435 
L 87.948142 286.931609 
L 89.033943 285.7912 
L 90.119745 285.089195 
L 91.205546 289.125183 
L 92.291347 291.459279 
L 93.377148 289.85593 
L 94.462949 282.303122 
L 95.54875 287.848575 
L 96.634552 288.999356 
L 97.720353 284.752911 
L 98.806154 290.57872 
L 99.891955 290.642755 
L 100.977756 291.676521 
L 102.063557 286.678484 
L 103.149358 288.321265 
L 104.23516 291.433528 
L 105.320961 283.400372 
L 106.406762 288.62769 
L 107.492563 288.577634 
L 108.578364 295.072257 
L 109.664165 287.487784 
L 110.749967 290.365088 
L 111.835768 292.051254 
L 112.921569 280.84623 
L 114.00737 286.330605 
L 115.093171 285.158186 
L 116.178972 286.576698 
L 117.264773 288.371924 
L 118.350575 288.869011 
L 120.522177 284.322316 
L 121.607978 289.309478 
L 122.693779 290.348096 
L 123.77958 288.833171 
L 124.865382 290.893046 
L 125.951183 285.459117 
L 127.036984 290.303493 
L 128.122785 291.009433 
L 129.208586 286.477611 
L 130.294387 286.89195 
L 131.380189 289.121796 
L 132.46599 288.308854 
L 133.551791 286.041364 
L 134.637592 285.181775 
L 135.723393 286.785266 
L 136.809194 290.209859 
L 137.894995 286.442778 
L 138.980797 285.566738 
L 140.066598 287.383992 
L 141.152399 283.750972 
L 142.2382 285.738661 
L 143.324001 284.260223 
L 144.409802 287.040141 
L 145.495604 289.084316 
L 146.581405 284.066031 
L 147.667206 285.462855 
L 148.753007 284.945316 
L 149.838808 289.522898 
L 150.924609 282.834762 
L 152.01041 283.9159 
L 153.096212 289.231219 
L 154.182013 283.994945 
L 155.267814 288.63873 
L 156.353615 292.385895 
L 157.439416 287.835258 
L 158.525217 287.404427 
L 159.611019 289.293963 
L 160.69682 289.037315 
L 161.782621 285.235461 
L 162.868422 288.123186 
L 163.954223 291.46538 
L 165.040024 284.812485 
L 166.125825 287.52642 
L 167.211627 288.034496 
L 168.297428 285.000911 
L 169.383229 283.60673 
L 170.46903 291.101359 
L 171.554831 282.04151 
L 172.640632 290.50781 
L 173.726434 283.674465 
L 174.812235 290.614174 
L 175.898036 291.611353 
L 176.983837 286.981901 
L 178.069638 287.747491 
L 179.155439 282.998209 
L 180.24124 290.711376 
L 181.327042 287.17229 
L 182.412843 290.656265 
L 183.498644 289.141892 
L 184.584445 286.20411 
L 185.670246 284.7928 
L 186.756047 289.579885 
L 187.841849 288.397771 
L 188.92765 292.614482 
L 190.013451 288.032598 
L 192.185053 284.747997 
L 193.270854 283.908915 
L 195.442457 287.39588 
L 196.528258 291.153692 
L 197.614059 291.003517 
L 198.69986 288.850318 
L 199.785661 288.769206 
L 200.871462 286.095225 
L 201.957264 289.8835 
L 203.043065 291.831919 
L 204.128866 288.735301 
L 205.214667 290.553095 
L 206.300468 289.075162 
L 207.386269 291.866485 
L 208.472071 287.019599 
L 209.557872 287.319147 
L 210.643673 289.019308 
L 211.729474 287.379454 
L 212.815275 286.891779 
L 213.901076 286.873072 
L 214.986877 289.876087 
L 216.072679 285.872194 
L 217.15848 286.880585 
L 218.244281 285.24258 
L 219.330082 291.995443 
L 220.415883 292.199869 
L 221.501684 295.488 
L 222.587486 287.494257 
L 223.673287 289.84778 
L 224.759088 294.042132 
L 225.844889 284.346356 
L 226.93069 293.221634 
L 228.016491 285.729037 
L 229.102292 291.591311 
L 230.188094 283.95975 
L 231.273895 288.555154 
L 232.359696 289.226505 
L 233.445497 288.714236 
L 234.531298 291.632386 
L 235.617099 288.214273 
L 236.702901 283.837742 
L 237.788702 287.87701 
L 238.874503 288.957097 
L 239.960304 283.403175 
L 241.046105 286.477049 
L 242.131906 288.222379 
L 243.217708 292.324509 
L 244.303509 284.470033 
L 245.38931 289.292637 
L 246.475111 287.640874 
L 247.560912 284.406526 
L 248.646713 290.351812 
L 249.732514 289.089325 
L 250.818316 284.309055 
L 251.904117 288.41202 
L 252.989918 287.967902 
L 254.075719 288.376095 
L 255.16152 287.062875 
L 256.247321 285.312712 
L 257.333123 284.481062 
L 258.418924 288.841162 
L 259.504725 283.250896 
L 260.590526 293.679885 
L 261.676327 290.237913 
L 262.762128 290.246772 
L 263.847929 289.489167 
L 264.933731 286.193073 
L 266.019532 289.714463 
L 267.105333 290.190112 
L 269.276935 293.844271 
L 270.362736 288.328642 
L 271.448538 287.648814 
L 272.534339 284.279255 
L 273.62014 285.318147 
L 274.705941 287.618746 
L 275.791742 287.357926 
L 276.877543 291.642474 
L 277.963344 288.224688 
L 279.049146 286.507773 
L 280.134947 285.609569 
L 281.220748 286.907424 
L 282.306549 292.072518 
L 283.39235 287.76468 
L 284.478151 290.046622 
L 285.563953 289.323203 
L 286.649754 282.377317 
L 287.735555 289.895131 
L 288.821356 290.136671 
L 289.907157 288.031617 
L 290.992958 292.734366 
L 292.07876 290.225617 
L 293.164561 286.223767 
L 294.250362 287.037419 
L 295.336163 286.16352 
L 296.421964 282.667687 
L 297.507765 287.668198 
L 298.593566 288.889402 
L 299.679368 290.37361 
L 300.765169 288.011919 
L 301.85097 292.081506 
L 302.936771 292.140731 
L 304.022572 288.269796 
L 305.108373 285.82688 
L 306.194175 287.53986 
L 307.279976 290.318828 
L 308.365777 288.278484 
L 309.451578 290.672765 
L 310.537379 286.005726 
L 311.62318 286.836481 
L 312.708981 286.44104 
L 313.794783 289.380686 
L 314.880584 284.783057 
L 315.966385 285.47503 
L 317.052186 287.774024 
L 318.137987 287.498399 
L 319.223788 286.580296 
L 320.30959 289.319431 
L 321.395391 288.925658 
L 322.481192 284.649688 
L 323.566993 289.250932 
L 324.652794 284.145551 
L 325.738595 283.507805 
L 326.824396 283.111633 
L 327.910198 284.155634 
L 328.995999 286.700723 
L 330.0818 287.587853 
L 331.167601 285.210409 
L 332.253402 283.460395 
L 333.339203 293.135057 
L 334.425005 286.386954 
L 335.510806 286.955721 
L 336.596607 286.38209 
L 337.682408 285.936303 
L 338.768209 285.723134 
L 339.85401 287.359548 
L 340.939811 283.704615 
L 342.025613 287.809623 
L 343.111414 283.779852 
L 344.197215 289.477773 
L 345.283016 283.569064 
L 346.368817 287.756624 
L 347.454618 287.518496 
L 348.54042 283.996753 
L 349.626221 288.997249 
L 350.712022 288.849547 
L 351.797823 285.930062 
L 352.883624 286.835475 
L 353.969425 291.599951 
L 356.141028 286.27716 
L 357.226829 290.128036 
L 358.31263 288.903487 
L 359.398431 286.770417 
L 360.484232 285.213176 
L 362.655835 288.367651 
L 363.741636 285.242345 
L 364.827437 290.058863 
L 365.913238 290.789225 
L 366.999039 290.418318 
L 368.08484 292.331482 
L 369.170642 286.98984 
L 370.256443 292.591078 
L 371.342244 293.910949 
L 372.428045 289.448948 
L 373.513846 289.234603 
L 374.599647 292.881631 
L 375.685448 292.188299 
L 376.77125 288.800213 
L 377.857051 282.193604 
L 378.942852 288.989653 
L 380.028653 285.862477 
L 381.114454 287.927184 
L 382.200255 289.027692 
L 383.286057 285.420874 
L 384.371858 287.441438 
L 385.457659 287.352951 
L 386.54346 288.563757 
L 387.629261 292.081476 
L 388.715062 288.581404 
L 389.800863 292.563641 
L 390.886665 289.46789 
L 391.972466 293.098613 
L 393.058267 285.814705 
L 394.144068 286.897745 
L 395.229869 289.739582 
L 396.31567 290.956962 
L 397.401472 289.02837 
L 398.487273 289.357054 
L 398.487273 289.357054 
" style="fill:none;stroke:#008000;stroke-dasharray:9.6,2.4,1.5,2.4;stroke-dashoffset:0;stroke-width:1.5;"/>
   </g>
   <g id="line2d_33">
    <path clip-path="url(#p79cc96855d)" d="M 73.832727 230.384918 
L 74.918528 228.573938 
L 76.00433 225.364659 
L 77.090131 234.44901 
L 78.175932 231.260945 
L 79.261733 224.831337 
L 80.347534 241.586766 
L 81.433335 234.020873 
L 82.519137 220.870287 
L 84.690739 238.619069 
L 85.77654 228.730769 
L 86.862341 221.500152 
L 87.948142 235.81839 
L 89.033943 238.049344 
L 90.119745 233.669575 
L 91.205546 227.768958 
L 92.291347 231.366106 
L 93.377148 227.563029 
L 94.462949 237.040716 
L 95.54875 237.263248 
L 96.634552 221.524829 
L 97.720353 240.072756 
L 98.806154 224.536316 
L 100.977756 220.776894 
L 102.063557 234.894685 
L 103.149358 233.186465 
L 104.23516 229.5455 
L 105.320961 238.806472 
L 106.406762 211.40436 
L 107.492563 229.492626 
L 108.578364 230.454714 
L 109.664165 229.124791 
L 110.749967 224.591905 
L 111.835768 222.836532 
L 112.921569 235.815677 
L 114.00737 228.977083 
L 115.093171 239.555109 
L 116.178972 225.749484 
L 117.264773 229.210625 
L 118.350575 225.502212 
L 119.436376 238.18699 
L 120.522177 236.18437 
L 121.607978 227.209797 
L 122.693779 232.183372 
L 123.77958 219.632148 
L 124.865382 224.250535 
L 125.951183 233.350958 
L 127.036984 225.635847 
L 128.122785 230.666593 
L 129.208586 232.011421 
L 130.294387 232.173599 
L 131.380189 233.743608 
L 132.46599 218.356287 
L 133.551791 236.024157 
L 134.637592 240.699055 
L 135.723393 232.662979 
L 136.809194 226.19808 
L 137.894995 227.249083 
L 138.980797 238.130334 
L 140.066598 235.918425 
L 141.152399 226.868546 
L 142.2382 230.530924 
L 143.324001 234.676866 
L 144.409802 236.627599 
L 146.581405 232.240024 
L 147.667206 227.739693 
L 148.753007 235.586023 
L 149.838808 230.424977 
L 150.924609 232.216733 
L 152.01041 230.214732 
L 153.096212 231.866392 
L 154.182013 239.591624 
L 155.267814 233.458674 
L 156.353615 220.697587 
L 157.439416 231.162788 
L 158.525217 234.224652 
L 159.611019 234.981936 
L 160.69682 228.380795 
L 161.782621 230.379075 
L 162.868422 236.063258 
L 163.954223 224.964776 
L 165.040024 227.6185 
L 166.125825 236.454803 
L 167.211627 237.520086 
L 168.297428 234.207617 
L 169.383229 234.202088 
L 170.46903 219.572096 
L 171.554831 228.981872 
L 172.640632 231.27387 
L 173.726434 237.938828 
L 174.812235 230.130878 
L 175.898036 234.135427 
L 176.983837 233.561279 
L 178.069638 227.640776 
L 179.155439 224.252922 
L 180.24124 225.497774 
L 181.327042 226.334868 
L 182.412843 233.666993 
L 183.498644 237.497991 
L 184.584445 232.83077 
L 185.670246 232.146461 
L 186.756047 239.293746 
L 187.841849 222.528262 
L 188.92765 221.934485 
L 190.013451 232.96898 
L 191.099252 238.387017 
L 192.185053 235.457693 
L 193.270854 242.559951 
L 194.356656 236.3831 
L 195.442457 233.603067 
L 196.528258 216.759808 
L 197.614059 231.725335 
L 198.69986 232.052596 
L 199.785661 229.689478 
L 200.871462 231.113717 
L 201.957264 231.529835 
L 203.043065 225.015257 
L 204.128866 232.158405 
L 205.214667 231.503528 
L 206.300468 228.26007 
L 207.386269 226.58299 
L 208.472071 229.342151 
L 209.557872 234.236263 
L 210.643673 234.430447 
L 211.729474 230.87664 
L 212.815275 235.112222 
L 213.901076 224.139785 
L 214.986877 227.851169 
L 216.072679 237.52494 
L 217.15848 232.86862 
L 218.244281 224.444237 
L 219.330082 227.908994 
L 220.415883 226.256184 
L 221.501684 227.60525 
L 222.587486 236.373832 
L 223.673287 224.803798 
L 224.759088 224.637558 
L 225.844889 234.295184 
L 226.93069 225.054192 
L 228.016491 233.443973 
L 229.102292 220.98175 
L 230.188094 230.939144 
L 231.273895 221.72496 
L 232.359696 224.888341 
L 233.445497 239.609509 
L 234.531298 226.104079 
L 235.617099 227.892267 
L 236.702901 232.492435 
L 237.788702 223.095067 
L 238.874503 232.599629 
L 239.960304 219.858656 
L 241.046105 224.517391 
L 242.131906 234.227583 
L 243.217708 226.873495 
L 244.303509 229.319881 
L 245.38931 221.833355 
L 246.475111 237.30857 
L 247.560912 233.907451 
L 248.646713 222.044969 
L 249.732514 228.777376 
L 250.818316 229.968916 
L 251.904117 237.906878 
L 252.989918 222.167506 
L 254.075719 227.337104 
L 255.16152 233.85451 
L 256.247321 228.89422 
L 257.333123 236.586292 
L 258.418924 221.500782 
L 259.504725 222.328876 
L 260.590526 224.741964 
L 261.676327 228.956145 
L 262.762128 233.979138 
L 263.847929 241.823433 
L 264.933731 235.216315 
L 266.019532 236.35317 
L 267.105333 230.383923 
L 268.191134 221.435852 
L 269.276935 219.996948 
L 270.362736 236.068285 
L 271.448538 225.968767 
L 272.534339 224.538005 
L 273.62014 222.187542 
L 274.705941 232.881619 
L 276.877543 229.302537 
L 277.963344 232.384865 
L 279.049146 238.099637 
L 280.134947 231.853269 
L 281.220748 228.520308 
L 282.306549 230.120918 
L 283.39235 234.560308 
L 284.478151 232.137605 
L 285.563953 239.97534 
L 286.649754 225.700623 
L 287.735555 228.55829 
L 288.821356 236.503212 
L 289.907157 232.008317 
L 290.992958 222.276348 
L 292.07876 232.276965 
L 293.164561 233.354421 
L 294.250362 229.430887 
L 295.336163 235.18667 
L 296.421964 226.890209 
L 297.507765 234.142423 
L 298.593566 235.049725 
L 299.679368 228.998042 
L 300.765169 229.471967 
L 301.85097 235.233238 
L 302.936771 229.121319 
L 304.022572 229.806073 
L 305.108373 241.557586 
L 306.194175 224.359656 
L 307.279976 239.319119 
L 308.365777 227.807007 
L 309.451578 221.44118 
L 311.62318 233.621788 
L 313.794783 239.278515 
L 314.880584 231.552383 
L 315.966385 233.059954 
L 317.052186 233.53407 
L 318.137987 234.998921 
L 319.223788 231.328501 
L 320.30959 230.982292 
L 321.395391 225.81669 
L 323.566993 236.42994 
L 324.652794 237.094136 
L 325.738595 227.639235 
L 326.824396 239.90137 
L 327.910198 223.318483 
L 328.995999 237.781713 
L 330.0818 231.148405 
L 331.167601 229.353029 
L 332.253402 230.717596 
L 333.339203 236.050352 
L 334.425005 237.404836 
L 335.510806 234.568117 
L 336.596607 234.387957 
L 337.682408 225.740891 
L 338.768209 228.660078 
L 339.85401 221.893148 
L 340.939811 231.357403 
L 342.025613 231.146326 
L 343.111414 236.732354 
L 345.283016 226.26246 
L 346.368817 229.994311 
L 347.454618 234.76308 
L 348.54042 235.209144 
L 349.626221 230.233643 
L 350.712022 232.349359 
L 351.797823 226.72193 
L 352.883624 236.730045 
L 353.969425 222.262316 
L 355.055227 229.674 
L 356.141028 224.804105 
L 357.226829 234.742478 
L 358.31263 231.320621 
L 360.484232 229.73834 
L 361.570033 240.100789 
L 362.655835 233.107513 
L 363.741636 235.350107 
L 364.827437 223.11802 
L 366.999039 236.749088 
L 368.08484 228.483293 
L 369.170642 233.676281 
L 370.256443 226.676649 
L 371.342244 226.660454 
L 372.428045 228.096766 
L 373.513846 229.004389 
L 374.599647 226.433454 
L 375.685448 221.816044 
L 376.77125 235.116551 
L 377.857051 231.735755 
L 378.942852 230.524075 
L 380.028653 227.355187 
L 381.114454 223.427708 
L 382.200255 225.679137 
L 383.286057 235.076861 
L 384.371858 239.491806 
L 385.457659 235.957359 
L 386.54346 233.80859 
L 387.629261 214.770401 
L 388.715062 224.196877 
L 389.800863 227.519706 
L 390.886665 235.513127 
L 391.972466 230.940493 
L 393.058267 234.647511 
L 394.144068 239.698726 
L 395.229869 231.673753 
L 396.31567 238.654674 
L 397.401472 220.229588 
L 398.487273 233.419156 
L 398.487273 233.419156 
" style="fill:none;stroke:#008000;stroke-dasharray:9.6,2.4,1.5,2.4;stroke-dashoffset:0;stroke-width:1.5;"/>
   </g>
   <g id="line2d_34">
    <path clip-path="url(#p79cc96855d)" d="M 73.832727 144.601773 
L 74.918528 92.507302 
L 76.00433 128.815569 
L 77.090131 187.750728 
L 78.175932 126.184535 
L 79.261733 154.599701 
L 80.347534 201.432105 
L 81.433335 165.650044 
L 82.519137 69.88041 
L 83.604938 153.284185 
L 84.690739 165.913147 
L 85.77654 134.866947 
L 86.862341 146.969703 
L 87.948142 149.600737 
L 89.033943 185.119695 
L 90.119745 148.022117 
L 91.205546 154.336598 
L 92.291347 132.76212 
L 93.377148 139.339705 
L 94.462949 186.961418 
L 95.54875 161.966596 
L 96.634552 120.659364 
L 97.720353 186.698315 
L 98.806154 91.454888 
L 99.891955 88.560751 
L 100.977756 99.34799 
L 102.063557 153.021081 
L 103.149358 116.975917 
L 104.23516 136.445568 
L 105.320961 202.747622 
L 106.406762 120.133157 
L 107.492563 145.654186 
L 108.578364 106.714885 
L 109.664165 118.554537 
L 110.749967 98.032473 
L 111.835768 96.716956 
L 112.921569 193.539003 
L 114.00737 144.601773 
L 115.093171 198.801071 
L 116.178972 116.44971 
L 117.264773 159.861769 
L 118.350575 148.28522 
L 120.522177 188.276935 
L 122.693779 121.974881 
L 123.77958 80.667649 
L 124.865382 105.136264 
L 125.951183 197.748657 
L 127.036984 76.984202 
L 128.122785 139.339705 
L 129.208586 184.856591 
L 130.294387 157.230735 
L 131.380189 149.86384 
L 132.46599 140.918325 
L 133.551791 179.594523 
L 134.637592 202.484518 
L 135.723393 157.230735 
L 136.809194 116.975917 
L 137.894995 115.397296 
L 138.980797 188.013832 
L 140.066598 185.382798 
L 141.152399 153.284185 
L 142.2382 137.761085 
L 143.324001 165.123837 
L 144.409802 146.443496 
L 145.495604 150.390047 
L 146.581405 150.126944 
L 147.667206 133.814534 
L 148.753007 196.43314 
L 149.838808 150.390047 
L 150.924609 132.499017 
L 152.01041 155.652115 
L 153.096212 108.556608 
L 154.182013 201.695208 
L 155.267814 156.704529 
L 156.353615 75.668685 
L 157.439416 148.022117 
L 158.525217 144.601773 
L 159.611019 101.452817 
L 160.69682 148.28522 
L 161.782621 151.968668 
L 162.868422 191.697279 
L 163.954223 60.408688 
L 165.040024 178.805213 
L 166.125825 153.021081 
L 167.211627 146.7066 
L 168.297428 194.328313 
L 169.383229 156.178322 
L 170.46903 106.714885 
L 171.554831 176.437283 
L 172.640632 148.022117 
L 173.726434 189.592452 
L 174.812235 150.390047 
L 175.898036 146.443496 
L 176.983837 149.337634 
L 178.069638 135.393154 
L 179.155439 130.657293 
L 180.24124 114.344883 
L 181.327042 133.814534 
L 182.412843 132.235913 
L 183.498644 152.494874 
L 184.584445 176.96349 
L 185.670246 166.702457 
L 186.756047 174.069352 
L 187.841849 118.291434 
L 188.92765 80.141442 
L 190.013451 124.342812 
L 191.099252 196.696244 
L 192.185053 167.754871 
L 193.270854 209.851413 
L 194.356656 180.646937 
L 195.442457 136.182464 
L 196.528258 108.293505 
L 197.614059 100.400403 
L 198.69986 186.435212 
L 199.785661 142.496946 
L 200.871462 191.960383 
L 201.957264 130.920396 
L 203.043065 131.446603 
L 204.128866 134.866947 
L 205.214667 130.920396 
L 206.300468 122.237985 
L 207.386269 111.713849 
L 208.472071 160.914183 
L 209.557872 141.707635 
L 211.729474 123.290398 
L 212.815275 188.803142 
L 213.901076 104.083851 
L 216.072679 183.277971 
L 217.15848 145.654186 
L 218.244281 142.496946 
L 219.330082 125.658329 
L 220.415883 95.138335 
L 221.501684 80.930752 
L 222.587486 150.916254 
L 223.673287 85.140407 
L 224.759088 90.402474 
L 225.844889 158.283149 
L 226.93069 103.820747 
L 228.016491 197.748657 
L 229.102292 129.867983 
L 230.188094 175.384869 
L 231.273895 95.664542 
L 232.359696 103.031437 
L 233.445497 171.438318 
L 234.531298 123.290398 
L 235.617099 129.341776 
L 236.702901 166.702457 
L 237.788702 115.6604 
L 238.874503 162.2297 
L 239.960304 132.499017 
L 241.046105 125.132122 
L 242.131906 145.654186 
L 243.217708 78.036615 
L 244.303509 149.07453 
L 245.38931 53.568 
L 246.475111 188.540039 
L 247.560912 193.012796 
L 248.646713 84.6142 
L 250.818316 182.225557 
L 251.904117 193.539003 
L 252.989918 131.1835 
L 254.075719 120.659364 
L 255.16152 175.121766 
L 256.247321 131.97281 
L 257.333123 180.383834 
L 258.418924 88.034544 
L 259.504725 130.131086 
L 260.590526 109.082815 
L 261.676327 120.922468 
L 262.762128 150.390047 
L 263.847929 198.801071 
L 264.933731 145.654186 
L 266.019532 137.761085 
L 267.105333 136.182464 
L 268.191134 131.446603 
L 269.276935 78.299719 
L 270.362736 154.599701 
L 271.448538 91.717991 
L 272.534339 139.076601 
L 273.62014 154.073495 
L 274.705941 140.655222 
L 275.791742 147.759013 
L 276.877543 132.76212 
L 277.963344 137.761085 
L 279.049146 203.536932 
L 280.134947 135.919361 
L 281.220748 169.333491 
L 282.306549 118.02833 
L 283.39235 134.866947 
L 284.478151 133.025224 
L 285.563953 185.645901 
L 286.649754 160.387976 
L 287.735555 99.611093 
L 288.821356 137.234878 
L 289.907157 154.336598 
L 290.992958 90.928681 
L 292.07876 151.442461 
L 293.164561 183.277971 
L 294.250362 139.339705 
L 295.336163 172.753835 
L 296.421964 130.920396 
L 297.507765 167.754871 
L 298.593566 196.43314 
L 299.679368 134.866947 
L 300.765169 115.397296 
L 301.85097 120.133157 
L 302.936771 133.55143 
L 304.022572 120.396261 
L 305.108373 181.436247 
L 306.194175 130.39419 
L 307.279976 142.496946 
L 308.365777 110.135229 
L 309.451578 126.710742 
L 310.537379 110.135229 
L 311.62318 149.86384 
L 312.708981 136.182464 
L 313.794783 173.280042 
L 314.880584 192.749693 
L 315.966385 189.855556 
L 317.052186 138.813498 
L 318.137987 138.287291 
L 319.223788 123.290398 
L 320.30959 149.337634 
L 321.395391 98.032473 
L 322.481192 149.07453 
L 323.566993 147.49591 
L 324.652794 195.380727 
L 325.738595 162.755907 
L 326.824396 208.272793 
L 327.910198 133.288327 
L 328.995999 191.697279 
L 330.0818 125.395225 
L 331.167601 98.821783 
L 332.253402 188.276935 
L 333.339203 138.287291 
L 334.425005 185.645901 
L 335.510806 157.756942 
L 336.596607 136.971774 
L 337.682408 99.874196 
L 338.768209 119.870054 
L 339.85401 111.450746 
L 340.939811 173.280042 
L 342.025613 151.179357 
L 343.111414 199.590381 
L 344.197215 151.442461 
L 345.283016 133.288327 
L 346.368817 127.500052 
L 347.454618 145.91729 
L 348.54042 155.389012 
L 349.626221 127.500052 
L 350.712022 158.809356 
L 351.797823 99.874196 
L 352.883624 184.856591 
L 353.969425 112.766263 
L 355.055227 95.927646 
L 356.141028 139.339705 
L 357.226829 121.974881 
L 358.31263 148.811427 
L 359.398431 119.343847 
L 360.484232 146.180393 
L 361.570033 206.957276 
L 362.655835 121.448674 
L 363.741636 152.231771 
L 364.827437 76.984202 
L 365.913238 125.395225 
L 366.999039 109.345919 
L 368.08484 125.921432 
L 369.170642 153.547288 
L 370.256443 129.604879 
L 371.342244 116.186607 
L 372.428045 93.559715 
L 373.513846 122.764191 
L 374.599647 107.767298 
L 375.685448 123.816605 
L 376.77125 151.705564 
L 377.857051 191.171073 
L 378.942852 120.659364 
L 380.028653 149.86384 
L 381.114454 119.870054 
L 382.200255 118.554537 
L 383.286057 190.907969 
L 384.371858 160.387976 
L 385.457659 197.485554 
L 386.54346 178.279006 
L 387.629261 63.565929 
L 389.800863 134.077637 
L 390.886665 151.179357 
L 391.972466 124.869018 
L 393.058267 175.384869 
L 394.144068 147.759013 
L 395.229869 131.1835 
L 396.31567 132.235913 
L 397.401472 122.237985 
L 398.487273 152.231771 
L 398.487273 152.231771 
" style="fill:none;stroke:#ff0000;stroke-linecap:square;stroke-width:1.5;"/>
   </g>
   <g id="patch_3">
    <path d="M 57.6 307.584 
L 57.6 41.472 
" style="fill:none;stroke:#000000;stroke-linecap:square;stroke-linejoin:miter;stroke-width:0.8;"/>
   </g>
   <g id="patch_4">
    <path d="M 414.72 307.584 
L 414.72 41.472 
" style="fill:none;stroke:#000000;stroke-linecap:square;stroke-linejoin:miter;stroke-width:0.8;"/>
   </g>
   <g id="patch_5">
    <path d="M 57.6 307.584 
L 414.72 307.584 
" style="fill:none;stroke:#000000;stroke-linecap:square;stroke-linejoin:miter;stroke-width:0.8;"/>
   </g>
   <g id="patch_6">
    <path d="M 57.6 41.472 
L 414.72 41.472 
" style="fill:none;stroke:#000000;stroke-linecap:square;stroke-linejoin:miter;stroke-width:0.8;"/>
   </g>
   <g id="text_18">
    <!-- Population's average and best fitness -->
    <defs>
     <path d="M 19.671875 64.796875 
L 19.671875 37.40625 
L 32.078125 37.40625 
Q 38.96875 37.40625 42.71875 40.96875 
Q 46.484375 44.53125 46.484375 51.125 
Q 46.484375 57.671875 42.71875 61.234375 
Q 38.96875 64.796875 32.078125 64.796875 
z
M 9.8125 72.90625 
L 32.078125 72.90625 
Q 44.34375 72.90625 50.609375 67.359375 
Q 56.890625 61.8125 56.890625 51.125 
Q 56.890625 40.328125 50.609375 34.8125 
Q 44.34375 29.296875 32.078125 29.296875 
L 19.671875 29.296875 
L 19.671875 0 
L 9.8125 0 
z
" id="DejaVuSans-50"/>
     <path d="M 18.109375 8.203125 
L 18.109375 -20.796875 
L 9.078125 -20.796875 
L 9.078125 54.6875 
L 18.109375 54.6875 
L 18.109375 46.390625 
Q 20.953125 51.265625 25.265625 53.625 
Q 29.59375 56 35.59375 56 
Q 45.5625 56 51.78125 48.09375 
Q 58.015625 40.1875 58.015625 27.296875 
Q 58.015625 14.40625 51.78125 6.484375 
Q 45.5625 -1.421875 35.59375 -1.421875 
Q 29.59375 -1.421875 25.265625 0.953125 
Q 20.953125 3.328125 18.109375 8.203125 
z
M 48.6875 27.296875 
Q 48.6875 37.203125 44.609375 42.84375 
Q 40.53125 48.484375 33.40625 48.484375 
Q 26.265625 48.484375 22.1875 42.84375 
Q 18.109375 37.203125 18.109375 27.296875 
Q 18.109375 17.390625 22.1875 11.75 
Q 26.265625 6.109375 33.40625 6.109375 
Q 40.53125 6.109375 44.609375 11.75 
Q 48.6875 17.390625 48.6875 27.296875 
z
" id="DejaVuSans-70"/>
     <path d="M 8.5 21.578125 
L 8.5 54.6875 
L 17.484375 54.6875 
L 17.484375 21.921875 
Q 17.484375 14.15625 20.5 10.265625 
Q 23.53125 6.390625 29.59375 6.390625 
Q 36.859375 6.390625 41.078125 11.03125 
Q 45.3125 15.671875 45.3125 23.6875 
L 45.3125 54.6875 
L 54.296875 54.6875 
L 54.296875 0 
L 45.3125 0 
L 45.3125 8.40625 
Q 42.046875 3.421875 37.71875 1 
Q 33.40625 -1.421875 27.6875 -1.421875 
Q 18.265625 -1.421875 13.375 4.4375 
Q 8.5 10.296875 8.5 21.578125 
z
M 31.109375 56 
z
" id="DejaVuSans-75"/>
     <path d="M 9.421875 75.984375 
L 18.40625 75.984375 
L 18.40625 0 
L 9.421875 0 
z
" id="DejaVuSans-6c"/>
     <path d="M 17.921875 72.90625 
L 17.921875 45.796875 
L 9.625 45.796875 
L 9.625 72.90625 
z
" id="DejaVuSans-27"/>
     <path id="DejaVuSans-20"/>
     <path d="M 2.984375 54.6875 
L 12.5 54.6875 
L 29.59375 8.796875 
L 46.6875 54.6875 
L 56.203125 54.6875 
L 35.6875 0 
L 23.484375 0 
z
" id="DejaVuSans-76"/>
     <path d="M 45.40625 27.984375 
Q 45.40625 37.75 41.375 43.109375 
Q 37.359375 48.484375 30.078125 48.484375 
Q 22.859375 48.484375 18.828125 43.109375 
Q 14.796875 37.75 14.796875 27.984375 
Q 14.796875 18.265625 18.828125 12.890625 
Q 22.859375 7.515625 30.078125 7.515625 
Q 37.359375 7.515625 41.375 12.890625 
Q 45.40625 18.265625 45.40625 27.984375 
z
M 54.390625 6.78125 
Q 54.390625 -7.171875 48.1875 -13.984375 
Q 42 -20.796875 29.203125 -20.796875 
Q 24.46875 -20.796875 20.265625 -20.09375 
Q 16.0625 -19.390625 12.109375 -17.921875 
L 12.109375 -9.1875 
Q 16.0625 -11.328125 19.921875 -12.34375 
Q 23.78125 -13.375 27.78125 -13.375 
Q 36.625 -13.375 41.015625 -8.765625 
Q 45.40625 -4.15625 45.40625 5.171875 
L 45.40625 9.625 
Q 42.625 4.78125 38.28125 2.390625 
Q 33.9375 0 27.875 0 
Q 17.828125 0 11.671875 7.65625 
Q 5.515625 15.328125 5.515625 27.984375 
Q 5.515625 40.671875 11.671875 48.328125 
Q 17.828125 56 27.875 56 
Q 33.9375 56 38.28125 53.609375 
Q 42.625 51.21875 45.40625 46.390625 
L 45.40625 54.6875 
L 54.390625 54.6875 
z
" id="DejaVuSans-67"/>
     <path d="M 45.40625 46.390625 
L 45.40625 75.984375 
L 54.390625 75.984375 
L 54.390625 0 
L 45.40625 0 
L 45.40625 8.203125 
Q 42.578125 3.328125 38.25 0.953125 
Q 33.9375 -1.421875 27.875 -1.421875 
Q 17.96875 -1.421875 11.734375 6.484375 
Q 5.515625 14.40625 5.515625 27.296875 
Q 5.515625 40.1875 11.734375 48.09375 
Q 17.96875 56 27.875 56 
Q 33.9375 56 38.25 53.625 
Q 42.578125 51.265625 45.40625 46.390625 
z
M 14.796875 27.296875 
Q 14.796875 17.390625 18.875 11.75 
Q 22.953125 6.109375 30.078125 6.109375 
Q 37.203125 6.109375 41.296875 11.75 
Q 45.40625 17.390625 45.40625 27.296875 
Q 45.40625 37.203125 41.296875 42.84375 
Q 37.203125 48.484375 30.078125 48.484375 
Q 22.953125 48.484375 18.875 42.84375 
Q 14.796875 37.203125 14.796875 27.296875 
z
" id="DejaVuSans-64"/>
     <path d="M 48.6875 27.296875 
Q 48.6875 37.203125 44.609375 42.84375 
Q 40.53125 48.484375 33.40625 48.484375 
Q 26.265625 48.484375 22.1875 42.84375 
Q 18.109375 37.203125 18.109375 27.296875 
Q 18.109375 17.390625 22.1875 11.75 
Q 26.265625 6.109375 33.40625 6.109375 
Q 40.53125 6.109375 44.609375 11.75 
Q 48.6875 17.390625 48.6875 27.296875 
z
M 18.109375 46.390625 
Q 20.953125 51.265625 25.265625 53.625 
Q 29.59375 56 35.59375 56 
Q 45.5625 56 51.78125 48.09375 
Q 58.015625 40.1875 58.015625 27.296875 
Q 58.015625 14.40625 51.78125 6.484375 
Q 45.5625 -1.421875 35.59375 -1.421875 
Q 29.59375 -1.421875 25.265625 0.953125 
Q 20.953125 3.328125 18.109375 8.203125 
L 18.109375 0 
L 9.078125 0 
L 9.078125 75.984375 
L 18.109375 75.984375 
z
" id="DejaVuSans-62"/>
     <path d="M 37.109375 75.984375 
L 37.109375 68.5 
L 28.515625 68.5 
Q 23.6875 68.5 21.796875 66.546875 
Q 19.921875 64.59375 19.921875 59.515625 
L 19.921875 54.6875 
L 34.71875 54.6875 
L 34.71875 47.703125 
L 19.921875 47.703125 
L 19.921875 0 
L 10.890625 0 
L 10.890625 47.703125 
L 2.296875 47.703125 
L 2.296875 54.6875 
L 10.890625 54.6875 
L 10.890625 58.5 
Q 10.890625 67.625 15.140625 71.796875 
Q 19.390625 75.984375 28.609375 75.984375 
z
" id="DejaVuSans-66"/>
    </defs>
    <g transform="translate(123.315 35.472)scale(0.12 -0.12)">
     <use xlink:href="#DejaVuSans-50"/>
     <use x="60.255859" xlink:href="#DejaVuSans-6f"/>
     <use x="121.4375" xlink:href="#DejaVuSans-70"/>
     <use x="184.914062" xlink:href="#DejaVuSans-75"/>
     <use x="248.292969" xlink:href="#DejaVuSans-6c"/>
     <use x="276.076172" xlink:href="#DejaVuSans-61"/>
     <use x="337.355469" xlink:href="#DejaVuSans-74"/>
     <use x="376.564453" xlink:href="#DejaVuSans-69"/>
     <use x="404.347656" xlink:href="#DejaVuSans-6f"/>
     <use x="465.529297" xlink:href="#DejaVuSans-6e"/>
     <use x="528.908203" xlink:href="#DejaVuSans-27"/>
     <use x="556.398438" xlink:href="#DejaVuSans-73"/>
     <use x="608.498047" xlink:href="#DejaVuSans-20"/>
     <use x="640.285156" xlink:href="#DejaVuSans-61"/>
     <use x="701.564453" xlink:href="#DejaVuSans-76"/>
     <use x="760.744141" xlink:href="#DejaVuSans-65"/>
     <use x="822.267578" xlink:href="#DejaVuSans-72"/>
     <use x="863.380859" xlink:href="#DejaVuSans-61"/>
     <use x="924.660156" xlink:href="#DejaVuSans-67"/>
     <use x="988.136719" xlink:href="#DejaVuSans-65"/>
     <use x="1049.660156" xlink:href="#DejaVuSans-20"/>
     <use x="1081.447266" xlink:href="#DejaVuSans-61"/>
     <use x="1142.726562" xlink:href="#DejaVuSans-6e"/>
     <use x="1206.105469" xlink:href="#DejaVuSans-64"/>
     <use x="1269.582031" xlink:href="#DejaVuSans-20"/>
     <use x="1301.369141" xlink:href="#DejaVuSans-62"/>
     <use x="1364.845703" xlink:href="#DejaVuSans-65"/>
     <use x="1426.369141" xlink:href="#DejaVuSans-73"/>
     <use x="1478.46875" xlink:href="#DejaVuSans-74"/>
     <use x="1517.677734" xlink:href="#DejaVuSans-20"/>
     <use x="1549.464844" xlink:href="#DejaVuSans-66"/>
     <use x="1584.669922" xlink:href="#DejaVuSans-69"/>
     <use x="1612.453125" xlink:href="#DejaVuSans-74"/>
     <use x="1651.662109" xlink:href="#DejaVuSans-6e"/>
     <use x="1715.041016" xlink:href="#DejaVuSans-65"/>
     <use x="1776.564453" xlink:href="#DejaVuSans-73"/>
     <use x="1828.664062" xlink:href="#DejaVuSans-73"/>
    </g>
   </g>
   <g id="legend_1">
    <g id="patch_7">
     <path d="M 334.779375 108.1845 
L 407.72 108.1845 
Q 409.72 108.1845 409.72 106.1845 
L 409.72 48.472 
Q 409.72 46.472 407.72 46.472 
L 334.779375 46.472 
Q 332.779375 46.472 332.779375 48.472 
L 332.779375 106.1845 
Q 332.779375 108.1845 334.779375 108.1845 
z
" style="fill:#ffffff;opacity:0.8;stroke:#cccccc;stroke-linejoin:miter;"/>
    </g>
    <g id="line2d_35">
     <path d="M 336.779375 54.570438 
L 356.779375 54.570438 
" style="fill:none;stroke:#0000ff;stroke-linecap:square;stroke-width:1.5;"/>
    </g>
    <g id="line2d_36"/>
    <g id="text_19">
     <!-- average -->
     <g transform="translate(364.779375 58.070438)scale(0.1 -0.1)">
      <use xlink:href="#DejaVuSans-61"/>
      <use x="61.279297" xlink:href="#DejaVuSans-76"/>
      <use x="120.458984" xlink:href="#DejaVuSans-65"/>
      <use x="181.982422" xlink:href="#DejaVuSans-72"/>
      <use x="223.095703" xlink:href="#DejaVuSans-61"/>
      <use x="284.375" xlink:href="#DejaVuSans-67"/>
      <use x="347.851562" xlink:href="#DejaVuSans-65"/>
     </g>
    </g>
    <g id="line2d_37">
     <path d="M 336.779375 69.248563 
L 356.779375 69.248563 
" style="fill:none;stroke:#008000;stroke-dasharray:9.6,2.4,1.5,2.4;stroke-dashoffset:0;stroke-width:1.5;"/>
    </g>
    <g id="line2d_38"/>
    <g id="text_20">
     <!-- -1 sd -->
     <defs>
      <path d="M 4.890625 31.390625 
L 31.203125 31.390625 
L 31.203125 23.390625 
L 4.890625 23.390625 
z
" id="DejaVuSans-2d"/>
     </defs>
     <g transform="translate(364.779375 72.748563)scale(0.1 -0.1)">
      <use xlink:href="#DejaVuSans-2d"/>
      <use x="36.083984" xlink:href="#DejaVuSans-31"/>
      <use x="99.707031" xlink:href="#DejaVuSans-20"/>
      <use x="131.494141" xlink:href="#DejaVuSans-73"/>
      <use x="183.59375" xlink:href="#DejaVuSans-64"/>
     </g>
    </g>
    <g id="line2d_39">
     <path d="M 336.779375 83.926688 
L 356.779375 83.926688 
" style="fill:none;stroke:#008000;stroke-dasharray:9.6,2.4,1.5,2.4;stroke-dashoffset:0;stroke-width:1.5;"/>
    </g>
    <g id="line2d_40"/>
    <g id="text_21">
     <!-- +1 sd -->
     <defs>
      <path d="M 46 62.703125 
L 46 35.5 
L 73.1875 35.5 
L 73.1875 27.203125 
L 46 27.203125 
L 46 0 
L 37.796875 0 
L 37.796875 27.203125 
L 10.59375 27.203125 
L 10.59375 35.5 
L 37.796875 35.5 
L 37.796875 62.703125 
z
" id="DejaVuSans-2b"/>
     </defs>
     <g transform="translate(364.779375 87.426688)scale(0.1 -0.1)">
      <use xlink:href="#DejaVuSans-2b"/>
      <use x="83.789062" xlink:href="#DejaVuSans-31"/>
      <use x="147.412109" xlink:href="#DejaVuSans-20"/>
      <use x="179.199219" xlink:href="#DejaVuSans-73"/>
      <use x="231.298828" xlink:href="#DejaVuSans-64"/>
     </g>
    </g>
    <g id="line2d_41">
     <path d="M 336.779375 98.604813 
L 356.779375 98.604813 
" style="fill:none;stroke:#ff0000;stroke-linecap:square;stroke-width:1.5;"/>
    </g>
    <g id="line2d_42"/>
    <g id="text_22">
     <!-- best -->
     <g transform="translate(364.779375 102.104813)scale(0.1 -0.1)">
      <use xlink:href="#DejaVuSans-62"/>
      <use x="63.476562" xlink:href="#DejaVuSans-65"/>
      <use x="125" xlink:href="#DejaVuSans-73"/>
      <use x="177.099609" xlink:href="#DejaVuSans-74"/>
     </g>
    </g>
   </g>
  </g>
 </g>
 <defs>
  <clipPath id="p79cc96855d">
   <rect height="266.112" width="357.12" x="57.6" y="41.472"/>
  </clipPath>
 </defs>
</svg>
