<?xml version="1.0" encoding="UTF-8" standalone="no"?>
<!DOCTYPE svg PUBLIC "-//W3C//DTD SVG 1.1//EN"
 "http://www.w3.org/Graphics/SVG/1.1/DTD/svg11.dtd">
<!-- Generated by graphviz version 2.38.0 (20140413.2041)
 -->
<!-- Title: %3 Pages: 1 -->
<svg width="875pt" height="394pt"
 viewBox="0.00 0.00 875.30 393.83" xmlns="http://www.w3.org/2000/svg" xmlns:xlink="http://www.w3.org/1999/xlink">
<g id="graph0" class="graph" transform="scale(1 1) rotate(0) translate(4 389.831)">
<title>%3</title>
<polygon fill="white" stroke="none" points="-4,4 -4,-389.831 871.297,-389.831 871.297,4 -4,4"/>
<!-- 1,1 -->
<g id="node1" class="node"><title>1,1</title>
<polygon fill="lightgray" stroke="black" points="45.3769,-201.915 17.3769,-201.915 17.3769,-183.915 45.3769,-183.915 45.3769,-201.915"/>
<text text-anchor="middle" x="31.3769" y="-190.715" font-family="Times,serif" font-size="9.00">1,1</text>
</g>
<!-- 396 -->
<g id="node21" class="node"><title>396</title>
<ellipse fill="white" stroke="black" cx="88.3769" cy="-108.125" rx="21.4286" ry="21.4286"/>
<text text-anchor="middle" x="88.3769" y="-105.925" font-family="Times,serif" font-size="9.00">396</text>
</g>
<!-- 1,1&#45;&gt;396 -->
<g id="edge9" class="edge"><title>1,1&#45;&gt;396</title>
<path fill="none" stroke="red" stroke-width="0.132834" d="M37.0506,-183.674C44.8679,-172.32 59.2973,-151.362 70.8703,-134.552"/>
<polygon fill="red" stroke="red" stroke-width="0.132834" points="73.8238,-136.435 76.6118,-126.213 68.0581,-132.465 73.8238,-136.435"/>
</g>
<!-- 1,2 -->
<g id="node2" class="node"><title>1,2</title>
<polygon fill="lightgray" stroke="black" points="181.377,-117.125 153.377,-117.125 153.377,-99.1249 181.377,-99.1249 181.377,-117.125"/>
<text text-anchor="middle" x="167.377" y="-105.925" font-family="Times,serif" font-size="9.00">1,2</text>
</g>
<!-- Right -->
<g id="node17" class="node"><title>Right</title>
<ellipse fill="lightblue" stroke="black" cx="190.377" cy="-25.4558" rx="25.4118" ry="25.4118"/>
<text text-anchor="middle" x="190.377" y="-23.2558" font-family="Times,serif" font-size="9.00">Right</text>
</g>
<!-- 1,2&#45;&gt;Right -->
<g id="edge6" class="edge"><title>1,2&#45;&gt;Right</title>
<path fill="none" stroke="red" stroke-width="1.11301" d="M169.666,-99.0951C172.288,-89.8992 176.753,-74.238 180.868,-59.807"/>
<polygon fill="red" stroke="red" stroke-width="1.11301" points="184.257,-60.6838 183.633,-50.1074 177.526,-58.7644 184.257,-60.6838"/>
</g>
<!-- 1,3 -->
<g id="node3" class="node"><title>1,3</title>
<polygon fill="lightgray" stroke="black" points="285.377,-372.91 257.377,-372.91 257.377,-354.91 285.377,-354.91 285.377,-372.91"/>
<text text-anchor="middle" x="271.377" y="-361.71" font-family="Times,serif" font-size="9.00">1,3</text>
</g>
<!-- 1,4 -->
<g id="node4" class="node"><title>1,4</title>
<polygon fill="lightgray" stroke="black" points="331.377,-372.91 303.377,-372.91 303.377,-354.91 331.377,-354.91 331.377,-372.91"/>
<text text-anchor="middle" x="317.377" y="-361.71" font-family="Times,serif" font-size="9.00">1,4</text>
</g>
<!-- 2,1 -->
<g id="node5" class="node"><title>2,1</title>
<polygon fill="lightgray" stroke="black" points="227.377,-117.125 199.377,-117.125 199.377,-99.1249 227.377,-99.1249 227.377,-117.125"/>
<text text-anchor="middle" x="213.377" y="-105.925" font-family="Times,serif" font-size="9.00">2,1</text>
</g>
<!-- 2,1&#45;&gt;Right -->
<g id="edge1" class="edge"><title>2,1&#45;&gt;Right</title>
<path fill="none" stroke="green" stroke-width="1.5378" d="M211.087,-99.0951C208.466,-89.8992 204,-74.238 199.886,-59.807"/>
<polygon fill="green" stroke="green" stroke-width="1.5378" points="203.228,-58.7644 197.12,-50.1074 196.496,-60.6838 203.228,-58.7644"/>
</g>
<!-- 2,2 -->
<g id="node6" class="node"><title>2,2</title>
<polygon fill="lightgray" stroke="black" points="377.377,-372.91 349.377,-372.91 349.377,-354.91 377.377,-354.91 377.377,-372.91"/>
<text text-anchor="middle" x="363.377" y="-361.71" font-family="Times,serif" font-size="9.00">2,2</text>
</g>
<!-- 2,3 -->
<g id="node7" class="node"><title>2,3</title>
<polygon fill="lightgray" stroke="black" points="423.377,-372.91 395.377,-372.91 395.377,-354.91 423.377,-354.91 423.377,-372.91"/>
<text text-anchor="middle" x="409.377" y="-361.71" font-family="Times,serif" font-size="9.00">2,3</text>
</g>
<!-- Up -->
<g id="node20" class="node"><title>Up</title>
<ellipse fill="lightblue" stroke="black" cx="436.377" cy="-281.241" rx="19.6" ry="19.6"/>
<text text-anchor="middle" x="436.377" y="-279.041" font-family="Times,serif" font-size="9.00">Up</text>
</g>
<!-- 2,3&#45;&gt;Up -->
<g id="edge10" class="edge"><title>2,3&#45;&gt;Up</title>
<path fill="none" stroke="red" stroke-width="0.290645" stroke-dasharray="1,5" d="M412.064,-354.88C415.544,-344.485 421.789,-325.826 427.078,-310.023"/>
<polygon fill="red" stroke="red" stroke-width="0.290645" points="430.522,-310.76 430.377,-300.166 423.884,-308.538 430.522,-310.76"/>
</g>
<!-- 2,4 -->
<g id="node8" class="node"><title>2,4</title>
<polygon fill="lightgray" stroke="black" points="529.377,-372.91 501.377,-372.91 501.377,-354.91 529.377,-354.91 529.377,-372.91"/>
<text text-anchor="middle" x="515.377" y="-361.71" font-family="Times,serif" font-size="9.00">2,4</text>
</g>
<!-- 3,1 -->
<g id="node9" class="node"><title>3,1</title>
<polygon fill="lightgray" stroke="black" points="169.377,-290.241 141.377,-290.241 141.377,-272.241 169.377,-272.241 169.377,-290.241"/>
<text text-anchor="middle" x="155.377" y="-279.041" font-family="Times,serif" font-size="9.00">3,1</text>
</g>
<!-- 1404 -->
<g id="node25" class="node"><title>1404</title>
<ellipse fill="white" stroke="black" cx="155.377" cy="-192.915" rx="25" ry="25"/>
<text text-anchor="middle" x="155.377" y="-190.715" font-family="Times,serif" font-size="9.00">1404</text>
</g>
<!-- 3,1&#45;&gt;1404 -->
<g id="edge8" class="edge"><title>3,1&#45;&gt;1404</title>
<path fill="none" stroke="red" stroke-width="0.224425" d="M155.377,-271.964C155.377,-261.856 155.377,-244.123 155.377,-228.112"/>
<polygon fill="red" stroke="red" stroke-width="0.224425" points="158.877,-227.937 155.377,-217.937 151.877,-227.937 158.877,-227.937"/>
</g>
<!-- 3,2 -->
<g id="node10" class="node"><title>3,2</title>
<polygon fill="lightgray" stroke="black" points="575.377,-372.91 547.377,-372.91 547.377,-354.91 575.377,-354.91 575.377,-372.91"/>
<text text-anchor="middle" x="561.377" y="-361.71" font-family="Times,serif" font-size="9.00">3,2</text>
</g>
<!-- 3,3 -->
<g id="node11" class="node"><title>3,3</title>
<polygon fill="lightgray" stroke="black" points="621.377,-372.91 593.377,-372.91 593.377,-354.91 621.377,-354.91 621.377,-372.91"/>
<text text-anchor="middle" x="607.377" y="-361.71" font-family="Times,serif" font-size="9.00">3,3</text>
</g>
<!-- 3,4 -->
<g id="node12" class="node"><title>3,4</title>
<polygon fill="lightgray" stroke="black" points="667.377,-372.91 639.377,-372.91 639.377,-354.91 667.377,-354.91 667.377,-372.91"/>
<text text-anchor="middle" x="653.377" y="-361.71" font-family="Times,serif" font-size="9.00">3,4</text>
</g>
<!-- 4,1 -->
<g id="node13" class="node"><title>4,1</title>
<polygon fill="lightgray" stroke="black" points="713.377,-372.91 685.377,-372.91 685.377,-354.91 713.377,-354.91 713.377,-372.91"/>
<text text-anchor="middle" x="699.377" y="-361.71" font-family="Times,serif" font-size="9.00">4,1</text>
</g>
<!-- 4,2 -->
<g id="node14" class="node"><title>4,2</title>
<polygon fill="lightgray" stroke="black" points="239.377,-372.91 211.377,-372.91 211.377,-354.91 239.377,-354.91 239.377,-372.91"/>
<text text-anchor="middle" x="225.377" y="-361.71" font-family="Times,serif" font-size="9.00">4,2</text>
</g>
<!-- 4,2&#45;&gt;Right -->
<g id="edge2" class="edge"><title>4,2&#45;&gt;Right</title>
<path fill="none" stroke="green" stroke-width="0.695819" d="M230.296,-354.762C236.538,-344.004 247.123,-324.282 252.377,-305.99 269.676,-245.755 272.365,-227.207 262.377,-165.338 256.524,-129.086 253.506,-119.394 236.377,-86.9117 230.129,-75.0635 221.598,-63.1009 213.58,-52.9796"/>
<polygon fill="green" stroke="green" stroke-width="0.695819" points="216.062,-50.4856 207.026,-44.9537 210.64,-54.9131 216.062,-50.4856"/>
</g>
<!-- 1187 -->
<g id="node23" class="node"><title>1187</title>
<ellipse fill="white" stroke="black" cx="88.3769" cy="-281.241" rx="25" ry="25"/>
<text text-anchor="middle" x="88.3769" y="-279.041" font-family="Times,serif" font-size="9.00">1187</text>
</g>
<!-- 4,2&#45;&gt;1187 -->
<g id="edge5" class="edge"><title>4,2&#45;&gt;1187</title>
<path fill="none" stroke="red" stroke-width="0.578009" d="M211.74,-354.88C190.121,-342.15 147.46,-317.031 118.428,-299.936"/>
<polygon fill="red" stroke="red" stroke-width="0.578009" points="119.918,-296.752 109.525,-294.694 116.366,-302.784 119.918,-296.752"/>
</g>
<!-- 30 -->
<g id="node26" class="node"><title>30</title>
<ellipse fill="white" stroke="black" cx="225.377" cy="-281.241" rx="18.2703" ry="18.2703"/>
<text text-anchor="middle" x="225.377" y="-279.041" font-family="Times,serif" font-size="9.00">30</text>
</g>
<!-- 4,2&#45;&gt;30 -->
<g id="edge4" class="edge"><title>4,2&#45;&gt;30</title>
<path fill="none" stroke="green" stroke-width="0.200918" d="M225.377,-354.88C225.377,-344.519 225.377,-325.949 225.377,-310.179"/>
<polygon fill="green" stroke="green" stroke-width="0.200918" points="228.877,-309.845 225.377,-299.845 221.877,-309.845 228.877,-309.845"/>
</g>
<!-- 4,3 -->
<g id="node15" class="node"><title>4,3</title>
<polygon fill="lightgray" stroke="black" points="759.377,-372.91 731.377,-372.91 731.377,-354.91 759.377,-354.91 759.377,-372.91"/>
<text text-anchor="middle" x="745.377" y="-361.71" font-family="Times,serif" font-size="9.00">4,3</text>
</g>
<!-- 4,4 -->
<g id="node16" class="node"><title>4,4</title>
<polygon fill="lightgray" stroke="black" points="805.377,-372.91 777.377,-372.91 777.377,-354.91 805.377,-354.91 805.377,-372.91"/>
<text text-anchor="middle" x="791.377" y="-361.71" font-family="Times,serif" font-size="9.00">4,4</text>
</g>
<!-- Down -->
<g id="node18" class="node"><title>Down</title>
<ellipse fill="lightblue" stroke="black" cx="225.377" cy="-192.915" rx="27.6545" ry="27.6545"/>
<text text-anchor="middle" x="225.377" y="-190.715" font-family="Times,serif" font-size="9.00">Down</text>
</g>
<!-- Left -->
<g id="node19" class="node"><title>Left</title>
<ellipse fill="lightblue" stroke="black" cx="845.377" cy="-363.91" rx="21.8409" ry="21.8409"/>
<text text-anchor="middle" x="845.377" y="-361.71" font-family="Times,serif" font-size="9.00">Left</text>
</g>
<!-- 396&#45;&gt;Right -->
<g id="edge7" class="edge"><title>396&#45;&gt;Right</title>
<path fill="none" stroke="red" stroke-width="0.18102" d="M104.765,-94.164C120.463,-81.7491 144.444,-62.7832 163.036,-48.0793"/>
<polygon fill="red" stroke="red" stroke-width="0.18102" points="165.219,-50.815 170.891,-41.8666 160.877,-45.3246 165.219,-50.815"/>
</g>
<!-- 7345 -->
<g id="node22" class="node"><title>7345</title>
<ellipse fill="white" stroke="black" cx="88.3769" cy="-192.915" rx="25" ry="25"/>
<text text-anchor="middle" x="88.3769" y="-190.715" font-family="Times,serif" font-size="9.00">7345</text>
</g>
<!-- 7345&#45;&gt;396 -->
<g id="edge11" class="edge"><title>7345&#45;&gt;396</title>
<path fill="none" stroke="green" stroke-width="0.423766" d="M88.3769,-167.969C88.3769,-159.086 88.3769,-148.892 88.3769,-139.51"/>
<polygon fill="green" stroke="green" stroke-width="0.423766" points="91.877,-139.378 88.3769,-129.378 84.877,-139.378 91.877,-139.378"/>
</g>
<!-- 1187&#45;&gt;396 -->
<g id="edge12" class="edge"><title>1187&#45;&gt;396</title>
<path fill="none" stroke="green" stroke-width="0.905564" stroke-dasharray="1,5" d="M65.7185,-270.523C46.5161,-260.914 20.262,-244.203 8.37686,-220.492 -2.60777,-198.578 -2.92409,-187.091 8.37686,-165.338 19.106,-144.686 41.2885,-130.032 59.5792,-120.874"/>
<polygon fill="green" stroke="green" stroke-width="0.905564" points="61.1465,-124.005 68.7081,-116.584 58.169,-117.67 61.1465,-124.005"/>
</g>
<!-- 1187&#45;&gt;7345 -->
<g id="edge13" class="edge"><title>1187&#45;&gt;7345</title>
<path fill="none" stroke="green" stroke-width="0.442394" d="M88.3769,-256.195C88.3769,-247.495 88.3769,-237.498 88.3769,-228.095"/>
<polygon fill="green" stroke="green" stroke-width="0.442394" points="91.877,-227.833 88.3769,-217.833 84.877,-227.833 91.877,-227.833"/>
</g>
<!-- 411 -->
<g id="node24" class="node"><title>411</title>
<ellipse fill="white" stroke="black" cx="462.377" cy="-363.91" rx="21.4286" ry="21.4286"/>
<text text-anchor="middle" x="462.377" y="-361.71" font-family="Times,serif" font-size="9.00">411</text>
</g>
<!-- 411&#45;&gt;Up -->
<g id="edge14" class="edge"><title>411&#45;&gt;Up</title>
<path fill="none" stroke="green" stroke-width="0.344607" d="M456.083,-343.382C452.838,-333.315 448.826,-320.866 445.27,-309.834"/>
<polygon fill="green" stroke="green" stroke-width="0.344607" points="448.567,-308.654 442.168,-300.21 441.905,-310.802 448.567,-308.654"/>
</g>
<!-- 1404&#45;&gt;396 -->
<g id="edge15" class="edge"><title>1404&#45;&gt;396</title>
<path fill="none" stroke="green" stroke-width="0.495736" d="M140.174,-173.129C130.545,-161.232 118.009,-145.74 107.681,-132.978"/>
<polygon fill="green" stroke="green" stroke-width="0.495736" points="110.277,-130.623 101.265,-125.051 104.836,-135.026 110.277,-130.623"/>
</g>
<!-- 30&#45;&gt;Down -->
<g id="edge3" class="edge"><title>30&#45;&gt;Down</title>
<path fill="none" stroke="red" stroke-width="0.174594" d="M225.377,-262.772C225.377,-253.493 225.377,-241.723 225.377,-230.55"/>
<polygon fill="red" stroke="red" stroke-width="0.174594" points="228.877,-230.546 225.377,-220.546 221.877,-230.546 228.877,-230.546"/>
</g>
</g>
</svg>
