<?xml version="1.0" encoding="UTF-8" standalone="no"?>
<!DOCTYPE svg PUBLIC "-//W3C//DTD SVG 1.1//EN"
 "http://www.w3.org/Graphics/SVG/1.1/DTD/svg11.dtd">
<!-- Generated by graphviz version 2.38.0 (20140413.2041)
 -->
<!-- Title: %3 Pages: 1 -->
<svg width="827pt" height="226pt"
 viewBox="0.00 0.00 826.92 225.66" xmlns="http://www.w3.org/2000/svg" xmlns:xlink="http://www.w3.org/1999/xlink">
<g id="graph0" class="graph" transform="scale(1 1) rotate(0) translate(4 221.664)">
<title>%3</title>
<polygon fill="white" stroke="none" points="-4,4 -4,-221.664 822.92,-221.664 822.92,4 -4,4"/>
<!-- 1,1 -->
<g id="node1" class="node"><title>1,1</title>
<polygon fill="lightgray" stroke="black" points="28,-199.087 0,-199.087 0,-181.087 28,-181.087 28,-199.087"/>
<text text-anchor="middle" x="14" y="-187.887" font-family="Times,serif" font-size="9.00">1,1</text>
</g>
<!-- 1,2 -->
<g id="node2" class="node"><title>1,2</title>
<polygon fill="lightgray" stroke="black" points="74,-199.087 46,-199.087 46,-181.087 74,-181.087 74,-199.087"/>
<text text-anchor="middle" x="60" y="-187.887" font-family="Times,serif" font-size="9.00">1,2</text>
</g>
<!-- 1,3 -->
<g id="node3" class="node"><title>1,3</title>
<polygon fill="lightgray" stroke="black" points="120,-199.087 92,-199.087 92,-181.087 120,-181.087 120,-199.087"/>
<text text-anchor="middle" x="106" y="-187.887" font-family="Times,serif" font-size="9.00">1,3</text>
</g>
<!-- 1,4 -->
<g id="node4" class="node"><title>1,4</title>
<polygon fill="lightgray" stroke="black" points="166,-199.087 138,-199.087 138,-181.087 166,-181.087 166,-199.087"/>
<text text-anchor="middle" x="152" y="-187.887" font-family="Times,serif" font-size="9.00">1,4</text>
</g>
<!-- 2,1 -->
<g id="node5" class="node"><title>2,1</title>
<polygon fill="lightgray" stroke="black" points="212,-199.087 184,-199.087 184,-181.087 212,-181.087 212,-199.087"/>
<text text-anchor="middle" x="198" y="-187.887" font-family="Times,serif" font-size="9.00">2,1</text>
</g>
<!-- 2,2 -->
<g id="node6" class="node"><title>2,2</title>
<polygon fill="lightgray" stroke="black" points="258,-199.087 230,-199.087 230,-181.087 258,-181.087 258,-199.087"/>
<text text-anchor="middle" x="244" y="-187.887" font-family="Times,serif" font-size="9.00">2,2</text>
</g>
<!-- 2,3 -->
<g id="node7" class="node"><title>2,3</title>
<polygon fill="lightgray" stroke="black" points="304,-199.087 276,-199.087 276,-181.087 304,-181.087 304,-199.087"/>
<text text-anchor="middle" x="290" y="-187.887" font-family="Times,serif" font-size="9.00">2,3</text>
</g>
<!-- Right -->
<g id="node17" class="node"><title>Right</title>
<ellipse fill="lightblue" stroke="black" cx="290" cy="-101.054" rx="25.4118" ry="25.4118"/>
<text text-anchor="middle" x="290" y="-98.8538" font-family="Times,serif" font-size="9.00">Right</text>
</g>
<!-- 2,3&#45;&gt;Right -->
<g id="edge2" class="edge"><title>2,3&#45;&gt;Right</title>
<path fill="none" stroke="green" stroke-width="0.258224" d="M290,-181.055C290,-171.044 290,-153.281 290,-137.131"/>
<polygon fill="green" stroke="green" stroke-width="0.258224" points="293.5,-136.848 290,-126.848 286.5,-136.848 293.5,-136.848"/>
</g>
<!-- 2,4 -->
<g id="node8" class="node"><title>2,4</title>
<polygon fill="lightgray" stroke="black" points="362,-199.087 334,-199.087 334,-181.087 362,-181.087 362,-199.087"/>
<text text-anchor="middle" x="348" y="-187.887" font-family="Times,serif" font-size="9.00">2,4</text>
</g>
<!-- 5 -->
<g id="node21" class="node"><title>5</title>
<ellipse fill="white" stroke="black" cx="348" cy="-101.054" rx="14.7" ry="14.7"/>
<text text-anchor="middle" x="348" y="-98.8538" font-family="Times,serif" font-size="9.00">5</text>
</g>
<!-- 2,4&#45;&gt;5 -->
<g id="edge3" class="edge"><title>2,4&#45;&gt;5</title>
<path fill="none" stroke="red" stroke-width="0.11931" d="M348,-181.055C348,-168.672 348,-144.429 348,-126.048"/>
<polygon fill="red" stroke="red" stroke-width="0.11931" points="351.5,-126.037 348,-116.037 344.5,-126.037 351.5,-126.037"/>
</g>
<!-- 3,1 -->
<g id="node9" class="node"><title>3,1</title>
<polygon fill="lightgray" stroke="black" points="408,-199.087 380,-199.087 380,-181.087 408,-181.087 408,-199.087"/>
<text text-anchor="middle" x="394" y="-187.887" font-family="Times,serif" font-size="9.00">3,1</text>
</g>
<!-- 3,2 -->
<g id="node10" class="node"><title>3,2</title>
<polygon fill="lightgray" stroke="black" points="409,-110.054 381,-110.054 381,-92.0538 409,-92.0538 409,-110.054"/>
<text text-anchor="middle" x="395" y="-98.8538" font-family="Times,serif" font-size="9.00">3,2</text>
</g>
<!-- Up -->
<g id="node20" class="node"><title>Up</title>
<ellipse fill="lightblue" stroke="black" cx="371" cy="-19.799" rx="19.6" ry="19.6"/>
<text text-anchor="middle" x="371" y="-17.599" font-family="Times,serif" font-size="9.00">Up</text>
</g>
<!-- 3,2&#45;&gt;Up -->
<g id="edge1" class="edge"><title>3,2&#45;&gt;Up</title>
<path fill="none" stroke="red" stroke-width="0.28876" stroke-dasharray="1,5" d="M392.522,-91.8707C389.466,-81.7805 384.112,-64.0994 379.509,-48.8976"/>
<polygon fill="red" stroke="red" stroke-width="0.28876" points="382.727,-47.4496 376.479,-38.8932 376.028,-49.4784 382.727,-47.4496"/>
</g>
<!-- 3,3 -->
<g id="node11" class="node"><title>3,3</title>
<polygon fill="lightgray" stroke="black" points="454,-199.087 426,-199.087 426,-181.087 454,-181.087 454,-199.087"/>
<text text-anchor="middle" x="440" y="-187.887" font-family="Times,serif" font-size="9.00">3,3</text>
</g>
<!-- 3,4 -->
<g id="node12" class="node"><title>3,4</title>
<polygon fill="lightgray" stroke="black" points="500,-199.087 472,-199.087 472,-181.087 500,-181.087 500,-199.087"/>
<text text-anchor="middle" x="486" y="-187.887" font-family="Times,serif" font-size="9.00">3,4</text>
</g>
<!-- 4,1 -->
<g id="node13" class="node"><title>4,1</title>
<polygon fill="lightgray" stroke="black" points="546,-199.087 518,-199.087 518,-181.087 546,-181.087 546,-199.087"/>
<text text-anchor="middle" x="532" y="-187.887" font-family="Times,serif" font-size="9.00">4,1</text>
</g>
<!-- 4,2 -->
<g id="node14" class="node"><title>4,2</title>
<polygon fill="lightgray" stroke="black" points="592,-199.087 564,-199.087 564,-181.087 592,-181.087 592,-199.087"/>
<text text-anchor="middle" x="578" y="-187.887" font-family="Times,serif" font-size="9.00">4,2</text>
</g>
<!-- 4,3 -->
<g id="node15" class="node"><title>4,3</title>
<polygon fill="lightgray" stroke="black" points="638,-199.087 610,-199.087 610,-181.087 638,-181.087 638,-199.087"/>
<text text-anchor="middle" x="624" y="-187.887" font-family="Times,serif" font-size="9.00">4,3</text>
</g>
<!-- 4,4 -->
<g id="node16" class="node"><title>4,4</title>
<polygon fill="lightgray" stroke="black" points="684,-199.087 656,-199.087 656,-181.087 684,-181.087 684,-199.087"/>
<text text-anchor="middle" x="670" y="-187.887" font-family="Times,serif" font-size="9.00">4,4</text>
</g>
<!-- Down -->
<g id="node18" class="node"><title>Down</title>
<ellipse fill="lightblue" stroke="black" cx="730" cy="-190.087" rx="27.6545" ry="27.6545"/>
<text text-anchor="middle" x="730" y="-187.887" font-family="Times,serif" font-size="9.00">Down</text>
</g>
<!-- Left -->
<g id="node19" class="node"><title>Left</title>
<ellipse fill="lightblue" stroke="black" cx="797" cy="-190.087" rx="21.8409" ry="21.8409"/>
<text text-anchor="middle" x="797" y="-187.887" font-family="Times,serif" font-size="9.00">Left</text>
</g>
<!-- 5&#45;&gt;Up -->
<g id="edge4" class="edge"><title>5&#45;&gt;Up</title>
<path fill="none" stroke="red" stroke-width="0.253974" d="M351.902,-86.6093C354.895,-76.2944 359.132,-61.6953 362.854,-48.8674"/>
<polygon fill="red" stroke="red" stroke-width="0.253974" points="366.27,-49.6542 365.696,-39.0749 359.548,-47.7032 366.27,-49.6542"/>
</g>
</g>
</svg>
