<?xml version="1.0" encoding="UTF-8" standalone="no"?>
<!DOCTYPE svg PUBLIC "-//W3C//DTD SVG 1.1//EN"
 "http://www.w3.org/Graphics/SVG/1.1/DTD/svg11.dtd">
<!-- Generated by graphviz version 2.38.0 (20140413.2041)
 -->
<!-- Title: %3 Pages: 1 -->
<svg width="751pt" height="117pt"
 viewBox="0.00 0.00 751.00 117.15" xmlns="http://www.w3.org/2000/svg" xmlns:xlink="http://www.w3.org/1999/xlink">
<g id="graph0" class="graph" transform="scale(1 1) rotate(0) translate(4 113.154)">
<title>%3</title>
<polygon fill="white" stroke="none" points="-4,4 -4,-113.154 747,-113.154 747,4 -4,4"/>
<!-- 1,1 -->
<g id="node1" class="node"><title>1,1</title>
<polygon fill="lightgray" stroke="black" points="28,-109.154 0,-109.154 0,-91.1543 28,-91.1543 28,-109.154"/>
<text text-anchor="middle" x="14" y="-97.9543" font-family="Times,serif" font-size="9.00">1,1</text>
</g>
<!-- 1,2 -->
<g id="node2" class="node"><title>1,2</title>
<polygon fill="lightgray" stroke="black" points="74,-109.154 46,-109.154 46,-91.1543 74,-91.1543 74,-109.154"/>
<text text-anchor="middle" x="60" y="-97.9543" font-family="Times,serif" font-size="9.00">1,2</text>
</g>
<!-- 1,3 -->
<g id="node3" class="node"><title>1,3</title>
<polygon fill="lightgray" stroke="black" points="120,-109.154 92,-109.154 92,-91.1543 120,-91.1543 120,-109.154"/>
<text text-anchor="middle" x="106" y="-97.9543" font-family="Times,serif" font-size="9.00">1,3</text>
</g>
<!-- Left -->
<g id="node17" class="node"><title>Left</title>
<ellipse fill="lightblue" stroke="black" cx="39" cy="-27.5772" rx="21.8409" ry="21.8409"/>
<text text-anchor="middle" x="39" y="-25.3772" font-family="Times,serif" font-size="9.00">Left</text>
</g>
<!-- 1,3&#45;&gt;Left -->
<g id="edge3" class="edge"><title>1,3&#45;&gt;Left</title>
<path fill="none" stroke="red" stroke-width="0.128222" d="M98.3142,-91.0582C89.2345,-81.4937 73.7353,-65.167 60.8575,-51.6016"/>
<polygon fill="red" stroke="red" stroke-width="0.128222" points="63.0698,-48.8484 53.6465,-44.0056 57.993,-53.6679 63.0698,-48.8484"/>
</g>
<!-- Down -->
<g id="node18" class="node"><title>Down</title>
<ellipse fill="lightblue" stroke="black" cx="106" cy="-27.5772" rx="27.6545" ry="27.6545"/>
<text text-anchor="middle" x="106" y="-25.3772" font-family="Times,serif" font-size="9.00">Down</text>
</g>
<!-- 1,3&#45;&gt;Down -->
<g id="edge4" class="edge"><title>1,3&#45;&gt;Down</title>
<path fill="none" stroke="green" stroke-width="0.273102" stroke-dasharray="1,5" d="M106,-91.0582C106,-84.6087 106,-75.0844 106,-65.4054"/>
<polygon fill="green" stroke="green" stroke-width="0.273102" points="109.5,-65.3851 106,-55.3852 102.5,-65.3852 109.5,-65.3851"/>
</g>
<!-- Right -->
<g id="node19" class="node"><title>Right</title>
<ellipse fill="lightblue" stroke="black" cx="177" cy="-27.5772" rx="25.4118" ry="25.4118"/>
<text text-anchor="middle" x="177" y="-25.3772" font-family="Times,serif" font-size="9.00">Right</text>
</g>
<!-- 1,3&#45;&gt;Right -->
<g id="edge5" class="edge"><title>1,3&#45;&gt;Right</title>
<path fill="none" stroke="green" stroke-width="0.343089" d="M114.145,-91.0582C123.365,-81.8932 138.831,-66.5188 152.114,-53.3149"/>
<polygon fill="green" stroke="green" stroke-width="0.343089" points="154.591,-55.7881 159.215,-46.2559 149.656,-50.8235 154.591,-55.7881"/>
</g>
<!-- 1,4 -->
<g id="node4" class="node"><title>1,4</title>
<polygon fill="lightgray" stroke="black" points="237,-109.154 209,-109.154 209,-91.1543 237,-91.1543 237,-109.154"/>
<text text-anchor="middle" x="223" y="-97.9543" font-family="Times,serif" font-size="9.00">1,4</text>
</g>
<!-- 2,1 -->
<g id="node5" class="node"><title>2,1</title>
<polygon fill="lightgray" stroke="black" points="283,-109.154 255,-109.154 255,-91.1543 283,-91.1543 283,-109.154"/>
<text text-anchor="middle" x="269" y="-97.9543" font-family="Times,serif" font-size="9.00">2,1</text>
</g>
<!-- 2,2 -->
<g id="node6" class="node"><title>2,2</title>
<polygon fill="lightgray" stroke="black" points="329,-109.154 301,-109.154 301,-91.1543 329,-91.1543 329,-109.154"/>
<text text-anchor="middle" x="315" y="-97.9543" font-family="Times,serif" font-size="9.00">2,2</text>
</g>
<!-- 2,3 -->
<g id="node7" class="node"><title>2,3</title>
<polygon fill="lightgray" stroke="black" points="375,-109.154 347,-109.154 347,-91.1543 375,-91.1543 375,-109.154"/>
<text text-anchor="middle" x="361" y="-97.9543" font-family="Times,serif" font-size="9.00">2,3</text>
</g>
<!-- 2,4 -->
<g id="node8" class="node"><title>2,4</title>
<polygon fill="lightgray" stroke="black" points="421,-109.154 393,-109.154 393,-91.1543 421,-91.1543 421,-109.154"/>
<text text-anchor="middle" x="407" y="-97.9543" font-family="Times,serif" font-size="9.00">2,4</text>
</g>
<!-- 3,1 -->
<g id="node9" class="node"><title>3,1</title>
<polygon fill="lightgray" stroke="black" points="467,-109.154 439,-109.154 439,-91.1543 467,-91.1543 467,-109.154"/>
<text text-anchor="middle" x="453" y="-97.9543" font-family="Times,serif" font-size="9.00">3,1</text>
</g>
<!-- Up -->
<g id="node20" class="node"><title>Up</title>
<ellipse fill="lightblue" stroke="black" cx="453" cy="-27.5772" rx="19.6" ry="19.6"/>
<text text-anchor="middle" x="453" y="-25.3772" font-family="Times,serif" font-size="9.00">Up</text>
</g>
<!-- 3,1&#45;&gt;Up -->
<g id="edge2" class="edge"><title>3,1&#45;&gt;Up</title>
<path fill="none" stroke="red" stroke-width="0.252219" d="M453,-91.0582C453,-82.8809 453,-69.7607 453,-57.6493"/>
<polygon fill="red" stroke="red" stroke-width="0.252219" points="456.5,-57.4152 453,-47.4152 449.5,-57.4152 456.5,-57.4152"/>
</g>
<!-- 3,2 -->
<g id="node10" class="node"><title>3,2</title>
<polygon fill="lightgray" stroke="black" points="191,-109.154 163,-109.154 163,-91.1543 191,-91.1543 191,-109.154"/>
<text text-anchor="middle" x="177" y="-97.9543" font-family="Times,serif" font-size="9.00">3,2</text>
</g>
<!-- 3,2&#45;&gt;Right -->
<g id="edge1" class="edge"><title>3,2&#45;&gt;Right</title>
<path fill="none" stroke="red" stroke-width="0.106073" stroke-dasharray="1,5" d="M177,-91.0582C177,-84.1607 177,-73.7462 177,-63.3868"/>
<polygon fill="red" stroke="red" stroke-width="0.106073" points="180.5,-63.178 177,-53.178 173.5,-63.1781 180.5,-63.178"/>
</g>
<!-- 3,3 -->
<g id="node11" class="node"><title>3,3</title>
<polygon fill="lightgray" stroke="black" points="513,-109.154 485,-109.154 485,-91.1543 513,-91.1543 513,-109.154"/>
<text text-anchor="middle" x="499" y="-97.9543" font-family="Times,serif" font-size="9.00">3,3</text>
</g>
<!-- 3,4 -->
<g id="node12" class="node"><title>3,4</title>
<polygon fill="lightgray" stroke="black" points="559,-109.154 531,-109.154 531,-91.1543 559,-91.1543 559,-109.154"/>
<text text-anchor="middle" x="545" y="-97.9543" font-family="Times,serif" font-size="9.00">3,4</text>
</g>
<!-- 4,1 -->
<g id="node13" class="node"><title>4,1</title>
<polygon fill="lightgray" stroke="black" points="605,-109.154 577,-109.154 577,-91.1543 605,-91.1543 605,-109.154"/>
<text text-anchor="middle" x="591" y="-97.9543" font-family="Times,serif" font-size="9.00">4,1</text>
</g>
<!-- 4,2 -->
<g id="node14" class="node"><title>4,2</title>
<polygon fill="lightgray" stroke="black" points="651,-109.154 623,-109.154 623,-91.1543 651,-91.1543 651,-109.154"/>
<text text-anchor="middle" x="637" y="-97.9543" font-family="Times,serif" font-size="9.00">4,2</text>
</g>
<!-- 4,3 -->
<g id="node15" class="node"><title>4,3</title>
<polygon fill="lightgray" stroke="black" points="697,-109.154 669,-109.154 669,-91.1543 697,-91.1543 697,-109.154"/>
<text text-anchor="middle" x="683" y="-97.9543" font-family="Times,serif" font-size="9.00">4,3</text>
</g>
<!-- 4,4 -->
<g id="node16" class="node"><title>4,4</title>
<polygon fill="lightgray" stroke="black" points="743,-109.154 715,-109.154 715,-91.1543 743,-91.1543 743,-109.154"/>
<text text-anchor="middle" x="729" y="-97.9543" font-family="Times,serif" font-size="9.00">4,4</text>
</g>
</g>
</svg>
