<?xml version="1.0" encoding="UTF-8" standalone="no"?>
<!DOCTYPE svg PUBLIC "-//W3C//DTD SVG 1.1//EN"
 "http://www.w3.org/Graphics/SVG/1.1/DTD/svg11.dtd">
<!-- Generated by graphviz version 2.38.0 (20140413.2041)
 -->
<!-- Title: %3 Pages: 1 -->
<svg width="987pt" height="63pt"
 viewBox="0.00 0.00 986.80 63.15" xmlns="http://www.w3.org/2000/svg" xmlns:xlink="http://www.w3.org/1999/xlink">
<g id="graph0" class="graph" transform="scale(1 1) rotate(0) translate(4 59.1543)">
<title>%3</title>
<polygon fill="white" stroke="none" points="-4,4 -4,-59.1543 982.799,-59.1543 982.799,4 -4,4"/>
<!-- 1,1 -->
<g id="node1" class="node"><title>1,1</title>
<polygon fill="lightgray" stroke="black" points="28,-36.5772 -1.77636e-15,-36.5772 -1.77636e-15,-18.5772 28,-18.5772 28,-36.5772"/>
<text text-anchor="middle" x="14" y="-25.3772" font-family="Times,serif" font-size="9.00">1,1</text>
</g>
<!-- 1,2 -->
<g id="node2" class="node"><title>1,2</title>
<polygon fill="lightgray" stroke="black" points="74,-36.5772 46,-36.5772 46,-18.5772 74,-18.5772 74,-36.5772"/>
<text text-anchor="middle" x="60" y="-25.3772" font-family="Times,serif" font-size="9.00">1,2</text>
</g>
<!-- 1,3 -->
<g id="node3" class="node"><title>1,3</title>
<polygon fill="lightgray" stroke="black" points="120,-36.5772 92,-36.5772 92,-18.5772 120,-18.5772 120,-36.5772"/>
<text text-anchor="middle" x="106" y="-25.3772" font-family="Times,serif" font-size="9.00">1,3</text>
</g>
<!-- 1,4 -->
<g id="node4" class="node"><title>1,4</title>
<polygon fill="lightgray" stroke="black" points="166,-36.5772 138,-36.5772 138,-18.5772 166,-18.5772 166,-36.5772"/>
<text text-anchor="middle" x="152" y="-25.3772" font-family="Times,serif" font-size="9.00">1,4</text>
</g>
<!-- 2,1 -->
<g id="node5" class="node"><title>2,1</title>
<polygon fill="lightgray" stroke="black" points="212,-36.5772 184,-36.5772 184,-18.5772 212,-18.5772 212,-36.5772"/>
<text text-anchor="middle" x="198" y="-25.3772" font-family="Times,serif" font-size="9.00">2,1</text>
</g>
<!-- 2,2 -->
<g id="node6" class="node"><title>2,2</title>
<polygon fill="lightgray" stroke="black" points="258,-36.5772 230,-36.5772 230,-18.5772 258,-18.5772 258,-36.5772"/>
<text text-anchor="middle" x="244" y="-25.3772" font-family="Times,serif" font-size="9.00">2,2</text>
</g>
<!-- 2,3 -->
<g id="node7" class="node"><title>2,3</title>
<polygon fill="lightgray" stroke="black" points="304,-36.5772 276,-36.5772 276,-18.5772 304,-18.5772 304,-36.5772"/>
<text text-anchor="middle" x="290" y="-25.3772" font-family="Times,serif" font-size="9.00">2,3</text>
</g>
<!-- 2,4 -->
<g id="node8" class="node"><title>2,4</title>
<polygon fill="lightgray" stroke="black" points="350,-36.5772 322,-36.5772 322,-18.5772 350,-18.5772 350,-36.5772"/>
<text text-anchor="middle" x="336" y="-25.3772" font-family="Times,serif" font-size="9.00">2,4</text>
</g>
<!-- 3,1 -->
<g id="node9" class="node"><title>3,1</title>
<polygon fill="lightgray" stroke="black" points="396,-36.5772 368,-36.5772 368,-18.5772 396,-18.5772 396,-36.5772"/>
<text text-anchor="middle" x="382" y="-25.3772" font-family="Times,serif" font-size="9.00">3,1</text>
</g>
<!-- 3,2 -->
<g id="node10" class="node"><title>3,2</title>
<polygon fill="lightgray" stroke="black" points="442,-36.5772 414,-36.5772 414,-18.5772 442,-18.5772 442,-36.5772"/>
<text text-anchor="middle" x="428" y="-25.3772" font-family="Times,serif" font-size="9.00">3,2</text>
</g>
<!-- 3,3 -->
<g id="node11" class="node"><title>3,3</title>
<polygon fill="lightgray" stroke="black" points="488,-36.5772 460,-36.5772 460,-18.5772 488,-18.5772 488,-36.5772"/>
<text text-anchor="middle" x="474" y="-25.3772" font-family="Times,serif" font-size="9.00">3,3</text>
</g>
<!-- 3,4 -->
<g id="node12" class="node"><title>3,4</title>
<polygon fill="lightgray" stroke="black" points="534,-36.5772 506,-36.5772 506,-18.5772 534,-18.5772 534,-36.5772"/>
<text text-anchor="middle" x="520" y="-25.3772" font-family="Times,serif" font-size="9.00">3,4</text>
</g>
<!-- 4,1 -->
<g id="node13" class="node"><title>4,1</title>
<polygon fill="lightgray" stroke="black" points="580,-36.5772 552,-36.5772 552,-18.5772 580,-18.5772 580,-36.5772"/>
<text text-anchor="middle" x="566" y="-25.3772" font-family="Times,serif" font-size="9.00">4,1</text>
</g>
<!-- 4,2 -->
<g id="node14" class="node"><title>4,2</title>
<polygon fill="lightgray" stroke="black" points="626,-36.5772 598,-36.5772 598,-18.5772 626,-18.5772 626,-36.5772"/>
<text text-anchor="middle" x="612" y="-25.3772" font-family="Times,serif" font-size="9.00">4,2</text>
</g>
<!-- 4,3 -->
<g id="node15" class="node"><title>4,3</title>
<polygon fill="lightgray" stroke="black" points="672,-36.5772 644,-36.5772 644,-18.5772 672,-18.5772 672,-36.5772"/>
<text text-anchor="middle" x="658" y="-25.3772" font-family="Times,serif" font-size="9.00">4,3</text>
</g>
<!-- 4,4 -->
<g id="node16" class="node"><title>4,4</title>
<polygon fill="lightgray" stroke="black" points="718,-36.5772 690,-36.5772 690,-18.5772 718,-18.5772 718,-36.5772"/>
<text text-anchor="middle" x="704" y="-25.3772" font-family="Times,serif" font-size="9.00">4,4</text>
</g>
<!-- Left -->
<g id="node17" class="node"><title>Left</title>
<ellipse fill="lightblue" stroke="black" cx="758" cy="-27.5772" rx="21.8409" ry="21.8409"/>
<text text-anchor="middle" x="758" y="-25.3772" font-family="Times,serif" font-size="9.00">Left</text>
</g>
<!-- Down -->
<g id="node18" class="node"><title>Down</title>
<ellipse fill="lightblue" stroke="black" cx="825" cy="-27.5772" rx="27.6545" ry="27.6545"/>
<text text-anchor="middle" x="825" y="-25.3772" font-family="Times,serif" font-size="9.00">Down</text>
</g>
<!-- Right -->
<g id="node19" class="node"><title>Right</title>
<ellipse fill="lightblue" stroke="black" cx="896" cy="-27.5772" rx="25.4118" ry="25.4118"/>
<text text-anchor="middle" x="896" y="-25.3772" font-family="Times,serif" font-size="9.00">Right</text>
</g>
<!-- Up -->
<g id="node20" class="node"><title>Up</title>
<ellipse fill="lightblue" stroke="black" cx="959" cy="-27.5772" rx="19.6" ry="19.6"/>
<text text-anchor="middle" x="959" y="-25.3772" font-family="Times,serif" font-size="9.00">Up</text>
</g>
</g>
</svg>
