<?xml version="1.0" encoding="UTF-8" standalone="no"?>
<!DOCTYPE svg PUBLIC "-//W3C//DTD SVG 1.1//EN"
 "http://www.w3.org/Graphics/SVG/1.1/DTD/svg11.dtd">
<!-- Generated by graphviz version 2.38.0 (20140413.2041)
 -->
<!-- Title: %3 Pages: 1 -->
<svg width="802pt" height="303pt"
 viewBox="0.00 0.00 801.80 302.68" xmlns="http://www.w3.org/2000/svg" xmlns:xlink="http://www.w3.org/1999/xlink">
<g id="graph0" class="graph" transform="scale(1 1) rotate(0) translate(4 298.676)">
<title>%3</title>
<polygon fill="white" stroke="none" points="-4,4 -4,-298.676 797.799,-298.676 797.799,4 -4,4"/>
<!-- 1,1 -->
<g id="node1" class="node"><title>1,1</title>
<polygon fill="lightgray" stroke="black" points="28,-278.22 0,-278.22 0,-260.22 28,-260.22 28,-278.22"/>
<text text-anchor="middle" x="14" y="-267.02" font-family="Times,serif" font-size="9.00">1,1</text>
</g>
<!-- 1,2 -->
<g id="node2" class="node"><title>1,2</title>
<polygon fill="lightgray" stroke="black" points="74,-278.22 46,-278.22 46,-260.22 74,-260.22 74,-278.22"/>
<text text-anchor="middle" x="60" y="-267.02" font-family="Times,serif" font-size="9.00">1,2</text>
</g>
<!-- 1,3 -->
<g id="node3" class="node"><title>1,3</title>
<polygon fill="lightgray" stroke="black" points="120,-278.22 92,-278.22 92,-260.22 120,-260.22 120,-278.22"/>
<text text-anchor="middle" x="106" y="-267.02" font-family="Times,serif" font-size="9.00">1,3</text>
</g>
<!-- 1,4 -->
<g id="node4" class="node"><title>1,4</title>
<polygon fill="lightgray" stroke="black" points="166,-278.22 138,-278.22 138,-260.22 166,-260.22 166,-278.22"/>
<text text-anchor="middle" x="152" y="-267.02" font-family="Times,serif" font-size="9.00">1,4</text>
</g>
<!-- 2,1 -->
<g id="node5" class="node"><title>2,1</title>
<polygon fill="lightgray" stroke="black" points="212,-278.22 184,-278.22 184,-260.22 212,-260.22 212,-278.22"/>
<text text-anchor="middle" x="198" y="-267.02" font-family="Times,serif" font-size="9.00">2,1</text>
</g>
<!-- 2,2 -->
<g id="node6" class="node"><title>2,2</title>
<polygon fill="lightgray" stroke="black" points="258,-278.22 230,-278.22 230,-260.22 258,-260.22 258,-278.22"/>
<text text-anchor="middle" x="244" y="-267.02" font-family="Times,serif" font-size="9.00">2,2</text>
</g>
<!-- 2,3 -->
<g id="node7" class="node"><title>2,3</title>
<polygon fill="lightgray" stroke="black" points="304,-278.22 276,-278.22 276,-260.22 304,-260.22 304,-278.22"/>
<text text-anchor="middle" x="290" y="-267.02" font-family="Times,serif" font-size="9.00">2,3</text>
</g>
<!-- 2,4 -->
<g id="node8" class="node"><title>2,4</title>
<polygon fill="lightgray" stroke="black" points="277,-194.844 249,-194.844 249,-176.844 277,-176.844 277,-194.844"/>
<text text-anchor="middle" x="263" y="-183.644" font-family="Times,serif" font-size="9.00">2,4</text>
</g>
<!-- 30 -->
<g id="node23" class="node"><title>30</title>
<ellipse fill="white" stroke="black" cx="380" cy="-109.539" rx="18.2703" ry="18.2703"/>
<text text-anchor="middle" x="380" y="-107.339" font-family="Times,serif" font-size="9.00">30</text>
</g>
<!-- 2,4&#45;&gt;30 -->
<g id="edge1" class="edge"><title>2,4&#45;&gt;30</title>
<path fill="none" stroke="green" stroke-width="0.158114" d="M271.137,-176.624C275.374,-172.56 280.756,-167.726 286,-163.924 307.968,-147.998 335.103,-133.034 354.563,-123.025"/>
<polygon fill="green" stroke="green" stroke-width="0.158114" points="356.366,-126.035 363.707,-118.395 353.204,-119.789 356.366,-126.035"/>
</g>
<!-- 3,1 -->
<g id="node9" class="node"><title>3,1</title>
<polygon fill="lightgray" stroke="black" points="350,-278.22 322,-278.22 322,-260.22 350,-260.22 350,-278.22"/>
<text text-anchor="middle" x="336" y="-267.02" font-family="Times,serif" font-size="9.00">3,1</text>
</g>
<!-- 87 -->
<g id="node22" class="node"><title>87</title>
<ellipse fill="white" stroke="black" cx="313" cy="-185.844" rx="18.2703" ry="18.2703"/>
<text text-anchor="middle" x="313" y="-183.644" font-family="Times,serif" font-size="9.00">87</text>
</g>
<!-- 3,1&#45;&gt;87 -->
<g id="edge8" class="edge"><title>3,1&#45;&gt;87</title>
<path fill="none" stroke="green" stroke-width="0.326332" d="M333.711,-260.12C330.672,-249.369 325.158,-229.859 320.583,-213.672"/>
<polygon fill="green" stroke="green" stroke-width="0.326332" points="323.835,-212.312 317.747,-203.641 317.099,-214.216 323.835,-212.312"/>
</g>
<!-- 3,1&#45;&gt;30 -->
<g id="edge7" class="edge"><title>3,1&#45;&gt;30</title>
<path fill="none" stroke="green" stroke-width="0.832533" d="M338.242,-260.184C344.475,-237.85 362.217,-174.268 372.458,-137.568"/>
<polygon fill="green" stroke="green" stroke-width="0.832533" points="375.936,-138.123 375.253,-127.551 369.194,-136.242 375.936,-138.123"/>
</g>
<!-- 3,2 -->
<g id="node10" class="node"><title>3,2</title>
<polygon fill="lightgray" stroke="black" points="415,-194.844 387,-194.844 387,-176.844 415,-176.844 415,-194.844"/>
<text text-anchor="middle" x="401" y="-183.644" font-family="Times,serif" font-size="9.00">3,2</text>
</g>
<!-- 3,2&#45;&gt;30 -->
<g id="edge12" class="edge"><title>3,2&#45;&gt;30</title>
<path fill="none" stroke="red" stroke-width="0.211532" d="M398.672,-176.608C395.991,-167.122 391.45,-151.053 387.517,-137.137"/>
<polygon fill="red" stroke="red" stroke-width="0.211532" points="390.884,-136.182 384.796,-127.511 384.148,-138.085 390.884,-136.182"/>
</g>
<!-- 3,3 -->
<g id="node11" class="node"><title>3,3</title>
<polygon fill="lightgray" stroke="black" points="576,-278.22 548,-278.22 548,-260.22 576,-260.22 576,-278.22"/>
<text text-anchor="middle" x="562" y="-267.02" font-family="Times,serif" font-size="9.00">3,3</text>
</g>
<!-- 3,4 -->
<g id="node12" class="node"><title>3,4</title>
<polygon fill="lightgray" stroke="black" points="444,-118.539 416,-118.539 416,-100.539 444,-100.539 444,-118.539"/>
<text text-anchor="middle" x="430" y="-107.339" font-family="Times,serif" font-size="9.00">3,4</text>
</g>
<!-- Down -->
<g id="node18" class="node"><title>Down</title>
<ellipse fill="lightblue" stroke="black" cx="430" cy="-27.5772" rx="27.6545" ry="27.6545"/>
<text text-anchor="middle" x="430" y="-25.3772" font-family="Times,serif" font-size="9.00">Down</text>
</g>
<!-- 3,4&#45;&gt;Down -->
<g id="edge5" class="edge"><title>3,4&#45;&gt;Down</title>
<path fill="none" stroke="green" stroke-width="0.222559" d="M430,-100.283C430,-91.9707 430,-78.5525 430,-65.5591"/>
<polygon fill="green" stroke="green" stroke-width="0.222559" points="433.5,-65.3353 430,-55.3354 426.5,-65.3354 433.5,-65.3353"/>
</g>
<!-- 4,1 -->
<g id="node13" class="node"><title>4,1</title>
<polygon fill="lightgray" stroke="black" points="490,-118.539 462,-118.539 462,-100.539 490,-100.539 490,-118.539"/>
<text text-anchor="middle" x="476" y="-107.339" font-family="Times,serif" font-size="9.00">4,1</text>
</g>
<!-- 4,1&#45;&gt;Down -->
<g id="edge11" class="edge"><title>4,1&#45;&gt;Down</title>
<path fill="none" stroke="red" stroke-width="0.114563" d="M471.25,-100.283C465.852,-90.8984 456.709,-75.0053 448.401,-60.5632"/>
<polygon fill="red" stroke="red" stroke-width="0.114563" points="451.397,-58.7524 443.377,-51.8297 445.329,-62.243 451.397,-58.7524"/>
</g>
<!-- 4,2 -->
<g id="node14" class="node"><title>4,2</title>
<polygon fill="lightgray" stroke="black" points="622,-278.22 594,-278.22 594,-260.22 622,-260.22 622,-278.22"/>
<text text-anchor="middle" x="608" y="-267.02" font-family="Times,serif" font-size="9.00">4,2</text>
</g>
<!-- 4,3 -->
<g id="node15" class="node"><title>4,3</title>
<polygon fill="lightgray" stroke="black" points="530,-278.22 502,-278.22 502,-260.22 530,-260.22 530,-278.22"/>
<text text-anchor="middle" x="516" y="-267.02" font-family="Times,serif" font-size="9.00">4,3</text>
</g>
<!-- Left -->
<g id="node17" class="node"><title>Left</title>
<ellipse fill="lightblue" stroke="black" cx="455" cy="-185.844" rx="21.8409" ry="21.8409"/>
<text text-anchor="middle" x="455" y="-183.644" font-family="Times,serif" font-size="9.00">Left</text>
</g>
<!-- 4,3&#45;&gt;Left -->
<g id="edge4" class="edge"><title>4,3&#45;&gt;Left</title>
<path fill="none" stroke="green" stroke-width="0.425989" stroke-dasharray="1,5" d="M509.928,-260.12C501.614,-249.028 486.309,-228.612 473.963,-212.142"/>
<polygon fill="green" stroke="green" stroke-width="0.425989" points="476.628,-209.861 467.829,-203.959 471.027,-214.06 476.628,-209.861"/>
</g>
<!-- 148 -->
<g id="node21" class="node"><title>148</title>
<ellipse fill="white" stroke="black" cx="516" cy="-185.844" rx="21.4286" ry="21.4286"/>
<text text-anchor="middle" x="516" y="-183.644" font-family="Times,serif" font-size="9.00">148</text>
</g>
<!-- 4,3&#45;&gt;148 -->
<g id="edge9" class="edge"><title>4,3&#45;&gt;148</title>
<path fill="none" stroke="red" stroke-width="0.229573" d="M516,-260.12C516,-250.19 516,-232.788 516,-217.433"/>
<polygon fill="red" stroke="red" stroke-width="0.229573" points="519.5,-217.248 516,-207.248 512.5,-217.248 519.5,-217.248"/>
</g>
<!-- 4,3&#45;&gt;30 -->
<g id="edge3" class="edge"><title>4,3&#45;&gt;30</title>
<path fill="none" stroke="red" stroke-width="0.135158" stroke-dasharray="1,5" d="M522.769,-259.994C537.466,-241.088 569.18,-193.872 546,-163.924 506.94,-113.458 465.457,-153.522 407,-127.924 405.822,-127.408 404.637,-126.844 403.457,-126.245"/>
<polygon fill="red" stroke="red" stroke-width="0.135158" points="405.072,-123.136 394.66,-121.174 401.576,-129.201 405.072,-123.136"/>
</g>
<!-- 4,4 -->
<g id="node16" class="node"><title>4,4</title>
<polygon fill="lightgray" stroke="black" points="668,-278.22 640,-278.22 640,-260.22 668,-260.22 668,-278.22"/>
<text text-anchor="middle" x="654" y="-267.02" font-family="Times,serif" font-size="9.00">4,4</text>
</g>
<!-- Right -->
<g id="node19" class="node"><title>Right</title>
<ellipse fill="lightblue" stroke="black" cx="711" cy="-269.22" rx="25.4118" ry="25.4118"/>
<text text-anchor="middle" x="711" y="-267.02" font-family="Times,serif" font-size="9.00">Right</text>
</g>
<!-- Up -->
<g id="node20" class="node"><title>Up</title>
<ellipse fill="lightblue" stroke="black" cx="774" cy="-269.22" rx="19.6" ry="19.6"/>
<text text-anchor="middle" x="774" y="-267.02" font-family="Times,serif" font-size="9.00">Up</text>
</g>
<!-- 148&#45;&gt;30 -->
<g id="edge10" class="edge"><title>148&#45;&gt;30</title>
<path fill="none" stroke="red" stroke-width="0.138231" d="M499.215,-172.344C494.997,-169.427 490.413,-166.44 486,-163.924 452.482,-144.81 440.865,-146.416 407,-127.924 405.872,-127.308 404.727,-126.661 403.579,-125.995"/>
<polygon fill="red" stroke="red" stroke-width="0.138231" points="405.258,-122.92 394.903,-120.679 401.601,-128.888 405.258,-122.92"/>
</g>
<!-- 87&#45;&gt;30 -->
<g id="edge6" class="edge"><title>87&#45;&gt;30</title>
<path fill="none" stroke="green" stroke-width="0.529058" d="M324.978,-171.56C335.077,-160.36 349.702,-144.14 361.336,-131.238"/>
<polygon fill="green" stroke="green" stroke-width="0.529058" points="364.028,-133.479 368.125,-123.708 358.829,-128.791 364.028,-133.479"/>
</g>
<!-- 30&#45;&gt;Down -->
<g id="edge2" class="edge"><title>30&#45;&gt;Down</title>
<path fill="none" stroke="green" stroke-width="0.68264" d="M389.405,-93.4989C395.311,-84.0536 403.15,-71.5161 410.365,-59.9789"/>
<polygon fill="green" stroke="green" stroke-width="0.68264" points="413.383,-61.7536 415.717,-51.4191 407.448,-58.0424 413.383,-61.7536"/>
</g>
</g>
</svg>
